<svg xmlns="http://www.w3.org/2000/svg" width="97.336" height="91.317" viewBox="0 0 97.336 91.317">
  <g id="Group_3422" data-name="Group 3422" transform="translate(1 1)">
    <path id="Line_975" data-name="Line 975" d="M9.995,1H0A1,1,0,0,1-1,0,1,1,0,0,1,0-1H9.995a1,1,0,0,1,1,1A1,1,0,0,1,9.995,1Z" transform="translate(49.206 59.201)"/>
    <path id="Path_7181" data-name="Path 7181" d="M2064.442,4123.115h-19.221a20.221,20.221,0,1,1,0-40.442c.181,0,.368,0,.56.009a21.76,21.76,0,0,1,33.545-17.286,21.813,21.813,0,0,1,7.312,7.891,11.372,11.372,0,0,1,18.015,9.232,11.194,11.194,0,0,1-.282,2.491,19.063,19.063,0,0,1,12.249,32.651,1,1,0,0,1-1.4-1.428,17.068,17.068,0,0,0-11.951-29.254l-.077,0c-.048,0-.1.005-.144,0a1,1,0,0,1-.943-1.333,9.365,9.365,0,0,0-15.128-10.069,1,1,0,0,1-1.577-.315,19.759,19.759,0,0,0-37.641,8.405v.009c0,.019,0,.038,0,.057a1,1,0,0,1-1.078,1c-.542-.042-1.02-.063-1.461-.063a18.221,18.221,0,1,0,0,36.442h19.221a1,1,0,0,1,0,2Z" transform="translate(-2026 -4062.914)"/>
    <path id="Path_7182" data-name="Path 7182" d="M2047.3,4128.215a13.317,13.317,0,0,1-13.3-13.3,1,1,0,0,1,2,0,11.314,11.314,0,0,0,11.3,11.3,1,1,0,0,1,0,2Z" transform="translate(-2028.081 -4074.934)"/>
    <path id="Path_7183" data-name="Path 7183" d="M2062.258,4084.414a1,1,0,0,1-.987-1.169,14.862,14.862,0,0,1,14.627-12.331,14.676,14.676,0,0,1,6.216,1.376,1,1,0,0,1-.841,1.814,12.818,12.818,0,0,0-18.031,9.478A1,1,0,0,1,2062.258,4084.414Z" transform="translate(-2034.381 -4064.995)"/>
    <path id="Path_7184" data-name="Path 7184" d="M2137.614,4114.063a1,1,0,0,1-1-1,10.17,10.17,0,0,0-10.079-10.148l-.155,0h-.029a1,1,0,0,1-.028-2l.172,0h.033a12.161,12.161,0,0,1,12.085,12.148A1,1,0,0,1,2137.614,4114.063Z" transform="translate(-2049.198 -4071.93)"/>
    <path id="Line_976" data-name="Line 976" d="M4.613,1H0A1,1,0,0,1-1,0,1,1,0,0,1,0-1H4.613a1,1,0,0,1,1,1A1,1,0,0,1,4.613,1Z" transform="translate(69.964 59.201)"/>
    <path id="Path_7185" data-name="Path 7185" d="M2067.226,4121.517h-1.538a8.7,8.7,0,0,1-8.689-8.689V4103.6a8.7,8.7,0,0,1,8.689-8.688h1.538a8.7,8.7,0,0,1,8.688,8.688,1,1,0,0,1-2,0,6.7,6.7,0,0,0-6.688-6.688h-1.538A6.7,6.7,0,0,0,2059,4103.6v9.225a6.7,6.7,0,0,0,6.689,6.689h1.538a6.7,6.7,0,0,0,6.688-6.689,1,1,0,0,1,2,0A8.7,8.7,0,0,1,2067.226,4121.517Z" transform="translate(-2033.397 -4070.543)"/>
    <path id="Rectangle_1869" data-name="Rectangle 1869" d="M8.457-1a9.468,9.468,0,0,1,9.457,9.457v7.688A9.457,9.457,0,0,1-1,16.146V8.457A9.468,9.468,0,0,1,8.457-1Zm0,24.6a7.466,7.466,0,0,0,7.457-7.457V8.457A7.457,7.457,0,1,0,1,8.457v7.688A7.466,7.466,0,0,0,8.457,23.6Z" transform="translate(46.899 25.372)"/>
    <path id="Path_7186" data-name="Path 7186" d="M2074.723,4159.648a2.53,2.53,0,0,1-1.793-.741l-9.358-9.359a2.537,2.537,0,0,1,1.794-4.332h4.514v-1.308a1,1,0,0,1,2,0v2.308a1,1,0,0,1-1,1h-5.514a.537.537,0,0,0-.38.918l9.358,9.358a.54.54,0,0,0,.761,0l9.357-9.358a.538.538,0,0,0-.38-.918h-5.514a1,1,0,0,1-1-1v-12.3a1,1,0,0,1,2,0v11.3h4.514a2.538,2.538,0,0,1,1.794,4.332l-9.358,9.358A2.532,2.532,0,0,1,2074.723,4159.648Z" transform="translate(-2034.743 -4079.327)"/>
    <path id="Path_7187" data-name="Path 7187" d="M2101.723,4169.644h0a2.518,2.518,0,0,1-1.794-.744l-9.357-9.357a2.537,2.537,0,0,1,1.793-4.332h4.515v-11.3a1,1,0,0,1,2,0v12.3a1,1,0,0,1-1,1h-5.515a.538.538,0,0,0-.38.917l9.358,9.358a.532.532,0,0,0,.38.158h0a.532.532,0,0,0,.38-.158l9.358-9.358a.538.538,0,0,0-.38-.918h-5.514a1,1,0,0,1-1-1v-22.3a1,1,0,0,1,2,0v21.3h4.514a2.538,2.538,0,0,1,1.794,4.333l-9.358,9.357A2.52,2.52,0,0,1,2101.723,4169.644Z" transform="translate(-2040.985 -4079.327)"/>
    <path id="Path_7188" data-name="Path 7188" d="M2123.688,4129.248H2116.9a1,1,0,0,1-.845-1.535l1.751-2.766a5.963,5.963,0,0,1,2.989-2.509,2.85,2.85,0,0,0,1.889-2.678,2.9,2.9,0,0,0-2.845-2.847,2.848,2.848,0,0,0-2.844,2.844,1,1,0,0,1-2,0,4.851,4.851,0,0,1,4.843-4.844,4.9,4.9,0,0,1,4.845,4.847,4.853,4.853,0,0,1-3.216,4.561,4.052,4.052,0,0,0-1.972,1.7l-.78,1.231h4.968a1,1,0,0,1,0,2Z" transform="translate(-2046.805 -4075.165)"/>
    <path id="Path_7189" data-name="Path 7189" d="M2032.966,4145.012a30.8,30.8,0,0,1,9.373,1.289,16.139,16.139,0,0,1,10.954,10.866,30.616,30.616,0,0,1,1.332,9.5,1,1,0,0,1-.96,1c-.5.02-.994.03-1.475.03-6.588,0-11.664-1.868-15.089-5.552-3.407-3.665-5.134-9.093-5.134-16.136A1,1,0,0,1,2032.966,4145.012Zm19.647,20.685c-.146-6.309-1.73-10.877-4.831-13.945-3.06-3.027-7.582-4.578-13.8-4.728.154,6.025,1.694,10.651,4.586,13.762,3.031,3.26,7.615,4.914,13.624,4.914Z" transform="translate(-2027.611 -4082.123)"/>
    <path id="Line_977" data-name="Line 977" d="M11.5,12.54a1,1,0,0,1-.708-.294L-.708.706a1,1,0,0,1,0-1.414,1,1,0,0,1,1.414,0l11.5,11.54A1,1,0,0,1,11.5,12.54Z" transform="translate(14.512 73.007)"/>
    <path id="Path_7190" data-name="Path 7190" d="M2138.559,4137.874a1,1,0,0,1,1,1c0,5.06-1.249,8.968-3.712,11.617-2.481,2.669-6.146,4.022-10.893,4.022-.344,0-.7-.007-1.053-.021a1,1,0,0,1-.96-1,21.954,21.954,0,0,1,.957-6.817,11.711,11.711,0,0,1,7.939-7.876A22.082,22.082,0,0,1,2138.559,4137.874Zm-13.6,14.639c4.167,0,7.338-1.139,9.425-3.384,1.948-2.095,3.008-5.2,3.158-9.238-4.164.146-7.2,1.214-9.259,3.251C2126.192,4145.21,2125.1,4148.282,2124.957,4152.513Z" transform="translate(-2048.64 -4080.473)"/>
  </g>
</svg>
