<svg xmlns="http://www.w3.org/2000/svg" width="106.953" height="160.63" viewBox="0 0 106.953 160.63">
  <g id="Group_3463" data-name="Group 3463" transform="translate(-152.572 -3186.743)">
    <path id="Path_7298" data-name="Path 7298" d="M-14322.474,9290.748h-9.293a1,1,0,0,1-.916-.6l-28.152-64.5a1,1,0,0,1-.084-.4V9143.5h-27.518v81.753a1,1,0,0,1-.089.413l-29.246,64.5a1,1,0,0,1-.911.587h-8.744a1,1,0,0,1-1-1,1,1,0,0,1,1-1h8.1l28.891-63.711V9142.5a1,1,0,0,1,1-1h29.518a1,1,0,0,1,1,1v82.544l27.807,63.7h8.639a1,1,0,0,1,1,1A1,1,0,0,1-14322.474,9290.748Z" transform="translate(14580.999 -5943.375)"/>
    <path id="Path_7299" data-name="Path 7299" d="M-14415.22,9284.373a1,1,0,0,1-.846-.464,1,1,0,0,1,.309-1.381l43.3-27.479-23.068-14.7a1,1,0,0,1-.462-.889,1,1,0,0,1,.54-.844l22.818-11.8-13.548-7.055a1,1,0,0,1-.523-.717,1,1,0,0,1,.253-.851l14.679-15.8-14.679-15.8a1,1,0,0,1-.263-.774,1,1,0,0,1,.4-.712l14.217-10.457-14.217-10.457a1,1,0,0,1-.406-.755,1,1,0,0,1,.327-.792l14.494-13.13-14.494-13.13a1,1,0,0,1-.326-.806,1,1,0,0,1,.429-.758l15.732-10.908a1,1,0,0,1,1.16.016l14.891,10.908a1,1,0,0,1,.408.755,1,1,0,0,1-.327.793l-14.494,13.13,14.494,13.13a1,1,0,0,1,.327.792,1,1,0,0,1-.406.755l-14.217,10.457,14.217,10.457a1,1,0,0,1,.4.712,1,1,0,0,1-.263.774l-14.679,15.8,14.679,15.8a1,1,0,0,1,.253.853,1,1,0,0,1-.526.717l-13.653,7.06,22.648,11.794a1,1,0,0,1,.537.844,1,1,0,0,1-.463.888l-23.167,14.7,43.117,27.476a1,1,0,0,1,.307,1.381,1,1,0,0,1-1.381.307l-43.907-27.979-44.088,27.98A.994.994,0,0,1-14415.22,9284.373Zm22.232-44.776,22.393,14.271,22.492-14.274-22.358-11.644Zm8.9-21,13.633,7.1,13.735-7.1-13.683-14.728Zm-.13-32.537,13.815,14.87,13.815-14.87-13.815-10.162Zm.082-22.746,13.733,10.1,13.733-10.1-13.733-12.441Zm.026-27.558,13.707,12.417,13.731-12.439-13.326-9.763Z" transform="translate(14576.618 -5937)"/>
    <path id="Path_7300" data-name="Path 7300" d="M-14324.321,9208.759h-95.277a1,1,0,0,1-.954-.7,1,1,0,0,1,.38-1.12l32.348-22.665a1,1,0,0,1,1.394.245,1,1,0,0,1-.245,1.394l-29.752,20.846h88.917l-29.982-20.844a1,1,0,0,1-.25-1.393,1,1,0,0,1,1.393-.25l32.6,22.665a1,1,0,0,1,.383,1.12A1,1,0,0,1-14324.321,9208.759Z" transform="translate(14578.189 -5958.667)"/>
    <path id="Path_7301" data-name="Path 7301" d="M-14330.016,9156.73h-72.072a1,1,0,0,1-.957-.709,1,1,0,0,1,.4-1.122l20.324-13.6a1,1,0,0,1,1.387.275,1,1,0,0,1-.275,1.387l-17.587,11.765h65.662l-17.387-12.434a1,1,0,0,1-.231-1.4,1,1,0,0,1,1.4-.231l19.922,14.247a1,1,0,0,1,.37,1.119A1,1,0,0,1-14330.016,9156.73Z" transform="translate(14571.903 -5943.01)"/>
    <path id="Path_7302" data-name="Path 7302" d="M-14402.087,9159.753a1,1,0,0,1-1-1V9149.9a1,1,0,0,1,1-1,1,1,0,0,1,1,1v8.851A1,1,0,0,1-14402.087,9159.753Z" transform="translate(14571.902 -5946.033)"/>
    <path id="Path_7304" data-name="Path 7304" d="M-14402.087,9159.753a1,1,0,0,1-1-1V9149.9a1,1,0,0,1,1-1,1,1,0,0,1,1,1v8.851A1,1,0,0,1-14402.087,9159.753Z" transform="translate(14560.678 -5909.662)"/>
    <path id="Path_7305" data-name="Path 7305" d="M-14402.087,9159.753a1,1,0,0,1-1-1V9149.9a1,1,0,0,1,1-1,1,1,0,0,1,1,1v8.851A1,1,0,0,1-14402.087,9159.753Z" transform="translate(14655.954 -5909.662)"/>
    <path id="Path_7303" data-name="Path 7303" d="M-14402.087,9159.753a1,1,0,0,1-1-1V9149.9a1,1,0,0,1,1-1,1,1,0,0,1,1,1v8.851A1,1,0,0,1-14402.087,9159.753Z" transform="translate(14643.975 -5946.033)"/>
  </g>
</svg>
