<svg xmlns="http://www.w3.org/2000/svg" width="80.534" height="81.659" viewBox="0 0 80.534 81.659">
  <path id="Path_7201" data-name="Path 7201" d="M307.536,417.346a15.664,15.664,0,1,0,0,22.152,15.664,15.664,0,0,0,0-22.152Zm-11.076-6.761a17.837,17.837,0,1,1-17.837,17.837,17.837,17.837,0,0,1,17.837-17.837Zm-18.682-6.948c-2.062,5.276-4.072,10.414-15.707,11.783A36.767,36.767,0,0,0,292.824,465a1.083,1.083,0,0,1-.212,2.156A38.946,38.946,0,0,1,260,414.759c-3.723-3.222-4.5-7.562-3.264-11.854,1.386-4.8,5.165-9.088,9.5-11.8,6.474-4.049,15.135-5.289,23.03.031h0a1.085,1.085,0,0,1-.33,1.947c-7.844,2.071-9.521,6.361-11.159,10.553ZM263.041,413.1a36.816,36.816,0,0,1,6.41-9.608,1.084,1.084,0,1,0-1.6-1.469,38.971,38.971,0,0,0-6.973,10.587,8.87,8.87,0,0,1-2.063-9.1c1.234-4.276,4.691-8.136,8.566-10.56,5.27-3.3,12.136-4.533,18.627-1.218-6.9,2.532-8.593,6.87-10.254,11.118-1.746,4.468-3.449,8.823-12.717,10.254Zm52.1,40.106c2.062-5.276,4.071-10.413,15.7-11.783a36.765,36.765,0,0,0-30.708-49.576,1.083,1.083,0,1,1,.212-2.156,38.951,38.951,0,0,1,32.567,52.395c3.721,3.222,4.5,7.561,3.263,11.853-1.386,4.8-5.165,9.088-9.5,11.8-6.474,4.049-15.135,5.289-23.029-.031h0a1.085,1.085,0,0,1,.33-1.947c7.844-2.071,9.521-6.361,11.159-10.553Zm14.735-9.464a36.8,36.8,0,0,1-6.591,9.8,1.084,1.084,0,0,0,1.579,1.486,39,39,0,0,0,7.175-10.8,8.87,8.87,0,0,1,2.062,9.1c-1.235,4.276-4.691,8.136-8.566,10.56-5.27,3.3-12.136,4.533-18.627,1.218,6.9-2.532,8.593-6.87,10.254-11.118,1.746-4.468,3.449-8.822,12.715-10.253Zm-17.537-31.2a22.458,22.458,0,1,1-31.76,0,22.458,22.458,0,0,1,31.76,0Zm-15.88-8.751a24.631,24.631,0,1,1-24.631,24.631,24.632,24.632,0,0,1,24.631-24.631ZM290.6,432.545a1.087,1.087,0,0,1,2.173,0c0,2.724,3.963,4.076,6.21,2.1a2.8,2.8,0,0,0,1-2.1c0-5.1-9.227-.885-9.227-8.245a5.4,5.4,0,0,1,4.692-5.117v-1.524a1.087,1.087,0,1,1,2.173,0v1.524a5.4,5.4,0,0,1,4.692,5.117,1.087,1.087,0,1,1-2.173,0c0-2.724-3.963-4.076-6.21-2.1a2.8,2.8,0,0,0-1,2.1c0,5.026,9.227.831,9.227,8.245a5.376,5.376,0,0,1-4.535,5.088v1.554a1.087,1.087,0,1,1-2.173,0v-1.5A5.416,5.416,0,0,1,290.6,432.545Z" transform="translate(-256.192 -387.593)" fill-rule="evenodd"/>
</svg>
