<svg xmlns="http://www.w3.org/2000/svg" width="84.659" height="84.809" viewBox="0 0 84.659 84.809">
  <g id="green_city" data-name="green city" transform="translate(-107.439 -107)">
    <g id="Group_3350" data-name="Group 3350" transform="translate(131.144 120.02)">
      <path id="Path_6926" data-name="Path 6926" d="M260.466,218.4a1,1,0,0,1-1-1V187.345l-15.412-6.421a1,1,0,1,1,.769-1.846l16.027,6.678a1,1,0,0,1,.615.923V217.4A1,1,0,0,1,260.466,218.4Z" transform="translate(-244.439 -180)"/>
    </g>
    <path id="Path_6927" data-name="Path 6927" d="M316.452,453.027a9.013,9.013,0,1,1,9.013-9.012A9.023,9.023,0,0,1,316.452,453.027Zm0-16.027a7.013,7.013,0,1,0,7.013,7.015A7.022,7.022,0,0,0,316.452,437Z" transform="translate(-166.611 -273.241)"/>
    <path id="Path_6928" data-name="Path 6928" d="M356.439,509.46a1,1,0,0,1-1-1V491.987a1,1,0,0,1,.293-.707l2.671-2.674a1,1,0,1,1,1.415,1.414l-2.379,2.381V508.46A1,1,0,0,1,356.439,509.46Z" transform="translate(-206.597 -317.654)"/>
    <path id="Path_6929" data-name="Path 6929" d="M188.452,405.027a9.013,9.013,0,1,1,9.013-9.012A9.023,9.023,0,0,1,188.452,405.027Zm0-16.027a7.013,7.013,0,1,0,7.013,7.015A7.022,7.022,0,0,0,188.452,389Z" transform="translate(-59.98 -233.255)"/>
    <path id="Path_6930" data-name="Path 6930" d="M228.439,462.8a1,1,0,0,1-1-1V443.987a1,1,0,0,1,.293-.707l2.671-2.674a1,1,0,0,1,1.415,1.414l-2.379,2.381V461.8A1,1,0,0,1,228.439,462.8Z" transform="translate(-99.966 -277.667)"/>
    <g id="Group_3352" data-name="Group 3352" transform="translate(108.439 113.342)">
      <g id="Group_3351" data-name="Group 3351" transform="translate(58.765 50.746)">
        <path id="Path_6931" data-name="Path 6931" d="M468.946,471.686a13.378,13.378,0,0,1-2.916-.314,14.435,14.435,0,0,1-5.682-2.584,1,1,0,1,1,1.259-1.554,12.541,12.541,0,0,0,4.859,2.186,14.522,14.522,0,0,0,13.314-4.625c3.547-4.084,3.811-9.14,3.409-12.662a25.262,25.262,0,0,0-1.436-5.958,7.351,7.351,0,0,1-2.7,2.27,19.668,19.668,0,0,1-5.007,1.473c-2.92.593-5.939,1.207-8.515,3.644a12.686,12.686,0,0,0-4.1,8.825,1,1,0,0,1-2,0,13.231,13.231,0,0,1,.952-4.728,15.253,15.253,0,0,1,3.768-5.55c2.991-2.83,6.444-3.532,9.491-4.151,3.358-.683,6.011-1.222,7.225-4.349a1.007,1.007,0,0,1,.9-.643c.713-.027,1.007.582,1.265,1.119a26.465,26.465,0,0,1,2.235,8.92,20.326,20.326,0,0,1-.557,6.565,16.1,16.1,0,0,1-3.43,6.535,16.654,16.654,0,0,1-6.9,4.6A16.21,16.21,0,0,1,468.946,471.686Z" transform="translate(-460.439 -443.966)"/>
      </g>
      <path id="Path_6932" data-name="Path 6932" d="M149.842,218.464a42.368,42.368,0,0,1-42.4-42.4V154.691a1,1,0,0,1,.457-.84l22.7-14.691a1,1,0,0,1,1.543.84v36.061a1,1,0,0,1-2,0V141.838l-20.7,13.4v20.825a40.449,40.449,0,0,0,40.4,40.4c14.608,0,26.762-4.892,32.514-13.086a1,1,0,0,1,1.637,1.149,26.547,26.547,0,0,1-6.37,6.33,36.141,36.141,0,0,1-8.261,4.324A56.116,56.116,0,0,1,149.842,218.464Z" transform="translate(-108.439 -140)"/>
    </g>
    <g id="Group_3353" data-name="Group 3353" transform="translate(161.862 129.369)">
      <path id="Line_827" data-name="Line 827" d="M0,17.027a1,1,0,0,1-1-1V0A1,1,0,0,1,0-1,1,1,0,0,1,1,0V16.027A1,1,0,0,1,0,17.027Z" transform="translate(12.02 18.698)"/>
      <path id="Line_828" data-name="Line 828" d="M0,14.356a1,1,0,0,1-1-1V0A1,1,0,0,1,0-1,1,1,0,0,1,1,0V13.356A1,1,0,0,1,0,14.356Z" transform="translate(12.02 0)"/>
      <path id="Line_829" data-name="Line 829" d="M0,7.678a1,1,0,0,1-.875-.515A1,1,0,0,1-.486,5.8L11.535-.874a1,1,0,0,1,1.36.389,1,1,0,0,1-.389,1.36L.486,7.552A1,1,0,0,1,0,7.678Z" transform="translate(0 13.356)"/>
      <path id="Line_830" data-name="Line 830" d="M12.019,7.678a1,1,0,0,1-.485-.126L-.486.874A1,1,0,0,1-.874-.486,1,1,0,0,1,.486-.874L12.506,5.8a1,1,0,0,1-.487,1.874Z" transform="translate(12.02 13.356)"/>
    </g>
    <path id="Path_6933" data-name="Path 6933" d="M369.822,411.678h-5.342c-4.266,0-7.436-1.761-10.5-3.465C351,406.561,348.193,405,344.446,405h-4.007a1,1,0,0,1,0-2h4.007c4.266,0,7.436,1.761,10.5,3.465,2.974,1.652,5.784,3.213,9.531,3.213h5.342a1,1,0,0,1,0,2Z" transform="translate(-193.268 -246.584)"/>
    <path id="Path_6934" data-name="Path 6934" d="M308.479,143.725a1,1,0,0,1-1-1V109h-22.04v13.691a1,1,0,1,1-2,0V108a1,1,0,0,1,1-1h24.04a1,1,0,0,1,1,1v34.725A1,1,0,0,1,308.479,143.725Z" transform="translate(-146.617)"/>
  </g>
</svg>
