<svg xmlns="http://www.w3.org/2000/svg" width="102.199" height="102.199" viewBox="0 0 102.199 102.199">
  <g id="Group_3434" data-name="Group 3434" transform="translate(-1234.801 -883.5)">
    <path id="Path_7284" data-name="Path 7284" d="M158.1,1633.2a51.127,51.127,0,1,1,51.1-51.1c0,.017,0,.033,0,.05a51.134,51.134,0,0,1-2.16,14.694,1,1,0,1,1-1.915-.576A49.14,49.14,0,0,0,207.2,1582.1c0-.016,0-.033,0-.049a49.1,49.1,0,1,0-14.782,35.163c.179-.177.664-.716.953-1.038.232-.258.29-.323.331-.364a1,1,0,0,1,1.423,1.405c-.031.033-.156.172-.267.3-.429.478-.832.923-1.036,1.124a49.883,49.883,0,0,1-7.416,6.04A50.929,50.929,0,0,1,158.1,1633.2Z" transform="translate(1127.801 -647.5)"/>
    <g id="Group_3431" data-name="Group 3431" transform="translate(169.641 0.505)">
      <path id="Path_7286" data-name="Path 7286" d="M-17188.527,6899.067a1.016,1.016,0,0,1-.158-.012,1,1,0,0,1-.832-1.143,51.036,51.036,0,0,1,2.2-8.205,48.74,48.74,0,0,1,3.332-7.463,33.288,33.288,0,0,1,5.393-7.3,35.2,35.2,0,0,1,7.393-5.543,55.273,55.273,0,0,1,7.7-3.633,60.273,60.273,0,0,1,8.566-2.629,1.008,1.008,0,0,1,.205-.021,1,1,0,0,1,.977.8,1,1,0,0,1-.775,1.182,59.481,59.481,0,0,0-8.287,2.55c-4.217,1.626-10.131,4.457-14.363,8.708s-6.826,9.972-8.256,14.021a49.591,49.591,0,0,0-2.107,7.85A1,1,0,0,1-17188.527,6899.067Z" transform="translate(18278 -5942)"/>
      <path id="Path_7287" data-name="Path 7287" d="M-17167.92,6892.878a28.779,28.779,0,0,1-15.105-4.821,8.15,8.15,0,0,1-2.83-3.411,1.221,1.221,0,0,1-.045-.142,23.658,23.658,0,0,1-.437-5.967,25.7,25.7,0,0,1,.932-5.9,23.037,23.037,0,0,1,3.012-6.568,24.906,24.906,0,0,1,8.248-7.611,42.5,42.5,0,0,1,14.811-4.944l.035,0a50.936,50.936,0,0,1,6.242-.383,54.5,54.5,0,0,1,16.246,2.534,39.968,39.968,0,0,1,6.393,2.561,1,1,0,0,1,.516,1.048.991.991,0,0,1-.82.817,13.315,13.315,0,0,0-4.672,2.4c-2.6,1.9-6.574,5.664-10.7,12.851-.279.488-.787,1.436-1.377,2.534a69.791,69.791,0,0,1-3.482,6.138,23.506,23.506,0,0,1-8.281,6.926A19.852,19.852,0,0,1-17167.92,6892.878Zm-16.053-8.918a6.184,6.184,0,0,0,2.049,2.428,26.73,26.73,0,0,0,14,4.491c6.033,0,11.211-2.726,15.389-8.1.521-.67,2.193-3.79,3.3-5.854.6-1.112,1.109-2.072,1.4-2.584,5.719-9.97,11.262-13.859,14.326-15.345-1.01-.423-2.352-.937-3.971-1.449a52.5,52.5,0,0,0-15.586-2.422,48.959,48.959,0,0,0-5.979.365c-10.318,1.652-17.617,5.585-21.7,11.689a22.375,22.375,0,0,0-3.607,11.446A22.5,22.5,0,0,0-17183.973,6883.959Z" transform="translate(18278 -5942)"/>
      <path id="Path_7288" data-name="Path 7288" d="M-17172.9,6872.508a.957.957,0,0,1-.15-.011,1,1,0,0,1-.84-1.138l1.227-8.124a1,1,0,0,1,.986-.851.957.957,0,0,1,.15.011,1,1,0,0,1,.84,1.138l-1.227,8.124A1,1,0,0,1-17172.9,6872.508Z" transform="translate(18278 -5942)"/>
      <path id="Path_7289" data-name="Path 7289" d="M-17158.191,6872.892a1,1,0,0,1-.408-.088l-8.047-3.6a1,1,0,0,1-.5-1.321,1,1,0,0,1,1.32-.5l8.047,3.6a1,1,0,0,1,.5,1.321A1,1,0,0,1-17158.191,6872.892Z" transform="translate(18278 -5942)"/>
      <path id="Path_7290" data-name="Path 7290" d="M-17168.768,6881.781a1,1,0,0,1-.4-.085l-9.58-4.215a1,1,0,0,1-.514-1.318,1,1,0,0,1,1.318-.513l9.58,4.215a1,1,0,0,1,.514,1.318A1,1,0,0,1-17168.768,6881.781Z" transform="translate(18278 -5942)"/>
    </g>
    <path id="Path_7285" data-name="Path 7285" d="M-16964.668,6916.268a1,1,0,0,1-1-1v-9.211l-10.133.46h-.045a1,1,0,0,1-1-.955,1,1,0,0,1,.953-1.044l12.223-.555v11.3A1,1,0,0,1-16964.668,6916.268Z" transform="translate(18288 -5937)"/>
  </g>
</svg>
