<svg xmlns="http://www.w3.org/2000/svg" width="128.576" height="92.471" viewBox="0 0 128.576 92.471">
  <g id="Group_3333" data-name="Group 3333" transform="translate(-230.469 -3553.024)">
    <path id="Path_6910" data-name="Path 6910" d="M-18030.5,9582.5h0c-7.42,0-13.77-1.725-18.363-4.986a19.5,19.5,0,0,1-6.184-7.146,24.881,24.881,0,0,1-2.475-10.832,30.26,30.26,0,0,1,1.6-10.791,21.654,21.654,0,0,1,3.9-6.824,17.906,17.906,0,0,1,5.188-4.238,23.12,23.12,0,0,1,.131-5.357,22.146,22.146,0,0,1,1.609-5.8,20.037,20.037,0,0,1,4.072-6.053c4.377-4.46,10.23-5.4,14.371-5.4a27.411,27.411,0,0,1,4.215.322,30.6,30.6,0,0,1,1-3.178,35.777,35.777,0,0,1,4.934-9.031,31.745,31.745,0,0,1,10.676-9.059,39.111,39.111,0,0,1,18.271-4.1c.447,0,.9.006,1.355.017,7.2.182,13.395,1.89,18.4,5.075a28.536,28.536,0,0,1,9.7,10.424,36.231,36.231,0,0,1,3.7,10.206,33.4,33.4,0,0,1,.549,3.793,30.951,30.951,0,0,1,11.9,4.642,27.19,27.19,0,0,1,8.848,9.467,35.527,35.527,0,0,1,4.152,17.158c.092,8.022-1.816,14.793-5.67,20.125a27.127,27.127,0,0,1-11.086,8.9c-5.193,2.284-15.752,2.645-16.2,2.658h-67.717C-18029.922,9582.494-18030.213,9582.5-18030.5,9582.5Zm3.844-65.423c-3.758,0-9.053.832-12.943,4.8a18.792,18.792,0,0,0-5.129,10.725,19.835,19.835,0,0,0-.045,5.5l.141.8-.758.3a15.014,15.014,0,0,0-5.187,4.1c-3.367,3.993-5.076,9.593-4.945,16.191.371,18.956,17.621,21,25.021,21h0c.275,0,.559,0,.84-.008h67.7c.453-.016,10.688-.4,15.443-2.49,5.9-2.587,15.762-9.555,15.561-27.168-.135-11.341-4.182-19.729-12.029-24.932a29.411,29.411,0,0,0-8.174-3.715,23.029,23.029,0,0,0-3.732-.761l-.893-.079-.021-.895a28,28,0,0,0-.578-4.382,34.106,34.106,0,0,0-3.506-9.624c-5.145-9.245-14.014-14.09-26.365-14.4-.436-.012-.875-.017-1.3-.017-11.936,0-21.139,4.161-27.352,12.368a32.3,32.3,0,0,0-5.779,12.336l-.184,1.039-1.027-.24A23.535,23.535,0,0,0-18026.656,9517.074Z" transform="translate(18288 -5937.002)"/>
    <path id="Ellipse_458" data-name="Ellipse 458" d="M10.79,2C5.943,2,2,6.427,2,11.869s3.943,9.869,8.79,9.869,8.79-4.427,8.79-9.869S15.637,2,10.79,2m0-2C16.75,0,21.58,5.314,21.58,11.869S16.75,23.739,10.79,23.739,0,18.424,0,11.869,4.831,0,10.79,0Z" transform="translate(292.592 3593.205)"/>
    <path id="Path_6913" data-name="Path 6913" d="M-18022.072,9535.6c-.33,0-.658-.015-.98-.044a9.079,9.079,0,0,1-6.062-2.921c-1.791-1.989-2.686-4.79-2.662-8.323a15.4,15.4,0,0,1,.824-5.079,10.248,10.248,0,0,1,2.148-3.591,9.521,9.521,0,0,1,6.4-2.944c.223-.014.445-.021.666-.021a9.773,9.773,0,0,1,4.811,1.219,5.577,5.577,0,0,1,2.994,4.028,1,1,0,0,1-.857,1.124,1.041,1.041,0,0,1-.135.009,1,1,0,0,1-.988-.867c-.266-1.976-2.875-3.512-5.83-3.512-.178,0-.355,0-.535.017-1.742.109-7.437,1.127-7.5,9.633-.053,7.766,4.811,9.047,6.9,9.237a9.158,9.158,0,0,0,4.748-.845,3.738,3.738,0,0,0,2.221-2.31,1,1,0,0,1,.982-.826.972.972,0,0,1,.176.016,1,1,0,0,1,.811,1.158,5.513,5.513,0,0,1-3.3,3.756A11.141,11.141,0,0,1-18022.072,9535.6Z" transform="translate(18304.432 -5919.015)"/>
    <path id="Path_6914" data-name="Path 6914" d="M-18004.469,9532.583h-8.152l.3-1.237a5.128,5.128,0,0,1,.932-2.048,14.942,14.942,0,0,1,2.664-2.506c1.6-1.291,3.408-2.755,3.26-4.075l0-.044a1.729,1.729,0,0,0-.682-1.381,2.8,2.8,0,0,0-2.334-.209,2.108,2.108,0,0,0-1.365,1.849,1,1,0,0,1-1,.947h-.053a1,1,0,0,1-.945-1.052,4.606,4.606,0,0,1,.389-1.52,3.725,3.725,0,0,1,2.42-2.146,4.723,4.723,0,0,1,4.035.494,3.647,3.647,0,0,1,1.527,2.861c.254,2.4-2,4.222-3.992,5.831a13.257,13.257,0,0,0-2.336,2.172l-.045.063h5.377a1,1,0,0,1,1,1A1,1,0,0,1-18004.469,9532.583Z" transform="translate(18326.926 -5911.766)"/>
  </g>
</svg>
