<svg xmlns="http://www.w3.org/2000/svg" width="75.27" height="89.765" viewBox="0 0 75.27 89.765">
  <g id="Group_3462" data-name="Group 3462" transform="translate(-914.236 -880.745)">
    <path id="Union_5" data-name="Union 5" d="M18999.3-8713.228c-8.279-4.377-13.979-7.492-18.576-10.469-5.164-3.344-8.619-6.3-11.189-9.6a29.961,29.961,0,0,1-5.531-12.265c-1-4.448-1.539-10.015-1.764-18.046v-.033c0-.225.057-22.3.436-26.226a1.085,1.085,0,0,1,.439-.77,1.091,1.091,0,0,1,.625-.2,1.091,1.091,0,0,1,.248.028,37.238,37.238,0,0,0,8.414.994,34.288,34.288,0,0,0,19.67-6.331,33.494,33.494,0,0,0,6.875-6.292,1.086,1.086,0,0,1,.861-.435,1.115,1.115,0,0,1,.859.43,33.407,33.407,0,0,0,6.928,6.335,34.255,34.255,0,0,0,19.607,6.293,37.321,37.321,0,0,0,8.424-.994,1.02,1.02,0,0,1,.238-.028,1.088,1.088,0,0,1,.627.2,1.029,1.029,0,0,1,.439.77c.387,3.928.578,7.96.578,11.982,0,11.357-.139,19.174-.818,25.494-.74,6.924-2.139,11.858-4.529,15.991s-5.867,7.64-11.27,11.367c-5.328,3.674-12.475,7.52-20.588,11.806a1.124,1.124,0,0,1-.5.119A1.163,1.163,0,0,1,18999.3-8713.228Zm-34.906-50.425c.369,13.6,1.568,22.26,6.842,29.034,4.912,6.3,12.857,10.913,28.572,19.217,16.3-8.614,25.766-13.9,30.5-22.068,4.553-7.889,5.051-18.892,5.051-40.416,0-3.535-.148-7.09-.449-10.568a38.887,38.887,0,0,1-7.7.793,35.433,35.433,0,0,1-12.049-2.106,37.876,37.876,0,0,1-8.85-4.615,37.706,37.706,0,0,1-6.5-5.738,38.139,38.139,0,0,1-6.508,5.738,37.723,37.723,0,0,1-8.844,4.615,35.425,35.425,0,0,1-12.055,2.106,38.531,38.531,0,0,1-7.668-.788C18964.439-8782.577,18964.391-8763.978,18964.391-8763.652Zm35.266,38.834a1,1,0,0,1-.436-.1,66.422,66.422,0,0,1-12.131-6.354c-3.182-2.26-6.766-4.605-8.672-6.966-2.531-3.135-4.5-6.207-4.562-8.959,0,0-.143-1.48-.225-2.766s-.109-2.862-.109-2.862a1.063,1.063,0,0,1,.32-.76,1.065,1.065,0,0,1,.764-.315,1.082,1.082,0,0,1,1.07,1.075s.072,2.628.168,4.138a11.286,11.286,0,0,0,.205,1.906c.961,5.738,7.76,10.54,12.289,13.755,3.492,2.476,8.025,4.349,10.143,5.385v-6.761a52.178,52.178,0,0,0-.264-5.27c-.051-.521-.109-1.013-.172-1.409a35.483,35.483,0,0,0-.816-3.794c-.158-.583-.334-1.166-.516-1.739q-.486-1.49-1.09-2.909a12.645,12.645,0,0,1-6.205-1,13.155,13.155,0,0,1-5.238-4.237,18.256,18.256,0,0,1-3.424-9.7,24.219,24.219,0,0,1,2.188-11.691,1.073,1.073,0,0,1,.822-.621,1.082,1.082,0,0,1,.969.349,30.619,30.619,0,0,0,4.955,3.961,45.224,45.224,0,0,1,7.381,6.039,12.218,12.218,0,0,1,2.438,3.938,13.007,13.007,0,0,1,.875,4.84,1.081,1.081,0,0,1-1.09,1.07,1.082,1.082,0,0,1-1.066-1.09,10.694,10.694,0,0,0-2.742-7.3,43.5,43.5,0,0,0-7.037-5.738,48.379,48.379,0,0,1-4.137-3.119c-2.395,6.378-1.816,13.21,1.6,17.764a10.461,10.461,0,0,0,8.738,4.419,35.49,35.49,0,0,0-5.375-7.816,1.1,1.1,0,0,1,.033-1.52,1.077,1.077,0,0,1,1.547.053,37.526,37.526,0,0,1,4.625,6.307,37.943,37.943,0,0,1,3.287,7.329c.2.607.383,1.224.551,1.84.229.846.43,1.7.6,2.556a22.178,22.178,0,0,1,2.016-4.094c.092-.134.178-.272.268-.406-1.1-4.511-.02-8.485,3.086-11.224a12.78,12.78,0,0,1,3.809-2.283,16.857,16.857,0,0,1,4.629-1.061,22.21,22.21,0,0,1,10.383,1.672,1.073,1.073,0,0,1,.65.8,1.076,1.076,0,0,1-.32.979,26.354,26.354,0,0,0-3.2,4.3,38.575,38.575,0,0,1-4.943,6.493,10.814,10.814,0,0,1-3.33,2.227,11.671,11.671,0,0,1-1.463.506,11.522,11.522,0,0,1-2.7.393,1.083,1.083,0,0,1-1.1-1.052,1.081,1.081,0,0,1,1.051-1.108,8.911,8.911,0,0,0,6.021-2.5,37.134,37.134,0,0,0,4.658-6.134c.813-1.252,1.6-2.451,2.4-3.45-5.729-1.9-11.658-1.218-15.117,1.835a8.209,8.209,0,0,0-2.732,7.3c.271-.3.549-.588.836-.865a18.2,18.2,0,0,1,4.289-3.072,1.086,1.086,0,0,1,1.459.464,1.079,1.079,0,0,1-.465,1.452,15.967,15.967,0,0,0-6.344,5.892,21.2,21.2,0,0,0-2.666,6.54l-.029.129a18.487,18.487,0,0,0-.42,3.976v7.635a68.413,68.413,0,0,0,10.242-5.48c4.119-2.924,9.566-7.577,10.727-12.728a1.071,1.071,0,0,1,1.137-.836,1.1,1.1,0,0,1,.779.435,1.093,1.093,0,0,1,.178.874,17.338,17.338,0,0,1-3.6,6.947,41.085,41.085,0,0,1-7.975,7.062,66.741,66.741,0,0,1-12.035,6.354,1,1,0,0,1-.426.1Zm25.168-48.041v-3.487a12.031,12.031,0,0,0-.08-1.443,52.122,52.122,0,0,1-11.635-2.217,38.647,38.647,0,0,1-12.078-6.827,1,1,0,0,1-.1-1.41,1,1,0,0,1,1.41-.1,37.261,37.261,0,0,0,11.375,6.436,49.3,49.3,0,0,0,11.906,2.164,1,1,0,0,1,.932.731,10.805,10.805,0,0,1,.268,2.671v3.487a1,1,0,0,1-1,1A1,1,0,0,1,19024.824-8772.859Z" transform="translate(-18048 9683.618)"/>
  </g>
</svg>
