<svg xmlns="http://www.w3.org/2000/svg" width="136.033" height="135.999" viewBox="0 0 136.033 135.999">
  <g id="public_transport_urban_mobility_plan" data-name="public transport urban mobility plan" transform="translate(-2242.939 -1531.002)">
    <path id="Path_7085" data-name="Path 7085" d="M2617.375,1581.527a14.776,14.776,0,0,1-3.32-.414,15.991,15.991,0,0,1-7.361-3.986c-3.482-3.328-4.329-8.432-5.148-13.367-.9-5.405-1.744-10.51-5.931-12.6a1,1,0,0,1,.021-1.8,26.135,26.135,0,0,1,10.508-2.208q.459-.011.922-.011a41.908,41.908,0,0,1,9.676,1.155,20.809,20.809,0,0,1,9.047,4.646,16.879,16.879,0,0,1,5.2,8.617,22.452,22.452,0,0,1,.3,8.758,15.673,15.673,0,0,1-3.49,7.87,1,1,0,1,1-1.5-1.327c3.413-3.848,3.814-10.386,2.744-14.833-1.4-5.794-6.167-10.2-12.765-11.786-5.16-1.24-12.36-1.748-18.05.224,3.624,2.9,4.472,8.011,5.3,12.97.765,4.612,1.557,9.382,4.557,12.249a13.8,13.8,0,0,0,9.535,3.84l.065,0a1,1,0,0,1,.063,2C2617.721,1581.519,2617.594,1581.527,2617.375,1581.527Z" transform="translate(-256.993 -11.777)"/>
    <path id="Path_7086" data-name="Path 7086" d="M2310.972,1667a67.741,67.741,0,0,1-38.039-11.614,68.2,68.2,0,0,1-24.648-29.917,67.544,67.544,0,0,1-5.347-26.469,1,1,0,0,1,.034-.258,67.682,67.682,0,0,1,11.614-37.761,68.194,68.194,0,0,1,29.917-24.635,68.3,68.3,0,0,1,46.09-2.47,1,1,0,0,1-.576,1.915,66.053,66.053,0,0,0-85.044,63.21,1.006,1.006,0,0,1-.033.255A66.09,66.09,0,0,0,2310.931,1665h.041a66,66,0,0,0,46.595-112.742,1,1,0,0,1,1.412-1.417,68.1,68.1,0,0,1,14.627,21.64,67.912,67.912,0,0,1-6.248,64.539,68.195,68.195,0,0,1-29.917,24.635,67.573,67.573,0,0,1-26.427,5.344Z"/>
    <g id="bus" transform="translate(2269.891 1566.582)">
      <path id="Path_7087" data-name="Path 7087" d="M2398.806,1941.645h-8.645a3.165,3.165,0,0,1-3.161-3.161V1932a1,1,0,0,1,2,0v6.484a1.163,1.163,0,0,0,1.161,1.161h8.645a1.163,1.163,0,0,0,1.161-1.161V1932a1,1,0,0,1,2,0v6.484A3.165,3.165,0,0,1,2398.806,1941.645Z" transform="translate(-2375.032 -1858.516)"/>
      <path id="Line_949" data-name="Line 949" d="M8,1H0A1,1,0,0,1-1,0,1,1,0,0,1,0-1H8A1,1,0,0,1,9,0,1,1,0,0,1,8,1Z" transform="translate(9.064 56.419)"/>
      <path id="Ellipse_486" data-name="Ellipse 486" d="M2.5-1A3.5,3.5,0,1,1-1,2.5,3.5,3.5,0,0,1,2.5-1Zm0,5A1.5,1.5,0,1,0,1,2.5,1.5,1.5,0,0,0,2.5,4Z" transform="translate(19.064 62.419)"/>
      <path id="Line_950" data-name="Line 950" d="M22,1H0A1,1,0,0,1-1,0,1,1,0,0,1,0-1H22a1,1,0,0,1,1,1A1,1,0,0,1,22,1Z" transform="translate(30.064 64.419)"/>
      <path id="Path_7088" data-name="Path 7088" d="M2340,1753.968a1,1,0,0,1-1-1v-8.645a5.329,5.329,0,0,1,5.323-5.323h2.161a1,1,0,0,1,0,2h-2.161a3.326,3.326,0,0,0-3.323,3.323v8.645A1,1,0,0,1,2340,1753.968Z" transform="translate(-2340 -1718.387)"/>
      <path id="Path_7089" data-name="Path 7089" d="M2432.516,1781.193h-56.193a5.329,5.329,0,0,1-5.323-5.323V1724a1,1,0,0,1,2,0v51.871a3.326,3.326,0,0,0,3.323,3.323h56.193a3.326,3.326,0,0,0,3.323-3.323V1724a1,1,0,0,1,2,0v51.871A5.329,5.329,0,0,1,2432.516,1781.193Z" transform="translate(-2363.355 -1706.71)"/>
      <path id="Path_7090" data-name="Path 7090" d="M2558.806,1941.645h-8.645a3.165,3.165,0,0,1-3.161-3.161V1932a1,1,0,0,1,2,0v6.484a1.163,1.163,0,0,0,1.161,1.161h8.645a1.163,1.163,0,0,0,1.161-1.161V1932a1,1,0,0,1,2,0v6.484A3.165,3.165,0,0,1,2558.806,1941.645Z" transform="translate(-2491.807 -1858.516)"/>
      <path id="Path_7091" data-name="Path 7091" d="M2436.839,1678.29a1,1,0,0,1-1-1v-4.323A11.981,11.981,0,0,0,2423.871,1661h-38.9A11.981,11.981,0,0,0,2373,1672.968v4.323a1,1,0,0,1-2,0v-4.323A13.968,13.968,0,0,1,2384.968,1659h38.9a13.968,13.968,0,0,1,13.968,13.968v4.323A1,1,0,0,1,2436.839,1678.29Z" transform="translate(-2363.355 -1660)"/>
      <path id="Path_7092" data-name="Path 7092" d="M2436.839,1837H2372a1,1,0,0,1,0-2h64.839a1,1,0,0,1,0,2Z" transform="translate(-2363.355 -1788.452)"/>
      <path id="Path_7093" data-name="Path 7093" d="M2480.968,1693H2468a1,1,0,0,1,0-2h12.968a1,1,0,0,1,0,2Z" transform="translate(-2433.419 -1683.355)"/>
      <path id="Line_951" data-name="Line 951" d="M6,1H0A1,1,0,0,1-1,0,1,1,0,0,1,0-1H6A1,1,0,0,1,7,0,1,1,0,0,1,6,1Z" transform="translate(65.064 56.419)"/>
      <path id="Ellipse_487" data-name="Ellipse 487" d="M2.5-1A3.5,3.5,0,1,1-1,2.5,3.5,3.5,0,0,1,2.5-1Zm0,5A1.5,1.5,0,1,0,1,2.5,1.5,1.5,0,0,0,2.5,4Z" transform="translate(58.064 62.419)"/>
      <path id="Path_7094" data-name="Path 7094" d="M2626.484,1753.968a1,1,0,0,1-1-1v-8.645a3.326,3.326,0,0,0-3.323-3.323H2620a1,1,0,0,1,0-2h2.161a5.329,5.329,0,0,1,5.323,5.323v8.645A1,1,0,0,1,2626.484,1753.968Z" transform="translate(-2544.355 -1718.387)"/>
      <path id="Path_7095" data-name="Path 7095" d="M2436.839,1725H2372a1,1,0,0,1,0-2h64.839a1,1,0,0,1,0,2Z" transform="translate(-2363.355 -1706.71)"/>
    </g>
  </g>
</svg>
