<svg xmlns="http://www.w3.org/2000/svg" width="101.161" height="90.107" viewBox="0 0 101.161 90.107">
  <g id="QII_5_icon09" transform="translate(-2270.188 -1322.8)">
    <g id="Group_271196" data-name="Group 271196" transform="translate(2303.243 1348.033)">
      <path id="Path_217185" data-name="Path 217185" d="M2440.018,1433.48a1,1,0,0,1-1-1v-15.52a2.4,2.4,0,0,0-1.388-2.175,1,1,0,0,1,.842-1.814,4.412,4.412,0,0,1,2.546,3.989v15.52A1,1,0,0,1,2440.018,1433.48Z" transform="translate(-2404.967 -1402.831)"/>
      <path id="Path_217186" data-name="Path 217186" d="M2422.835,1420.454a1,1,0,0,1-1-1v-15.879a2.4,2.4,0,0,0-1.261-2.111,1,1,0,1,1,.95-1.76,4.4,4.4,0,0,1,2.312,3.871v15.879A1,1,0,0,1,2422.835,1420.454Z" transform="translate(-2394.576 -1394.706)"/>
      <path id="Path_217187" data-name="Path 217187" d="M2397.5,1413.518a1,1,0,0,1-1-1v-23.653a2.4,2.4,0,1,0-4.792,0V1409.4a1,1,0,0,1-2,0v-20.532a4.4,4.4,0,1,1,8.792,0v23.653A1,1,0,0,1,2397.5,1413.518Z" transform="translate(-2376.032 -1385.469)"/>
      <path id="Path_217188" data-name="Path 217188" d="M2373.237,1414a1,1,0,0,1-1-1v-21.24a4.4,4.4,0,0,1,4.4-4.4,1,1,0,0,1,0,2,2.4,2.4,0,0,0-2.4,2.4V1413A1,1,0,0,1,2373.237,1414Z" transform="translate(-2365.356 -1387.236)"/>
      <path id="Path_217189" data-name="Path 217189" d="M2427.633,1482.376l-.064,0a1,1,0,0,1-.935-1.061,13.008,13.008,0,0,1,3.248-7.79,10.937,10.937,0,0,0,2.769-7.277v-4.529a1,1,0,0,1,2,0v4.529a12.933,12.933,0,0,1-3.275,8.607,11,11,0,0,0-2.746,6.587A1,1,0,0,1,2427.633,1482.376Z" transform="translate(-2398.6 -1432.068)"/>
      <path id="Path_217190" data-name="Path 217190" d="M2358.464,1467.756a1,1,0,0,1-.992-.887,10.776,10.776,0,0,0-2.479-5.746,12.823,12.823,0,0,1-3.021-8.26v-8.743a8.869,8.869,0,0,1,3.58-7.125,1,1,0,0,1,1.195,1.6,6.827,6.827,0,0,0-2.774,5.522v8.743a10.82,10.82,0,0,0,2.549,6.97,12.77,12.77,0,0,1,2.938,6.809,1,1,0,0,1-.88,1.107A1.014,1.014,0,0,1,2358.464,1467.756Z" transform="translate(-2352.971 -1417.449)"/>
      <path id="Rectangle_1871" data-name="Rectangle 1871" d="M5.579-1H23.651a6.579,6.579,0,0,1,0,13.157H5.579A6.579,6.579,0,0,1,5.579-1ZM23.651,10.157a4.579,4.579,0,0,0,0-9.157H5.579a4.579,4.579,0,0,0,0,9.157Z" transform="translate(2.425 52.717)"/>
    </g>
    <g id="Group_271199" data-name="Group 271199" transform="translate(2271.602 1324.214)">
      <g id="Group_271197" data-name="Group 271197" transform="translate(0 0)">
        <path id="Line_4274" data-name="Line 4274" d="M6.2,7.2a1,1,0,0,1-.707-.293l-6.2-6.2a1,1,0,0,1,0-1.414,1,1,0,0,1,1.414,0l6.2,6.2A1,1,0,0,1,6.2,7.2Z" transform="translate(21.799 47.27)"/>
        <path id="Path_217191" data-name="Path 217191" d="M2312.5,1418.24a1,1,0,0,1-.707-.293l-3.2-3.2a12.938,12.938,0,0,1-3.771-8.4,11,11,0,0,0-2.715-6.6,1,1,0,1,1,1.5-1.322,13.007,13.007,0,0,1,3.211,7.805,10.94,10.94,0,0,0,3.188,7.1l3.2,3.2a1,1,0,0,1-.707,1.707Z" transform="translate(-2290.704 -1369.97)"/>
        <path id="Path_217192" data-name="Path 217192" d="M2361.37,1365.22a1,1,0,0,1-.707-.293l-2-2a10.819,10.819,0,0,0-6.731-3.126,12.763,12.763,0,0,1-6.892-2.737,1,1,0,1,1,1.245-1.565,10.768,10.768,0,0,0,5.816,2.309,12.82,12.82,0,0,1,7.977,3.705l2,2a1,1,0,0,1-.707,1.707Z" transform="translate(-2316.865 -1343.813)"/>
        <path id="Rectangle_1872" data-name="Rectangle 1872" d="M5.578-1H23.651a6.579,6.579,0,1,1,0,13.157H5.578A6.579,6.579,0,0,1,5.578-1ZM23.651,10.157a4.579,4.579,0,1,0,0-9.157H5.578a4.579,4.579,0,0,0,0,9.157Z" transform="translate(28.558 7.889) rotate(135)"/>
      </g>
      <g id="Group_271198" data-name="Group 271198" transform="translate(53.107 0)">
        <path id="Line_4275" data-name="Line 4275" d="M0,7.2a1,1,0,0,1-.707-.293,1,1,0,0,1,0-1.414l6.2-6.2a1,1,0,0,1,1.414,0,1,1,0,0,1,0,1.414l-6.2,6.2A1,1,0,0,1,0,7.2Z" transform="translate(17.228 47.27)"/>
        <path id="Path_217193" data-name="Path 217193" d="M2468.42,1418.24a1,1,0,0,1-.707-1.707l3.2-3.2a10.939,10.939,0,0,0,3.188-7.1,13.006,13.006,0,0,1,3.211-7.805,1,1,0,0,1,1.5,1.322,11,11,0,0,0-2.715,6.6,12.936,12.936,0,0,1-3.771,8.4l-3.2,3.2A1,1,0,0,1,2468.42,1418.24Z" transform="translate(-2444.993 -1369.97)"/>
        <path id="Path_217194" data-name="Path 217194" d="M2408.174,1365.94a1,1,0,0,1-.707-1.707l2.718-2.719a12.823,12.823,0,0,1,7.977-3.705,10.772,10.772,0,0,0,5.816-2.31,1,1,0,1,1,1.245,1.565,12.764,12.764,0,0,1-6.892,2.737,10.821,10.821,0,0,0-6.731,3.126l-2.718,2.718A1,1,0,0,1,2408.174,1365.94Z" transform="translate(-2408.174 -1343.813)"/>
        <path id="Rectangle_1873" data-name="Rectangle 1873" d="M5.579-1H23.651a6.579,6.579,0,1,1,0,13.157H5.578A6.579,6.579,0,0,1,5.579-1ZM23.651,10.157a4.579,4.579,0,1,0,0-9.157H5.579a4.579,4.579,0,0,0,0,9.157Z" transform="translate(24.557) rotate(45)"/>
      </g>
    </g>
  </g>
</svg>
