<svg xmlns="http://www.w3.org/2000/svg" width="152.716" height="117.643" viewBox="0 0 152.716 117.643">
  <g id="QII_5_icon05" transform="translate(-5610.063 -1208.721)">
    <path id="Path_217276" data-name="Path 217276" d="M5739.882,1231.615A75.627,75.627,0,0,0,5614.26,1307.7a2.065,2.065,0,1,0,3.94-1.234,71.478,71.478,0,1,1,136.441,0,2.065,2.065,0,1,0,3.941,1.234,75.7,75.7,0,0,0-18.7-76.083Z" fill="#212121"/>
    <path id="Path_217276_-_Outline" data-name="Path 217276 - Outline" d="M5686.419,1208.721a76.4,76.4,0,0,1,72.879,99.2,2.815,2.815,0,1,1-5.373-1.683,70.728,70.728,0,1,0-135.009,0,2.815,2.815,0,1,1-5.372,1.682,76.374,76.374,0,0,1,72.875-99.2Zm70.193,99.676a1.309,1.309,0,0,0,1.254-.923,74.858,74.858,0,1,0-142.891,0,1.314,1.314,0,1,0,2.509-.786,72.228,72.228,0,1,1,137.873,0,1.317,1.317,0,0,0,1.255,1.708Z" fill="#fff"/>
    <path id="Path_217277" data-name="Path 217277" d="M5743,1264.695a58.695,58.695,0,0,0-50.4,28.562,2.065,2.065,0,1,0,3.542,2.124A54.565,54.565,0,0,1,5743,1268.825a53.363,53.363,0,0,1,39.5,17.354,57.063,57.063,0,0,1,14.973,42.993,59.937,59.937,0,0,1-2.485,13.118,2.065,2.065,0,1,0,3.946,1.218,64.077,64.077,0,0,0,2.657-14.023,61.2,61.2,0,0,0-16.062-46.113A57.45,57.45,0,0,0,5743,1264.695Z" transform="translate(-56.576 -38.339)" fill="#212121"/>
    <path id="Path_217277_-_Outline" data-name="Path 217277 - Outline" d="M5743,1263.945a58.191,58.191,0,0,1,43.081,18.916,61.958,61.958,0,0,1,16.26,46.68,64.86,64.86,0,0,1-2.688,14.187,2.815,2.815,0,1,1-5.379-1.661,59.206,59.206,0,0,0,2.454-12.953,56.311,56.311,0,0,0-14.775-42.427A52.621,52.621,0,0,0,5743,1269.575a53.814,53.814,0,0,0-46.211,26.192,2.815,2.815,0,0,1-3.862.966,2.815,2.815,0,0,1-.966-3.862A59.444,59.444,0,0,1,5743,1263.945Zm53.963,80.269a1.308,1.308,0,0,0,1.256-.927,63.3,63.3,0,0,0,2.626-13.859,60.453,60.453,0,0,0-15.864-45.547A56.708,56.708,0,0,0,5743,1265.445a57.945,57.945,0,0,0-49.753,28.2A1.315,1.315,0,0,0,5695.5,1295a55.314,55.314,0,0,1,47.5-26.92,54.1,54.1,0,0,1,40.052,17.594,57.816,57.816,0,0,1,15.171,43.56,60.722,60.722,0,0,1-2.517,13.282,1.314,1.314,0,0,0,.868,1.644A1.32,1.32,0,0,0,5796.96,1344.214Z" transform="translate(-56.576 -38.339)" fill="#fff"/>
    <path id="Path_217278" data-name="Path 217278" d="M5669.851,1439.652a2.065,2.065,0,1,0-4.107-.424,51.405,51.405,0,0,0,3.15,24.9,2.065,2.065,0,1,0,3.825-1.557A47.342,47.342,0,0,1,5669.851,1439.652Z" transform="translate(-37.905 -158.219)" fill="#212121"/>
    <path id="Path_217278_-_Outline" data-name="Path 217278 - Outline" d="M5667.79,1436.624h0a2.84,2.84,0,0,1,.3.016,2.814,2.814,0,0,1,2.508,3.089,46.6,46.6,0,0,0,2.816,22.557,2.815,2.815,0,1,1-5.215,2.122,52.148,52.148,0,0,1-3.2-25.257A2.8,2.8,0,0,1,5667.79,1436.624Zm3.017,28.038a1.315,1.315,0,0,0,1.217-1.811,48.086,48.086,0,0,1-2.919-23.276,1.315,1.315,0,1,0-2.615-.27,50.661,50.661,0,0,0,3.1,24.538A1.311,1.311,0,0,0,5670.807,1464.662Z" transform="translate(-37.905 -158.219)" fill="#fff"/>
    <path id="Path_217279" data-name="Path 217279" d="M5730.222,1394.227a27.085,27.085,0,0,0-15.4,4.791l-42.4-10.421a2.065,2.065,0,0,0-1.948,3.47l32.338,32.135a27.508,27.508,0,1,0,27.412-29.974Zm-51.56.156,32.222,7.919a27.931,27.931,0,0,0-7.93,16.219Zm51.56,51.415a23.723,23.723,0,1,1,23.36-23.721A23.569,23.569,0,0,1,5730.222,1445.8Z" transform="translate(-40.994 -124.314)" fill="#212121"/>
    <path id="Path_217279_-_Outline" data-name="Path 217279 - Outline" d="M5671.926,1387.786a2.81,2.81,0,0,1,.674.082l42.078,10.341a27.806,27.806,0,0,1,15.544-4.733,28.6,28.6,0,0,1,0,57.2,27.941,27.941,0,0,1-19.238-7.68,28.645,28.645,0,0,1-8.9-18.461l-32.142-31.939a2.816,2.816,0,0,1,1.983-4.812Zm43.045,12.04-.327-.08-42.4-10.421a1.315,1.315,0,0,0-1.24,2.209l32.537,32.332.021.279a26.758,26.758,0,1,0,26.664-29.168,26.321,26.321,0,0,0-14.974,4.659Zm-38.755-6.817,36.137,8.881-.937.941a27.333,27.333,0,0,0-7.717,15.784l-.191,1.513Zm33.233,9.712-28.34-6.965,21.327,21.192a28.681,28.681,0,0,1,7.013-14.227Zm20.773-5.115a24.473,24.473,0,1,1-24.111,24.471A24.32,24.32,0,0,1,5730.222,1397.606Zm0,47.441a22.973,22.973,0,1,0-22.611-22.971A22.818,22.818,0,0,0,5730.222,1445.048Z" transform="translate(-40.994 -124.314)" fill="#fff"/>
    <path id="Path_217280" data-name="Path 217280" d="M5840.121,1445.627a9.3,9.3,0,0,1,2.114-.38,2.084,2.084,0,0,0,.22-.013c2.9-.131,5.871.962,6.969,2.783a2.065,2.065,0,0,0,3.536-2.135c-1.451-2.4-4.769-4.382-8.667-4.753v-2.821a2.065,2.065,0,0,0-4.13,0v3.05c-.418.087-.838.193-1.258.323a8.561,8.561,0,0,0-6.01,5.951,6.6,6.6,0,0,0,2.028,6.4c2.085,1.976,4.823,2.646,7.473,3.295a18.732,18.732,0,0,1,4.575,1.517,4.363,4.363,0,0,1,.844.6,2.615,2.615,0,0,1,.834,1.634,2.573,2.573,0,0,1-.762,2.18,8.205,8.205,0,0,1-5.638,1.914h-.042c-.289,0-.58,0-.874-.02a12.446,12.446,0,0,1-2.4-.376,11.872,11.872,0,0,1-4.375-2.159,2.065,2.065,0,1,0-2.581,3.224,16.139,16.139,0,0,0,8.188,3.352v2.9a2.065,2.065,0,1,0,4.13,0v-2.947a11.346,11.346,0,0,0,6.571-3.026,6.768,6.768,0,0,0-.224-9.687,8.43,8.43,0,0,0-1.651-1.193,21.99,21.99,0,0,0-5.613-1.927c-2.223-.544-4.323-1.057-5.612-2.28a2.474,2.474,0,0,1-.848-2.461A4.519,4.519,0,0,1,5840.121,1445.627Z" transform="translate(-153.001 -157.435)" fill="#212121"/>
    <path id="Path_217280_-_Outline" data-name="Path 217280 - Outline" d="M5842.227,1435.494a2.818,2.818,0,0,1,2.815,2.815v2.155c3.695.529,7.006,2.459,8.56,5.031a2.815,2.815,0,0,1-4.82,2.911c-.864-1.432-3.272-2.432-5.856-2.432-.139,0-.278,0-.415.009-.084.008-.166.013-.247.014a8.532,8.532,0,0,0-1.921.347,3.826,3.826,0,0,0-2.7,2.4,1.729,1.729,0,0,0,.633,1.747c1.146,1.086,3.151,1.577,5.274,2.1l.011,0a22.522,22.522,0,0,1,5.791,2,9.177,9.177,0,0,1,1.8,1.3,7.5,7.5,0,0,1,2.349,4.7,7.416,7.416,0,0,1-2.1,6.055,11.72,11.72,0,0,1-6.362,3.144v2.309a2.815,2.815,0,1,1-5.63,0v-2.243a16.485,16.485,0,0,1-1.725-.354,16.784,16.784,0,0,1-6.181-3.069,2.815,2.815,0,1,1,3.519-4.394,11.114,11.114,0,0,0,4.1,2.019,11.711,11.711,0,0,0,2.256.353c.217.013.438.02.677.02l.172,0h.034a7.5,7.5,0,0,0,5.084-1.684,1.827,1.827,0,0,0,.557-1.584,1.866,1.866,0,0,0-.6-1.163,3.6,3.6,0,0,0-.7-.5,18.233,18.233,0,0,0-4.385-1.443c-2.744-.671-5.581-1.366-7.811-3.479a7.335,7.335,0,0,1-2.242-7.115,9.312,9.312,0,0,1,6.52-6.5c.236-.073.479-.141.729-.2v-2.452A2.818,2.818,0,0,1,5842.227,1435.494Zm8.967,12.771a1.315,1.315,0,0,0,1.124-1.995c-1.411-2.336-4.589-4.061-8.1-4.394l-.679-.064v-3.5a1.315,1.315,0,0,0-2.63,0v3.66l-.6.124c-.413.086-.813.189-1.189.3a7.813,7.813,0,0,0-5.5,5.4,5.866,5.866,0,0,0,1.813,5.684c1.94,1.839,4.581,2.485,7.135,3.11a19.235,19.235,0,0,1,4.763,1.592,5.116,5.116,0,0,1,.991.71,3.362,3.362,0,0,1,1.067,2.106,3.316,3.316,0,0,1-.967,2.775,8.873,8.873,0,0,1-6.169,2.145h-.2c-.27,0-.521-.007-.769-.022a13.2,13.2,0,0,1-2.546-.4,12.628,12.628,0,0,1-4.653-2.3,1.315,1.315,0,1,0-1.644,2.053,15.27,15.27,0,0,0,5.626,2.79,15.428,15.428,0,0,0,2.178.4l.665.076v3.57a1.315,1.315,0,1,0,2.63,0v-3.6l.644-.092a10.54,10.54,0,0,0,6.136-2.8,6.017,6.017,0,0,0-.2-8.62,7.679,7.679,0,0,0-1.5-1.086,21.393,21.393,0,0,0-5.415-1.85l-.011,0c-2.321-.568-4.515-1.1-5.949-2.464a3.194,3.194,0,0,1-1.062-3.177,5.268,5.268,0,0,1,3.714-3.49,10.035,10.035,0,0,1,2.285-.412l.047,0a1.312,1.312,0,0,0,.141-.008l.047,0c.167-.007.336-.011.5-.011,3.132,0,6,1.268,7.141,3.156A1.308,1.308,0,0,0,5851.194,1448.265Z" transform="translate(-153.001 -157.435)" fill="#fff"/>
  </g>
</svg>
