<svg xmlns="http://www.w3.org/2000/svg" width="122.714" height="109.328" viewBox="0 0 122.714 109.328">
  <g id="QII_5_icon03" transform="translate(-2270.188 -1322.8)">
    <g id="Group_271196" data-name="Group 271196" transform="translate(2310.178 1353.254)">
      <path id="Path_217185" data-name="Path 217185" d="M2440.449,1437.558a1,1,0,0,1-1-1v-18.922a3.154,3.154,0,0,0-1.82-2.851,1,1,0,0,1,.843-1.814,5.161,5.161,0,0,1,2.977,4.665v18.922A1,1,0,0,1,2440.449,1437.558Z" transform="translate(-2397.716 -1400.41)"/>
      <path id="Path_217186" data-name="Path 217186" d="M2423.226,1424.59a1,1,0,0,1-1-1v-19.36a3.142,3.142,0,0,0-1.653-2.767,1,1,0,1,1,.95-1.76,5.139,5.139,0,0,1,2.7,4.527v19.36A1,1,0,0,1,2423.226,1424.59Z" transform="translate(-2388.774 -1393.418)"/>
      <path id="Path_217187" data-name="Path 217187" d="M2398.987,1419.447a1,1,0,0,1-1-1V1389.61a3.141,3.141,0,0,0-6.281,0v25.033a1,1,0,0,1-2,0V1389.61a5.141,5.141,0,0,1,10.281,0v28.837A1,1,0,0,1,2398.987,1419.447Z" transform="translate(-2372.816 -1385.469)"/>
      <path id="Path_217188" data-name="Path 217188" d="M2373.237,1419.4a1,1,0,0,1-1-1v-25.9a5.146,5.146,0,0,1,5.141-5.141,1,1,0,0,1,0,2,3.144,3.144,0,0,0-3.141,3.141v25.9A1,1,0,0,1,2373.237,1419.4Z" transform="translate(-2363.629 -1386.99)"/>
      <path id="Path_217189" data-name="Path 217189" d="M2427.633,1486.685l-.064,0a1,1,0,0,1-.935-1.061,15.638,15.638,0,0,1,3.905-9.366,13.553,13.553,0,0,0,3.431-9.018v-5.521a1,1,0,0,1,2,0v5.521a15.551,15.551,0,0,1-3.937,10.347,13.631,13.631,0,0,0-3.4,8.162A1,1,0,0,1,2427.633,1486.685Z" transform="translate(-2392.236 -1425.569)"/>
      <path id="Path_217190" data-name="Path 217190" d="M2359.668,1474.1a1,1,0,0,1-.992-.887,13.353,13.353,0,0,0-3.073-7.121,15.412,15.412,0,0,1-3.631-9.93v-10.659a10.593,10.593,0,0,1,4.276-8.512,1,1,0,1,1,1.195,1.6,8.541,8.541,0,0,0-3.471,6.908v10.659a13.41,13.41,0,0,0,3.16,8.639,15.349,15.349,0,0,1,3.532,8.185,1,1,0,0,1-.995,1.114Z" transform="translate(-2352.971 -1412.989)"/>
      <path id="Rectangle_1871" data-name="Rectangle 1871" d="M6.8-1H28.835a7.8,7.8,0,0,1,0,15.6H6.8A7.8,7.8,0,0,1,6.8-1ZM28.835,12.6a5.8,5.8,0,0,0,0-11.6H6.8a5.8,5.8,0,0,0,0,11.6Z" transform="translate(2.957 64.271)"/>
    </g>
    <g id="Group_271199" data-name="Group 271199" transform="translate(2271.602 1324.214)">
      <g id="Group_271197" data-name="Group 271197">
        <path id="Line_4274" data-name="Line 4274" d="M7.557,8.557a1,1,0,0,1-.707-.293L-.707.707a1,1,0,0,1,0-1.414,1,1,0,0,1,1.414,0L8.264,6.85a1,1,0,0,1-.707,1.707Z" transform="translate(26.577 57.631)"/>
        <path id="Path_217191" data-name="Path 217191" d="M2314.617,1422.22a1,1,0,0,1-.707-.293l-3.9-3.9a15.554,15.554,0,0,1-4.533-10.1,13.628,13.628,0,0,0-3.365-8.178,1,1,0,1,1,1.5-1.322,15.637,15.637,0,0,1,3.861,9.384,13.555,13.555,0,0,0,3.951,8.8l3.9,3.9a1,1,0,0,1-.707,1.707Z" transform="translate(-2288.04 -1363.589)"/>
        <path id="Path_217192" data-name="Path 217192" d="M2364.812,1366.959a1,1,0,0,1-.707-.293l-2.436-2.435a13.41,13.41,0,0,0-8.343-3.875,15.342,15.342,0,0,1-8.285-3.29,1,1,0,1,1,1.245-1.565,13.347,13.347,0,0,0,7.208,2.863,15.413,15.413,0,0,1,9.589,4.454l2.436,2.435a1,1,0,0,1-.707,1.707Z" transform="translate(-2310.552 -1341.079)"/>
        <path id="Rectangle_1872" data-name="Rectangle 1872" d="M6.8-1H28.835a7.8,7.8,0,1,1,0,15.6H6.8A7.8,7.8,0,0,1,6.8-1ZM28.835,12.6a5.8,5.8,0,1,0,0-11.6H6.8a5.8,5.8,0,0,0,0,11.6Z" transform="translate(34.817 9.618) rotate(135)"/>
      </g>
      <g id="Group_271198" data-name="Group 271198" transform="translate(64.747 0)">
        <path id="Line_4275" data-name="Line 4275" d="M0,8.557a1,1,0,0,1-.707-.293,1,1,0,0,1,0-1.414L6.85-.707a1,1,0,0,1,1.414,0,1,1,0,0,1,0,1.414L.707,8.264A1,1,0,0,1,0,8.557Z" transform="translate(21.005 57.631)"/>
        <path id="Path_217193" data-name="Path 217193" d="M2468.42,1422.22a1,1,0,0,1-.707-1.707l3.9-3.9a13.555,13.555,0,0,0,3.951-8.8,15.637,15.637,0,0,1,3.861-9.384,1,1,0,1,1,1.5,1.322,13.628,13.628,0,0,0-3.365,8.178,15.552,15.552,0,0,1-4.533,10.1l-3.9,3.9A1,1,0,0,1,2468.42,1422.22Z" transform="translate(-2439.858 -1363.589)"/>
        <path id="Path_217194" data-name="Path 217194" d="M2408.174,1367.838a1,1,0,0,1-.707-1.707l3.314-3.314a15.413,15.413,0,0,1,9.589-4.454,13.352,13.352,0,0,0,7.209-2.863,1,1,0,1,1,1.245,1.565,15.344,15.344,0,0,1-8.285,3.29,13.41,13.41,0,0,0-8.343,3.875l-3.314,3.314A1,1,0,0,1,2408.174,1367.838Z" transform="translate(-2408.174 -1341.079)"/>
        <path id="Rectangle_1873" data-name="Rectangle 1873" d="M6.8-1H28.835a7.8,7.8,0,0,1,0,15.6H6.8A7.8,7.8,0,0,1,6.8-1ZM28.835,12.6a5.8,5.8,0,0,0,0-11.6H6.8a5.8,5.8,0,0,0,0,11.6Z" transform="translate(29.94) rotate(45)"/>
      </g>
    </g>
  </g>
</svg>
