<svg xmlns="http://www.w3.org/2000/svg" width="107.274" height="103.881" viewBox="0 0 107.274 103.881">
  <g id="QII_5_icon02" transform="translate(-2035 -267)">
    <g id="Group_271159" data-name="Group 271159" transform="translate(2063.168 268)">
      <g id="Group_271157" data-name="Group 271157" transform="translate(0 1.68)">
        <path id="Path_216992" data-name="Path 216992" d="M2112.364,310.327a1.011,1.011,0,0,1-.142-.01,35.327,35.327,0,0,1-4.5-1c-3.295-.97-5.468-2.216-6.459-3.7a1,1,0,0,1-.142-.78,96.39,96.39,0,0,0,2.22-18.57,15.111,15.111,0,0,1,1.021-5.335,16.1,16.1,0,0,1,2.968-4.916,14.824,14.824,0,0,1,4.814-3.636,15.647,15.647,0,0,1,12.8-.094,14.774,14.774,0,0,1,4.734,3.417,15.969,15.969,0,0,1,4.251,9.807,1,1,0,0,1-.942,1.055l-.057,0a1,1,0,0,1-1-.944,13.3,13.3,0,0,0-26.589.645,95.939,95.939,0,0,1-2.168,18.556,11.584,11.584,0,0,0,5.091,2.573,33.9,33.9,0,0,0,4.24.948,1,1,0,0,1-.14,1.99Z" transform="translate(-2101.205 -271.957)" fill="#303030"/>
        <path id="Path_216993" data-name="Path 216993" d="M2100,364.742a1,1,0,0,1-.2-1.98c.02,0,2-.41,4.207-1.109,2.757-.874,4.687-1.833,5.432-2.7.089-.1.545-.765.729-3.56.1-1.569.064-2.985.063-3a1,1,0,0,1,.97-1.029h.03a1,1,0,0,1,1,.971c0,.062.043,1.526-.067,3.19-.213,3.229-.792,4.247-1.208,4.732-1.015,1.181-3.156,2.294-6.363,3.309-2.3.729-4.311,1.14-4.395,1.157A1.008,1.008,0,0,1,2100,364.742Z" transform="translate(-2100 -318.231)" fill="#303030"/>
      </g>
      <g id="Group_271158" data-name="Group 271158" transform="translate(41.976)">
        <path id="Path_216994" data-name="Path 216994" d="M2261.368,365.748a1,1,0,0,1-.2-.02c-.085-.017-2.1-.423-4.426-1.106-3.267-.961-5.358-1.931-6.392-2.964-.468-.468-.972-1.416-.707-4.616.133-1.606.4-3.051.409-3.112a1,1,0,0,1,1.967.363h0c0,.013-.244,1.334-.372,2.786-.22,2.5.087,3.107.13,3.177.451.443,1.763,1.338,5.515,2.443,2.238.659,4.248,1.064,4.268,1.068a1,1,0,0,1-.2,1.981Z" transform="translate(-2228.63 -317.557)" fill="#303030"/>
        <path id="Path_216995" data-name="Path 216995" d="M2218.057,306.969a1,1,0,0,1-.163-1.987c5.761-.96,7.847-9.988,7.867-10.079l0-.012c.6-2.523,1.262-6.7,1.561-9.277a23.512,23.512,0,0,0,0-6.572c-.783-5.819-6.506-10.043-13.608-10.043s-12.825,4.224-13.608,10.044a21.617,21.617,0,0,0-.2,4.189,1,1,0,0,1-.951,1.047h-.049a1,1,0,0,1-1-.952,23.452,23.452,0,0,1,.217-4.551,12.754,12.754,0,0,1,5.121-8.481,18.273,18.273,0,0,1,20.939,0,12.752,12.752,0,0,1,5.12,8.48,25.285,25.285,0,0,1,0,7.068c-.3,2.633-.986,6.905-1.6,9.5a23.5,23.5,0,0,1-1.988,5.259,15.172,15.172,0,0,1-2.873,3.936,8.745,8.745,0,0,1-4.628,2.416A1,1,0,0,1,2218.057,306.969Z" transform="translate(-2198.883 -268)" fill="#303030"/>
      </g>
      <g id="_Grupo_" data-name="&lt;Grupo&gt;" transform="translate(23.772 25.117)">
        <path id="Path_216996" data-name="Path 216996" d="M2156,399.563a1,1,0,0,1-.448-1.895l6.792-3.4a.952.952,0,0,1,1.147.18c.121.1,1.742,1.413,6.092,1.413s5.971-1.309,6.092-1.413a.952.952,0,0,1,1.147-.18l6.792,3.4a1,1,0,1,1-.895,1.789l-6.243-3.121c-.936.595-3.023,1.529-6.894,1.529s-5.958-.934-6.894-1.529l-6.242,3.121A1,1,0,0,1,2156,399.563Z" transform="translate(-2156 -366.301)" fill="#303030"/>
        <path id="Path_216997" data-name="Path 216997" d="M2179.343,350.241a1,1,0,0,1-.556-1.832c3.734-2.49,3.891-4.028,4.235-7.4.053-.523.108-1.063.181-1.659.271-2.211.4-4.752-.692-6.83a8.164,8.164,0,0,0-4.734-3.781,11.137,11.137,0,0,0-7.062,0,8.165,8.165,0,0,0-4.734,3.781c-1.092,2.078-.962,4.619-.691,6.83.073.6.128,1.136.181,1.659.344,3.37.5,4.908,4.235,7.4a1,1,0,1,1-1.109,1.664,10.962,10.962,0,0,1-4.1-4.184,13.326,13.326,0,0,1-1.019-4.675c-.052-.513-.106-1.043-.177-1.618-.309-2.518-.442-5.438.906-8a10.148,10.148,0,0,1,5.864-4.745,13.137,13.137,0,0,1,8.341,0,10.147,10.147,0,0,1,5.864,4.745c1.349,2.566,1.215,5.486.907,8-.071.575-.125,1.106-.177,1.618a13.326,13.326,0,0,1-1.019,4.675,10.962,10.962,0,0,1-4.1,4.184A1,1,0,0,1,2179.343,350.241Z" transform="translate(-2160.664 -327.167)" fill="#303030"/>
      </g>
    </g>
    <g id="Group_271160" data-name="Group 271160" transform="translate(2036 330.826)">
      <path id="Path_216998" data-name="Path 216998" d="M2116.393,461.533a7.749,7.749,0,0,1-1.5-.146l-40.184-6.645H2068a1,1,0,0,1,0-2h6.793a1,1,0,0,1,.163.013l40.281,6.661.032.006a5.818,5.818,0,0,0,3.726-.5l37.313-18.679.025-.012a4.106,4.106,0,0,0,1.976-5.445,4.093,4.093,0,0,0-5.441-1.975l-.01,0-24.07,10.913a1,1,0,0,1-.826-1.822l24.065-10.911a6.1,6.1,0,0,1,5.165,11.042l-37.3,18.673A7.829,7.829,0,0,1,2116.393,461.533Z" transform="translate(-2054.416 -424.876)" fill="#303030"/>
      <path id="Path_216999" data-name="Path 216999" d="M2125.732,437.663H2101.96a1,1,0,0,1,0-2h23.772a4.094,4.094,0,0,0,0-8.188h-18.678a1,1,0,0,1-.759-.349c-5.005-5.839-13.183-6.843-19.161-6.656a51.493,51.493,0,0,0-12.048,1.867,1,1,0,0,1-.294.044H2068a1,1,0,0,1,0-2h6.646a53.2,53.2,0,0,1,12.426-1.91A34.856,34.856,0,0,1,2098,419.706a20.261,20.261,0,0,1,9.508,5.769h18.226a6.094,6.094,0,0,1,0,12.188Z" transform="translate(-2054.415 -417.985)" fill="#303030"/>
      <path id="Path_217000" data-name="Path 217000" d="M2042.792,456.054H2036a1,1,0,0,1,0-2h6.792a5.8,5.8,0,0,0,5.792-5.792V417H2036a1,1,0,0,1,0-2h13.584a1,1,0,0,1,1,1v32.262A7.8,7.8,0,0,1,2042.792,456.054Z" transform="translate(-2036 -416)" fill="#303030"/>
      <path id="Ellipse_3207" data-name="Ellipse 3207" d="M1.7-1A2.7,2.7,0,1,1-1,1.7,2.705,2.705,0,0,1,1.7-1Zm0,3.4A.7.7,0,1,0,1,1.7.7.7,0,0,0,1.7,2.4Z" transform="translate(0 25.437)" fill="#303030"/>
    </g>
  </g>
</svg>
