<svg xmlns="http://www.w3.org/2000/svg" width="95.514" height="92.5" viewBox="0 0 95.514 92.5">
  <g id="QII_5_icon08" transform="translate(-2035 -267)">
    <g id="Group_271159" data-name="Group 271159" transform="translate(2060.133 268)">
      <g id="Group_271157" data-name="Group 271157" transform="translate(0 1.492)">
        <path id="Path_216992" data-name="Path 216992" d="M2111.217,306.152a1.011,1.011,0,0,1-.142-.01,31.5,31.5,0,0,1-4.013-.894c-2.953-.869-4.9-1.992-5.8-3.335a1,1,0,0,1-.142-.78,85.522,85.522,0,0,0,1.969-16.47,13.536,13.536,0,0,1,.914-4.779,14.411,14.411,0,0,1,2.657-4.4,13.28,13.28,0,0,1,4.313-3.257,14.01,14.01,0,0,1,11.462-.085,13.233,13.233,0,0,1,4.241,3.061,14.3,14.3,0,0,1,3.806,8.782,1,1,0,0,1-.942,1.055l-.057,0a1,1,0,0,1-1-.944,11.7,11.7,0,0,0-23.4.566,85.293,85.293,0,0,1-1.916,16.451,10.383,10.383,0,0,0,4.43,2.21,30,30,0,0,0,3.753.839,1,1,0,0,1-.14,1.99Z" transform="translate(-2101.304 -271.957)" fill="#303030"/>
        <path id="Path_216993" data-name="Path 216993" d="M2100,363.471a1,1,0,0,1-.2-1.98c2.635-.536,7.272-1.919,8.5-3.347.046-.053.454-.595.62-3.082.093-1.39.057-2.656.057-2.668a1,1,0,0,1,.97-1.029h.03a1,1,0,0,1,1,.971c0,.055.038,1.361-.06,2.844-.192,2.9-.719,3.826-1.1,4.269-.916,1.065-2.834,2.065-5.7,2.973-2.053.65-3.84,1.015-3.915,1.031A1.008,1.008,0,0,1,2100,363.471Z" transform="translate(-2100 -322.044)" fill="#303030"/>
      </g>
      <g id="Group_271158" data-name="Group 271158" transform="translate(37.287)">
        <path id="Path_216994" data-name="Path 216994" d="M2260.162,364.559a1,1,0,0,1-.2-.02c-.076-.015-1.874-.377-3.941-.985-2.92-.859-4.793-1.73-5.725-2.661-.433-.433-.9-1.3-.66-4.188.118-1.432.355-2.721.365-2.776a1,1,0,0,1,1.967.363h0c0,.011-.211,1.154-.325,2.422a6.18,6.18,0,0,0,.091,2.787c1.281,1.24,5.957,2.543,8.621,3.077a1,1,0,0,1-.2,1.981Z" transform="translate(-2231.082 -321.64)" fill="#303030"/>
        <path id="Path_216995" data-name="Path 216995" d="M2215.916,302.728a1,1,0,0,1-.163-1.987c5.058-.843,6.88-8.787,6.9-8.867l0-.013c.529-2.238,1.119-5.941,1.384-8.228a20.548,20.548,0,0,0,0-5.81c-.688-5.113-5.725-8.824-11.977-8.824s-11.289,3.711-11.977,8.825a19.075,19.075,0,0,0-.178,3.7,1,1,0,1,1-2,.1,20.894,20.894,0,0,1,.194-4.063,11.439,11.439,0,0,1,4.592-7.608,16.343,16.343,0,0,1,18.734,0,11.439,11.439,0,0,1,4.592,7.607,22.574,22.574,0,0,1,0,6.306c-.271,2.342-.877,6.142-1.423,8.452-.106.471-2.18,9.342-8.52,10.4A1,1,0,0,1,2215.916,302.728Z" transform="translate(-2198.883 -268)" fill="#303030"/>
      </g>
      <g id="_Grupo_" data-name="&lt;Grupo&gt;" transform="translate(21.117 22.311)">
        <path id="Path_216996" data-name="Path 216996" d="M2180.133,399.184a1,1,0,0,1-.447-.106l-5.49-2.745a14.664,14.664,0,0,1-12.259,0l-5.49,2.745a1,1,0,1,1-.895-1.789l6.033-3.017a.946.946,0,0,1,1.146.179c.12.1,1.547,1.224,5.334,1.224,3.934,0,5.314-1.2,5.326-1.215a1,1,0,0,1,1.155-.187l6.034,3.017a1,1,0,0,1-.448,1.895Z" transform="translate(-2156 -369.525)" fill="#303030"/>
        <path id="Path_216997" data-name="Path 216997" d="M2168.589,347.775a1,1,0,0,1-.554-.168c-4.058-2.705-4.271-4.792-4.593-7.951-.046-.455-.094-.926-.157-1.435-.276-2.254-.4-4.869.817-7.175a9.126,9.126,0,0,1,5.272-4.269,11.783,11.783,0,0,1,7.481,0,9.124,9.124,0,0,1,5.272,4.269c1.213,2.307,1.094,4.922.818,7.175-.063.51-.111.981-.157,1.436-.323,3.158-.536,5.245-4.593,7.95a1,1,0,1,1-1.109-1.664c3.273-2.182,3.4-3.443,3.713-6.489.048-.465.1-.946.162-1.476.239-1.947.354-4.183-.6-6a7.141,7.141,0,0,0-4.142-3.3,9.782,9.782,0,0,0-6.2,0,7.142,7.142,0,0,0-4.142,3.3c-.956,1.819-.841,4.054-.6,6,.065.53.114,1.011.161,1.476.311,3.046.439,4.307,3.713,6.49a1,1,0,0,1-.556,1.832Z" transform="translate(-2161.048 -327.167)" fill="#303030"/>
      </g>
    </g>
    <g id="Group_271160" data-name="Group 271160" transform="translate(2036 323.808)">
      <path id="Path_216998" data-name="Path 216998" d="M2110.988,458.281a7,7,0,0,1-1.351-.131l-35.685-5.9H2068a1,1,0,0,1,0-2h6.034a1,1,0,0,1,.163.013l35.781,5.917.032.006a5.056,5.056,0,0,0,3.238-.435l33.145-16.593.025-.012a3.536,3.536,0,0,0,1.7-4.689,3.524,3.524,0,0,0-4.685-1.7l-.01,0-21.381,9.694a1,1,0,0,1-.826-1.822l21.376-9.692a5.526,5.526,0,0,1,4.684,10.01l-33.133,16.587A7.063,7.063,0,0,1,2110.988,458.281Z" transform="translate(-2055.933 -425.607)" fill="#303030"/>
      <path id="Path_216999" data-name="Path 216999" d="M2119.283,435.74h-21.116a1,1,0,0,1,0-2h21.116a3.525,3.525,0,0,0,0-7.05h-16.592a1,1,0,0,1-.759-.349c-4.417-5.153-11.645-6.038-16.933-5.873a45.614,45.614,0,0,0-10.673,1.653,1,1,0,0,1-.294.044H2068a1,1,0,0,1,0-2h5.888a47.419,47.419,0,0,1,11.05-1.7,31.08,31.08,0,0,1,9.742,1.1,18.123,18.123,0,0,1,8.464,5.12h16.14a5.525,5.525,0,0,1,0,11.05Z" transform="translate(-2055.933 -418.148)" fill="#303030"/>
      <path id="Path_217000" data-name="Path 217000" d="M2042.033,451.692H2036a1,1,0,0,1,0-2h6.033a5.039,5.039,0,0,0,5.034-5.033V417H2036a1,1,0,0,1,0-2h12.067a1,1,0,0,1,1,1v28.658A7.041,7.041,0,0,1,2042.033,451.692Z" transform="translate(-2036 -416)" fill="#303030"/>
      <path id="Ellipse_3207" data-name="Ellipse 3207" d="M1.512-1A2.512,2.512,0,1,1-1,1.512,2.515,2.515,0,0,1,1.512-1Zm0,3.024A.512.512,0,1,0,1,1.512.513.513,0,0,0,1.512,2.024Z" transform="translate(0 22.596)" fill="#303030"/>
    </g>
  </g>
</svg>
