<svg xmlns="http://www.w3.org/2000/svg" width="141.375" height="142.118" viewBox="0 0 141.375 142.118">
  <g id="QII_5_icon04" transform="translate(-64.9 -55.648)">
    <path id="Path_217300" data-name="Path 217300" d="M592.648,328.993a1.589,1.589,0,0,1,1.651.811,29.894,29.894,0,0,1,1.838,3.207l2.458,4.643,9.793,18.617,2.8,5.406a35.93,35.93,0,0,0,1.787,3.254c.971.509,5.116,1.914,6.347,2.37l23.04,8.53,6.877,2.582c.767.285,2.868.985,3.452,1.288a1.482,1.482,0,0,1,.643.665c.458.943-.269,2.22-.7,3.053-.709,1.375-1.434,2.7-2.269,4.008a42.721,42.721,0,0,1-16.466,14.9c-1.087.564-2.444,1.115-3.579,1.6q-1,.4-2.01.762c-10.375,3.612-22.373,2.555-32.208-2.2A41.547,41.547,0,0,1,576.7,346.765a43.815,43.815,0,0,1,13.755-16.427A7.662,7.662,0,0,1,592.648,328.993Z" transform="translate(-480.598 -265.781)" fill="#222" stroke="#fff" stroke-width="0.5"/>
    <path id="Path_217301" data-name="Path 217301" d="M620.5,367.841c.458.518,2.2,4.139,2.624,4.951l5.732,10.811q3.143,5.922,6.225,11.877a68.752,68.752,0,0,0,3.739,6.742c.442.646,4.622,2.018,5.505,2.337l7.913,2.868,25.922,9.491a39.6,39.6,0,0,1-19.876,18.9c-16.539,7.4-36.324,1.384-47.064-12.925a37.835,37.835,0,0,1-7.115-28.278A39.546,39.546,0,0,1,616.533,371C617.66,369.964,619.263,368.76,620.5,367.841Z" transform="translate(-508.73 -300.879)" fill="#fdfdfd" stroke="#fff" stroke-width="0.5"/>
    <path id="Path_217302" data-name="Path 217302" d="M1097.708,329.12c1.409.035,3.611,2.031,4.712,2.92a42.043,42.043,0,0,1,14.668,41.2c-.382,1.732-.492,2.344-2.3,2.8-1.36-.379-2.908-1-4.25-1.5l-6.47-2.412-16.379-6.119c-2.133-.8-4.295-1.566-6.419-2.37-.5-.188-1.48-.643-1.611-1.145a1.653,1.653,0,0,1,.051-1.364c1.814-3.413,3.616-6.857,5.463-10.25l6.491-12.025c1.111-2.027,2.154-4.112,3.278-6.136.539-.971,1.046-2.011,1.675-2.931A1.779,1.779,0,0,1,1097.708,329.12Z" transform="translate(-938.587 -265.901)" fill="#222" stroke="#fff" stroke-width="0.5"/>
    <path id="Path_217303" data-name="Path 217303" d="M1131.122,365.992a43.443,43.443,0,0,1,9.13,9.182,38.015,38.015,0,0,1,7.364,24.888c-.118,2.03-.5,3.853-.788,5.852q-5.329-1.871-10.612-3.869l-20.487-7.42c1.891-3.834,4.392-8.266,6.443-12.049Z" transform="translate(-971.278 -299.208)" fill="#fdfdfd" stroke="#fff" stroke-width="0.5"/>
    <path id="Path_217304" data-name="Path 217304" d="M859.484,253.6c4.434-.6,14.272,1.354,18.346,3.207a2.66,2.66,0,0,1,1.495,1.385,2.1,2.1,0,0,1-.066,1.335,30.666,30.666,0,0,1-1.735,3.284l-3.444,6.306c-3.626,6.749-7.377,13.979-11.112,20.636a2.072,2.072,0,0,1-1.33.795,1.494,1.494,0,0,1-1.143-.345c-.908-.784-6.266-11.858-7.314-13.854l-6.312-12.114c-.783-1.532-1.586-3.039-2.358-4.588a2.38,2.38,0,0,1-.008-2.711c.535-.6,1.945-.858,2.725-1.112A47.218,47.218,0,0,1,859.484,253.6Z" transform="translate(-725.882 -197.583)" fill="#222" stroke="#fff" stroke-width="0.5"/>
    <path id="Path_217305" data-name="Path 217305" d="M892.174,285.046a19.541,19.541,0,0,1,2.452.013c3.842.141,10.027,1.194,13.474,2.833-1.531,3-3.3,6.071-4.914,9.04l-8.851,16.185-.852,1.611c-.805-1.729-1.866-3.6-2.739-5.334l-7.518-14.787c-1.206-2.36-2.537-4.814-3.676-7.188C882.925,285.918,888.505,285.233,892.174,285.046Z" transform="translate(-757.929 -226.053)" fill="#fdfdfd" stroke="#fff" stroke-width="0.5"/>
    <path id="Path_217306" data-name="Path 217306" d="M399.474,1230.9a10.061,10.061,0,1,1-9.162,10.943A10.062,10.062,0,0,1,399.474,1230.9Z" transform="translate(-315.944 -1080.478)" fill="#222" stroke="#fff" stroke-width="0.5"/>
    <path id="Path_217307" data-name="Path 217307" d="M426.858,1262.486a7.066,7.066,0,1,1-5.476,8.406A7.067,7.067,0,0,1,426.858,1262.486Z" transform="translate(-343.906 -1108.907)" fill="#fdfdfd" stroke="#fff" stroke-width="0.5"/>
    <path id="Path_217308" data-name="Path 217308" d="M1458.248,1230.089a10.029,10.029,0,1,1-8.4,11.393A10.028,10.028,0,0,1,1458.248,1230.089Z" transform="translate(-1273 -1079.669)" fill="#222" stroke="#fff" stroke-width="0.5"/>
    <path id="Path_217309" data-name="Path 217309" d="M1486.41,1260.838a7.059,7.059,0,1,1-5.635,8.246A7.059,7.059,0,0,1,1486.41,1260.838Z" transform="translate(-1300.923 -1107.442)" fill="#fdfdfd" stroke="#fff" stroke-width="0.5"/>
    <path id="Path_217310" data-name="Path 217310" d="M928.9,1297.85a10.025,10.025,0,1,1-9.145,10.8A10.025,10.025,0,0,1,928.9,1297.85Z" transform="translate(-794.213 -1140.954)" fill="#222" stroke="#fff" stroke-width="0.5"/>
    <path id="Path_217311" data-name="Path 217311" d="M956.217,1328.785a7.037,7.037,0,1,1-6.057,7.939A7.037,7.037,0,0,1,956.217,1328.785Z" transform="translate(-821.653 -1168.877)" fill="#fdfdfd" stroke="#fff" stroke-width="0.5"/>
    <path id="Path_217312" data-name="Path 217312" d="M833.992,1506.986c1.958-.087,2.709,2.012.859,2.845a17.419,17.419,0,0,1-1.761.636c-5.031,1.552-7.2,4.619-7.271,9.848-.021,1.2-.119,2.721-.165,3.974l32.943,0a19.168,19.168,0,0,0-.085-4.38,13.525,13.525,0,0,0-.98-4.745c-1.987-4.3-8.391-4.808-9.04-6.108a1.419,1.419,0,0,1-.046-1.185c.777-1.865,4.081-.1,5.356.427a12.8,12.8,0,0,1,6.093,5.056,11.1,11.1,0,0,1,1.071,2.7,30.6,30.6,0,0,1,.665,6.315c.064,2.054.248,4.96-2.593,5.01-1.937.035-3.873.019-5.812.016l-10.315,0-11.6,0a50.614,50.614,0,0,1-7.092-.18c-1.617-.285-1.489-2.825-1.5-4.172C822.629,1513.655,825.134,1509.92,833.992,1506.986Z" transform="translate(-706.59 -1329.904)" fill="#222" stroke="#fff" stroke-width="0.5"/>
    <path id="Path_217313" data-name="Path 217313" d="M1387.427,1458.261c0-1.406-.15-2.749-.211-4-.279-5.7-2.7-7.9-7.941-9.787-.718-.254-1.744-.548-2.042-1.308a1.394,1.394,0,0,1,1.306-1.94,12.242,12.242,0,0,1,4.275,1.392l.156.075a12.2,12.2,0,0,1,6.452,7.069c.571,1.8,1.5,8.754.6,10.37a1.912,1.912,0,0,1-1.144.936,19.945,19.945,0,0,1-4.188.112H1377l-15.451,0c-2.566,0-5.132.006-7.7-.012a2,2,0,0,1-2.106-1.742,12.318,12.318,0,0,1-.1-2.393,27.566,27.566,0,0,1,.856-7.387c1.388-4.511,6.127-7.557,10.524-8.468,1.9.27,1.79,2.105.873,2.569-2.256,1.141-4.421,1.634-6.448,3.461-3.127,2.819-2.7,7.214-2.884,11.055Z" transform="translate(-1184.379 -1270.462)" fill="#222" stroke="#fff" stroke-width="0.5"/>
    <path id="Path_217314" data-name="Path 217314" d="M322.285,1440.89a16.86,16.86,0,0,1,5.927,2.25c5.359,3.158,5.843,7.944,5.954,13.544.1,5.226-1.295,4.233-5.928,4.234l-9.111,0H305c-2.548,0-5.149.108-7.69-.04a1.334,1.334,0,0,1-.878-.324c-.039-.032-.075-.067-.113-.1a2.329,2.329,0,0,1-.534-.6c-.911-1.587.085-8.523.6-10.243,1-3.32,3.418-5.443,6.39-7.044a13.114,13.114,0,0,1,4.221-1.539,1.347,1.347,0,0,1,1.565,1.386c-.051,1.344-1.663,1.618-2.651,1.991a14.578,14.578,0,0,0-4.563,2.639c-2.993,2.721-2.813,7.233-2.966,10.959h32.82c-.1-2.793,0-6.434-1.2-8.966s-4.464-4.165-7.008-4.928C321.169,1443.563,320.031,1441.909,322.285,1440.89Z" transform="translate(-230.261 -1270.2)" fill="#222" stroke="#fff" stroke-width="0.5"/>
    <path id="Path_217315" data-name="Path 217315" d="M656.916,1153.051c.767-.022,1.677.329,1.734,1.205.076,1.164.053,2.338.053,3.5l0,6.217v6.336c0,1.143.027,2.326-.038,3.44-.06,1.035-.645,1.422-1.611,1.469-1.524.074-3.142.04-4.66.04l-9.351-.007c-1.33-.056-2.032-.781-1.505-2.219a1.436,1.436,0,0,1,1.1-.718c1.43-.1,2.9-.056,4.339-.055l8.762,0,0-11.425c0-2.069-.031-4.141.005-6.208A1.455,1.455,0,0,1,656.916,1153.051Z" transform="translate(-542.763 -1010.184)" fill="#222" stroke="#fff" stroke-width="0.5"/>
    <path id="Path_217316" data-name="Path 217316" d="M1228.638,1152.976c1.072-.063,1.83.183,1.882,1.416.082,1.921.036,3.86.035,5.785V1172.2l9-.011a31.246,31.246,0,0,1,4.14.1c.964.151,1.4,2.316-.049,2.879-3.987.141-8.116-.089-12.114.017a23.118,23.118,0,0,1-2.629-.058,1.2,1.2,0,0,1-1.27-1.226c-.043-1.3-.025-2.611-.025-3.914v-7.318l0-5.617a24.582,24.582,0,0,1,.08-3.036C1227.751,1153.556,1228.284,1153.212,1228.638,1152.976Z" transform="translate(-1072.334 -1010.109)" fill="#222" stroke="#fff" stroke-width="0.5"/>
  </g>
</svg>
