<svg xmlns="http://www.w3.org/2000/svg" width="90.474" height="90.474" viewBox="0 0 90.474 90.474">
  <g id="QII_5_icon07" transform="translate(-1415 -211.5)">
    <path id="Path_216779" data-name="Path 216779" d="M1464.976,301.974H1455.5a5.746,5.746,0,0,1-5.74-5.74v-.968a3.75,3.75,0,0,0-2.5-3.519c-.873-.324-1.743-.685-2.586-1.073a3.9,3.9,0,0,0-1.641-.362,3.684,3.684,0,0,0-2.626,1.079l-.686.686a5.74,5.74,0,0,1-8.117,0l-6.7-6.7a5.747,5.747,0,0,1,0-8.117l.686-.686a3.753,3.753,0,0,0,.717-4.266c-.388-.844-.749-1.714-1.073-2.586a3.75,3.75,0,0,0-3.519-2.5h-.968a5.746,5.746,0,0,1-5.74-5.74V252a5.746,5.746,0,0,1,5.74-5.74h.968a3.75,3.75,0,0,0,3.519-2.5c.324-.872.685-1.742,1.073-2.586a3.753,3.753,0,0,0-.717-4.266l-.686-.686a5.747,5.747,0,0,1,0-8.117l6.7-6.7a5.74,5.74,0,0,1,8.117,0l.686.686a3.684,3.684,0,0,0,2.626,1.079,3.9,3.9,0,0,0,1.64-.362c.843-.388,1.713-.749,2.586-1.073a3.75,3.75,0,0,0,2.5-3.519v-.968a5.746,5.746,0,0,1,5.74-5.74h9.479a5.746,5.746,0,0,1,5.74,5.74v.968a3.75,3.75,0,0,0,2.5,3.519c.872.324,1.742.685,2.586,1.073a3.9,3.9,0,0,0,1.64.362,3.685,3.685,0,0,0,2.626-1.079l.686-.686a5.74,5.74,0,0,1,8.117,0l6.7,6.7a5.746,5.746,0,0,1,0,8.117l-.686.686a3.753,3.753,0,0,0-.717,4.266c.388.844.749,1.714,1.073,2.586a3.75,3.75,0,0,0,3.519,2.5h.968a5.746,5.746,0,0,1,5.74,5.74v9.479a5.746,5.746,0,0,1-5.74,5.74h-.968a3.75,3.75,0,0,0-3.519,2.5c-.324.872-.685,1.742-1.073,2.586a3.753,3.753,0,0,0,.717,4.266l.686.686a5.74,5.74,0,0,1,0,8.117l-6.7,6.7a5.74,5.74,0,0,1-8.117,0l-.686-.686a3.684,3.684,0,0,0-2.626-1.079,3.9,3.9,0,0,0-1.64.362c-.845.388-1.715.749-2.586,1.073a3.75,3.75,0,0,0-2.5,3.519v.968A5.746,5.746,0,0,1,1464.976,301.974Zm-21.947-13.663a5.886,5.886,0,0,1,2.476.545c.8.367,1.621.708,2.447,1.015a5.863,5.863,0,0,1,2.747,2.1,5.653,5.653,0,0,1,1.058,3.3v.968a3.744,3.744,0,0,0,3.74,3.74h9.479a3.744,3.744,0,0,0,3.74-3.74v-.968a5.653,5.653,0,0,1,1.058-3.3,5.863,5.863,0,0,1,2.748-2.1c.824-.306,1.647-.648,2.447-1.015a5.885,5.885,0,0,1,2.476-.545,5.671,5.671,0,0,1,4.04,1.665l.686.686a3.74,3.74,0,0,0,5.289,0l6.7-6.7a3.74,3.74,0,0,0,0-5.289l-.686-.686a5.652,5.652,0,0,1-1.586-3.087,5.871,5.871,0,0,1,.466-3.429c.367-.8.709-1.622,1.015-2.447a5.864,5.864,0,0,1,2.1-2.747,5.653,5.653,0,0,1,3.3-1.058h.968a3.744,3.744,0,0,0,3.74-3.74V252a3.744,3.744,0,0,0-3.74-3.74h-.968a5.653,5.653,0,0,1-3.3-1.058,5.865,5.865,0,0,1-2.1-2.748c-.306-.825-.648-1.648-1.015-2.447a5.87,5.87,0,0,1-.466-3.429,5.652,5.652,0,0,1,1.586-3.087l.685-.686a3.744,3.744,0,0,0,0-5.289l-6.7-6.7a3.74,3.74,0,0,0-5.289,0l-.686.686a5.672,5.672,0,0,1-4.04,1.665,5.887,5.887,0,0,1-2.476-.545c-.8-.367-1.622-.709-2.447-1.015a5.863,5.863,0,0,1-2.747-2.1,5.653,5.653,0,0,1-1.058-3.3v-.968a3.744,3.744,0,0,0-3.74-3.74H1455.5a3.744,3.744,0,0,0-3.74,3.74v.968a5.653,5.653,0,0,1-1.058,3.3,5.863,5.863,0,0,1-2.748,2.1c-.826.307-1.649.648-2.447,1.015a5.888,5.888,0,0,1-2.476.545,5.671,5.671,0,0,1-4.04-1.665l-.686-.686a3.74,3.74,0,0,0-5.289,0l-6.7,6.7a3.744,3.744,0,0,0,0,5.289l.686.686a5.653,5.653,0,0,1,1.586,3.087,5.871,5.871,0,0,1-.466,3.429c-.367.8-.709,1.622-1.016,2.447a5.864,5.864,0,0,1-2.1,2.747,5.653,5.653,0,0,1-3.3,1.058h-.968A3.744,3.744,0,0,0,1417,252v9.479a3.744,3.744,0,0,0,3.74,3.74h.968a5.653,5.653,0,0,1,3.3,1.058,5.864,5.864,0,0,1,2.1,2.748c.307.825.648,1.648,1.015,2.447a5.871,5.871,0,0,1,.466,3.429,5.653,5.653,0,0,1-1.586,3.087l-.686.686a3.744,3.744,0,0,0,0,5.289l6.7,6.7a3.74,3.74,0,0,0,5.289,0l.686-.686A5.671,5.671,0,0,1,1443.03,288.311Z" transform="translate(0 0)" fill="#222831"/>
    <g id="Group_271095" data-name="Group 271095" transform="translate(1432.336 239.358)">
      <path id="Path_216780" data-name="Path 216780" d="M1595.74,345.139a5.746,5.746,0,0,1-5.74-5.74v-3.16a5.74,5.74,0,1,1,11.479,0v3.16A5.746,5.746,0,0,1,1595.74,345.139Zm0-12.639a3.744,3.744,0,0,0-3.74,3.74v3.16a3.74,3.74,0,1,0,7.479,0v-3.16A3.744,3.744,0,0,0,1595.74,332.5Z" transform="translate(-1567.839 -331.5)" fill="#222831"/>
      <path id="Path_216781" data-name="Path 216781" d="M1581.278,429.139a1,1,0,0,1-1-1v-3.16a8.489,8.489,0,0,0-8.479-8.479h-6.32a8.489,8.489,0,0,0-8.479,8.479v3.16a1,1,0,0,1-2,0v-3.16a10.491,10.491,0,0,1,10.479-10.479h6.32a10.491,10.491,0,0,1,10.479,10.479v3.16A1,1,0,0,1,1581.278,429.139Z" transform="translate(-1540.738 -396.541)" fill="#222831"/>
      <path id="Path_216782" data-name="Path 216782" d="M1665.74,359.139a5.746,5.746,0,0,1-5.74-5.74v-3.16a5.74,5.74,0,1,1,11.479,0v3.16A5.746,5.746,0,0,1,1665.74,359.139Zm0-12.639a3.744,3.744,0,0,0-3.74,3.74v3.16a3.74,3.74,0,1,0,7.479,0v-3.16A3.744,3.744,0,0,0,1665.74,346.5Z" transform="translate(-1622.04 -342.34)" fill="#222831"/>
      <path id="Path_216783" data-name="Path 216783" d="M1700.389,436.836a1,1,0,0,1-.943-.668,8.492,8.492,0,0,0-8-5.667h-1.327a1,1,0,0,1,0-2h1.327a10.5,10.5,0,0,1,9.885,7,1,1,0,0,1-.943,1.332Z" transform="translate(-1644.588 -407.382)" fill="#222831"/>
      <path id="Path_216784" data-name="Path 216784" d="M1525.74,359.139a5.746,5.746,0,0,1-5.74-5.74v-3.16a5.74,5.74,0,1,1,11.479,0v3.16A5.746,5.746,0,0,1,1525.74,359.139Zm0-12.639a3.744,3.744,0,0,0-3.74,3.74v3.16a3.74,3.74,0,1,0,7.479,0v-3.16A3.744,3.744,0,0,0,1525.74,346.5Z" transform="translate(-1513.638 -342.34)" fill="#222831"/>
      <path id="Path_216785" data-name="Path 216785" d="M1488.38,436.836a1,1,0,0,1-.943-1.332,10.5,10.5,0,0,1,9.885-7h1.327a1,1,0,0,1,0,2h-1.327a8.492,8.492,0,0,0-8,5.667A1,1,0,0,1,1488.38,436.836Z" transform="translate(-1488.38 -407.382)" fill="#222831"/>
    </g>
  </g>
</svg>
