<svg xmlns="http://www.w3.org/2000/svg" width="143.036" height="145.84" viewBox="0 0 143.036 145.84">
  <g id="QII_5_icon06" transform="translate(-1295.547 -1344.461)">
    <path id="Path_217196" data-name="Path 217196" d="M293.951,503.237c4.989-.605,10.505.812,14.063,4.459,4.242,4.348,3.939,8.888,3.94,14.445v11.541l0,17.057c0,3.068.035,6.125-.051,9.195-.062,2.173-1.691,4.37-1.706,5.94-.039,4.253-.021,8.561-.021,12.816l.005,23.3c0,4.248.061,8.669-.024,12.906-1.388,2.039-3.374,1.5-5.62,1.5l-7.126-.016-13.083.009c-2.312,0-4.632.024-6.942-.023a2.606,2.606,0,0,1-2.334-2.21,13.287,13.287,0,0,1-.13-2.817c-.064-3.9,1.827-6.84,5.781-7.719l-.112-63.776q-.473.177-.947.346c-2.586.917-4.561.711-7.247.761l-8.078.174c-1.736.04-3.46.078-5.186.281a41.383,41.383,0,0,1-6.184-.053l-8.71-.214c-3.01-.057-6.135-.051-9.143-.316a4.82,4.82,0,0,1-1.751-.57l-.006,63.214c4.276,1.04,6,3.47,6.093,7.887.041,2.033.207,4.874-2.6,4.989-2.146.089-4.336.049-6.5.048l-13.217-.006-9.086.013c-1.535.005-4.552.241-4.632-2.02-.071-2.012-.032-4.073-.031-6.09l0-12.058,0-38.492c-4.754-2.24-8.412-7.823-11.984-11.525a47.64,47.64,0,0,0-3.577,9.1c-.5,1.862-.759,3.542-3.2,3.169-6.97-1.067-12.628-6.749-14.87-13.261a4.376,4.376,0,0,1-.294-1.932c.038-.469.494-1.369.948-1.485,3.949-1,8.331-1.82,11.565-4.505-1.449-1.577-2.321-1.8-3.235-4.042.582-2.8,3.465-4.97,5.733-6.447,1.951-1.272,2.712.436,3.83,1.745.606.71,1.19,1.526,1.759,2.278.675-.256,1.525-.7,2.178-1.032,1.881.964,3.656,3.167,4.916,4.847,1.738,2.318,1.733,2.527-.268,4.684a53.282,53.282,0,0,1,6.151,4.6c-.071-5.31.1-10.771.028-16.11.2-3.7-.287-7.616.069-11.3,1.029-10.635,9.116-13.844,18.322-13.094a13.9,13.9,0,0,1,10.951,6.954c.624,1.083,1.749,3.79,2.337,5.072q1.938,4.249,3.926,8.474a22.642,22.642,0,0,0,1.736,3.678c.634.627,14.92.579,16.9.627,1.307.032,2.612.226,3.92.2,3.735-.065,8.013-.23,11.728-.544a3.6,3.6,0,0,0,1.478-.34c1.344-.755,5.043-4.954,6.178-6.286-.032-5.093-.231-8.859,3.306-13.082A14.1,14.1,0,0,1,293.951,503.237Z" transform="translate(1126.37 873.617)" fill="#1e1d1d" stroke="#fff" stroke-width="0.5"/>
    <path id="Path_217197" data-name="Path 217197" d="M532.046,532.7c.564-.069,1.676-.048,2.276-.059,2.676-.046,4.655-.085,7.138,1.134a11.318,11.318,0,0,1,4.1,3.394,27.158,27.158,0,0,1,2.573,4.882l2.539,5.544c1.087,2.385,2.849,5.921,3.665,8.306,2.2,1.286,3.841,1.122,6.272,1.231q3.791.181,7.588.179c1.634.009,3.508-.042,5.108.086,1.606.169,3.514.142,4.607,1.538a3.869,3.869,0,0,1-.173,4.718,4.8,4.8,0,0,1-3.385,1.589c-1.879.083-3.781-.1-5.671-.122l-11.192-.214a33.5,33.5,0,0,1-5.685-.264c-3.615-.734-5.593-4.724-7.4-7.572l-4.436-6.949c-.665-.946-2.2-4.392-3.692-2.832a1.737,1.737,0,0,0,.027,2.131c2.449,3.881,4.963,7.726,7.422,11.6a18.268,18.268,0,0,0,3.213,4.124l.021,14.521c-5.34-.061-10.764.028-16.112-.007a80.932,80.932,0,0,0-8.812.168l0-25.744-.005-7.115c0-1.12,0-2.256.027-3.353a11.321,11.321,0,0,1,5.663-9.565A11.173,11.173,0,0,1,532.046,532.7Z" transform="translate(810.085 847.133)" fill="#fff" stroke="#fff" stroke-width="0.5"/>
    <path id="Path_217198" data-name="Path 217198" d="M524.01,1016l24.7,0,0,37.5-.007,8.3c0,5.342-.2,3.475,4.142,4.945a4,4,0,0,1,1.837,2.368c.208.822.416,3.846.024,4.563-.929.447-9.548.252-11.164.248.038-4.92.217-8.4-5.31-10.136l0-28.478.006-6.8c0-.831.049-2.463-.01-3.242a1.3,1.3,0,0,0-.214-.625,1.276,1.276,0,0,0-.867-.546,1.494,1.494,0,0,0-1.29.425c-.353,1.241-.22,10.427-.22,12.335l.013,28.416c1.437,1.54,2.7.794,4.287,2.494,1.477,1.584,1.159,4.089,1.12,6.142-.832.021-1.675.028-2.507.018-4.834-.052-9.711.095-14.54-.033Z" transform="translate(808.305 413.543)" fill="#fff" stroke="#fff" stroke-width="0.5"/>
    <path id="Path_217199" data-name="Path 217199" d="M1286.016,529.919c3.764-.294,8.44.534,11.253,3.241,2.484,2.391,3.309,5.139,3.333,8.509.024,3.286.021,6.567.021,9.852l.005,17.915,0,9.831c0,2.965.483,6.343-1.753,8.612a6.463,6.463,0,0,1-4.68,1.942c-8.023-.288-7.005-9.1-7.006-14.745l.005-14.869.006-9.547c0-.847.055-3.738-.081-4.406a1.181,1.181,0,0,0-.535-.759c-.665-.41-1.918-.211-1.995.711-.155,1.865-.068,3.848-.067,5.739l.006,15.868c0,1.351.188,8.346-.311,9.28a24.5,24.5,0,0,1-3.456.1q-3.018,0-6.039-.035c.112-8.707-.1-17.417-.11-26.125l-.008-5.962c-.006-4.227,0-8.09,3.059-11.475C1280.051,530.96,1282.544,530.133,1286.016,529.919Z" transform="translate(135.015 849.612)" fill="#fff" stroke="#fff" stroke-width="0.5"/>
    <path id="Path_217200" data-name="Path 217200" d="M1224.472,1016.031h9.759c-.014,2.743.144,5.449,1.492,7.9,2.761,5.028,8.191,6.1,13.044,3.562.127,6.7.023,13.715.024,20.437,0,8.613.075,17.343-.018,25.948-1.074.144-15.39.17-15.98-.025-.424-.522-.3-2.687-.242-3.378a4.878,4.878,0,0,1,3.734-4.173c2.361-.489,1.823-2.186,1.814-4.33l-.019-4.763-.023-17.547.006-6.975c0-1.144.029-2.351-.046-3.494a1.248,1.248,0,0,0-1.28-1.253c-.995,0-1.368.72-1.388,1.628-.039,1.662-.015,3.32-.01,4.979l.044,9.17c.076,6.677.024,13.442.024,20.126a8.39,8.39,0,0,0-3.025,1.606c-2.815,2.524-2.188,5.224-2.4,8.449-.132.012-.668.061-.758.055-1.31-.084-9.984.243-10.481-.219a11.841,11.841,0,0,1-.109-3.332c.214-4.656,4.4-3.542,5.575-4.752a1.03,1.03,0,0,0,.295-.665c.093-1.507-.029-3.1-.029-4.617l0-10.834Z" transform="translate(185.277 413.516)" fill="#fff" stroke="#fff" stroke-width="0.5"/>
    <path id="Path_217201" data-name="Path 217201" d="M217.13,794.005q1.777,1.791,3.53,3.6c-1.384,1.659-2.7,2.888-4.114,4.716a38.886,38.886,0,0,0-6.523,14.407c-3.054-.868-3.756-.759-6.432-2.662-3.028-2.274-4.73-5.464-6.2-8.859,2.439-.808,5.027-1.169,7.4-2.258,2.995-1.376,5.11-3.584,7.62-5.594C213.839,796.218,215.605,795.052,217.13,794.005Z" transform="translate(1101.281 612.674)" fill="#fff" stroke="#fff" stroke-width="0.5"/>
    <path id="Path_217202" data-name="Path 217202" d="M1104.02,721.877c.3.43-.06,8.234.141,9.547.039.256.047,1.152.046,1.463-3.044,2.128-7.653,1.589-11.2,1.661a43.908,43.908,0,0,1-5.188.008l.034-.227c1.133-3.06.875-4.286-.319-7.226,3.311-.341,7.1-.037,10.425-.505C1100.324,726.263,1102.267,723.482,1104.02,721.877Z" transform="translate(302.822 677.374)" fill="#fff" stroke="#fff" stroke-width="0.5"/>
    <path id="Path_217203" data-name="Path 217203" d="M400.187,872.491c1.287.562,6.527,5.963,7.427,7.466.513.856.368,4.279.353,5.555l-1.294-.955a77.031,77.031,0,0,1-8.93-9.446A35.633,35.633,0,0,1,400.187,872.491Z" transform="translate(921.568 542.271)" fill="#fff" stroke="#fff" stroke-width="0.5"/>
    <path id="Path_217204" data-name="Path 217204" d="M290.776,760.646a9.224,9.224,0,0,1,2.924,2.747,36.59,36.59,0,0,1-3.769,2.974l-.355.052A4.8,4.8,0,0,1,287,763.9,19.383,19.383,0,0,1,290.776,760.646Z" transform="translate(1020.906 642.598)" fill="#fff" stroke="#fff" stroke-width="0.5"/>
    <path id="Path_217205" data-name="Path 217205" d="M516.678,192.36A15,15,0,1,1,502.4,208.027,15,15,0,0,1,516.678,192.36Z" transform="translate(827.701 1152.37)" fill="#1e1d1d" stroke="#fff" stroke-width="0.5"/>
    <path id="Path_217206" data-name="Path 217206" d="M542.093,220.7a12.129,12.129,0,1,1-11.931,12.408A12.128,12.128,0,0,1,542.093,220.7Z" transform="translate(802.788 1126.934)" fill="#fff" stroke="#fff" stroke-width="0.5"/>
    <path id="Path_217207" data-name="Path 217207" d="M1265.085,192.461a14.973,14.973,0,1,1-14.422,15.472A14.972,14.972,0,0,1,1265.085,192.461Z" transform="translate(156.498 1152.273)" fill="#1e1d1d" stroke="#fff" stroke-width="0.5"/>
    <path id="Path_217208" data-name="Path 217208" d="M1289.318,220.822a12.106,12.106,0,1,1-10.651,13.353A12.106,12.106,0,0,1,1289.318,220.822Z" transform="translate(131.437 1126.896)" fill="#fff" stroke="#fff" stroke-width="0.5"/>
  </g>
</svg>
