<svg xmlns="http://www.w3.org/2000/svg" width="109.622" height="109.622" viewBox="0 0 109.622 109.622">
  <g id="QII_5_icon01" transform="translate(-1415 -211.5)">
    <path id="Path_216779" data-name="Path 216779" d="M1475.576,321.122h-11.531a6.773,6.773,0,0,1-6.766-6.765v-1.178a4.776,4.776,0,0,0-3.184-4.484c-1.056-.392-2.109-.829-3.13-1.3a4.96,4.96,0,0,0-2.086-.46,4.7,4.7,0,0,0-3.347,1.375l-.834.834a6.765,6.765,0,0,1-9.568,0l-8.154-8.153a6.773,6.773,0,0,1,0-9.568l.834-.834a4.78,4.78,0,0,0,.915-5.433c-.47-1.021-.907-2.075-1.3-3.13a4.776,4.776,0,0,0-4.484-3.184h-1.178a6.773,6.773,0,0,1-6.765-6.765V260.545a6.773,6.773,0,0,1,6.765-6.765h1.178a4.776,4.776,0,0,0,4.484-3.184c.392-1.056.83-2.109,1.3-3.131a4.78,4.78,0,0,0-.916-5.433l-.834-.834a6.773,6.773,0,0,1,0-9.568l8.154-8.153a6.766,6.766,0,0,1,9.568,0l.834.834a4.7,4.7,0,0,0,3.347,1.376,4.96,4.96,0,0,0,2.086-.46c1.021-.469,2.074-.907,3.131-1.3a4.776,4.776,0,0,0,3.184-4.484v-1.178a6.773,6.773,0,0,1,6.766-6.765h11.531a6.773,6.773,0,0,1,6.766,6.765v1.178a4.776,4.776,0,0,0,3.184,4.484c1.056.392,2.11.83,3.131,1.3a4.959,4.959,0,0,0,2.086.46,4.7,4.7,0,0,0,3.347-1.376l.834-.834a6.766,6.766,0,0,1,9.568,0l8.153,8.153a6.766,6.766,0,0,1,0,9.568l-.834.834a4.78,4.78,0,0,0-.915,5.433c.47,1.022.907,2.075,1.3,3.131a4.776,4.776,0,0,0,4.484,3.184h1.178a6.773,6.773,0,0,1,6.766,6.765v11.531a6.773,6.773,0,0,1-6.766,6.765h-1.178a4.776,4.776,0,0,0-4.484,3.184c-.392,1.055-.829,2.108-1.3,3.131a4.779,4.779,0,0,0,.915,5.433l.834.834a6.766,6.766,0,0,1,0,9.568l-8.153,8.153a6.766,6.766,0,0,1-9.568,0l-.834-.834a4.7,4.7,0,0,0-3.347-1.375,4.958,4.958,0,0,0-2.086.46c-1.023.47-2.076.907-3.131,1.3a4.776,4.776,0,0,0-3.184,4.484v1.178A6.773,6.773,0,0,1,1475.576,321.122Zm-26.7-16.187a6.946,6.946,0,0,1,2.922.643c.976.449,1.982.866,2.991,1.241a6.917,6.917,0,0,1,3.241,2.472,6.662,6.662,0,0,1,1.246,3.887v1.178a4.771,4.771,0,0,0,4.766,4.765h11.531a4.771,4.771,0,0,0,4.766-4.765v-1.178a6.662,6.662,0,0,1,1.246-3.887,6.917,6.917,0,0,1,3.241-2.472c1.008-.374,2.014-.792,2.991-1.241a6.943,6.943,0,0,1,2.921-.643,6.684,6.684,0,0,1,4.761,1.961l.834.834a4.766,4.766,0,0,0,6.739,0l8.153-8.153a4.765,4.765,0,0,0,0-6.74L1510.4,292a6.661,6.661,0,0,1-1.869-3.637,6.926,6.926,0,0,1,.551-4.046c.449-.977.867-1.983,1.241-2.991a6.917,6.917,0,0,1,2.471-3.241,6.661,6.661,0,0,1,3.887-1.247h1.178a4.771,4.771,0,0,0,4.766-4.765V260.545a4.771,4.771,0,0,0-4.766-4.765h-1.178a12.306,12.306,0,0,1-3.887-1.246,6.917,6.917,0,0,1-2.472-3.241c-.374-1.008-.792-2.015-1.241-2.991a6.927,6.927,0,0,1-.551-4.046,6.661,6.661,0,0,1,1.869-3.637l.834-.834a4.765,4.765,0,0,0,0-6.74l-8.153-8.153a4.766,4.766,0,0,0-6.739,0l-.834.834a6.684,6.684,0,0,1-4.761,1.961,6.946,6.946,0,0,1-2.921-.643c-.976-.449-1.982-.866-2.991-1.241a6.917,6.917,0,0,1-3.241-2.472,6.661,6.661,0,0,1-1.246-3.887v-1.178a4.771,4.771,0,0,0-4.766-4.765h-11.531a4.771,4.771,0,0,0-4.766,4.765v1.178a6.661,6.661,0,0,1-1.246,3.887,6.916,6.916,0,0,1-3.241,2.472c-1.01.375-2.016.793-2.991,1.241a6.947,6.947,0,0,1-2.921.643,6.684,6.684,0,0,1-4.761-1.961l-.834-.834a4.765,4.765,0,0,0-6.739,0l-8.154,8.153a4.771,4.771,0,0,0,0,6.739l.834.834a6.661,6.661,0,0,1,1.869,3.637,6.926,6.926,0,0,1-.55,4.046c-.449.976-.867,1.982-1.242,2.991a6.917,6.917,0,0,1-2.471,3.241,6.661,6.661,0,0,1-3.887,1.246h-1.178a4.771,4.771,0,0,0-4.765,4.765v11.531a4.771,4.771,0,0,0,4.765,4.765h1.178a6.661,6.661,0,0,1,3.887,1.247,6.917,6.917,0,0,1,2.472,3.241c.375,1.009.792,2.015,1.241,2.991a6.926,6.926,0,0,1,.55,4.046,6.661,6.661,0,0,1-1.869,3.637l-.834.834a4.771,4.771,0,0,0,0,6.74l8.154,8.153a4.765,4.765,0,0,0,6.739,0l.834-.834A6.684,6.684,0,0,1,1448.879,304.935Z" fill="#222831"/>
    <g id="Group_271095" data-name="Group 271095" transform="translate(1435.872 245.171)">
      <path id="Path_216780" data-name="Path 216780" d="M1596.765,347.875a6.773,6.773,0,0,1-6.765-6.765v-3.844a6.765,6.765,0,1,1,13.531,0v3.844A6.773,6.773,0,0,1,1596.765,347.875Zm0-15.375a4.771,4.771,0,0,0-4.765,4.765v3.844a4.765,4.765,0,1,0,9.531,0v-3.844A4.771,4.771,0,0,0,1596.765,332.5Z" transform="translate(-1562.826 -331.5)" fill="#222831"/>
      <path id="Path_216781" data-name="Path 216781" d="M1586.749,431.874a1,1,0,0,1-1-1v-3.844a10.543,10.543,0,0,0-10.531-10.531h-7.687A10.543,10.543,0,0,0,1557,427.031v3.844a1,1,0,0,1-2,0v-3.844a12.531,12.531,0,0,1,12.531-12.531h7.687a12.531,12.531,0,0,1,12.531,12.531v3.844A1,1,0,0,1,1586.749,431.874Z" transform="translate(-1537.435 -392.438)" fill="#222831"/>
      <path id="Path_216782" data-name="Path 216782" d="M1666.766,361.875a6.773,6.773,0,0,1-6.766-6.766v-3.844a6.766,6.766,0,0,1,13.531,0v3.844A6.773,6.773,0,0,1,1666.766,361.875Zm0-15.375a4.771,4.771,0,0,0-4.766,4.765v3.844a4.766,4.766,0,1,0,9.531,0v-3.844A4.771,4.771,0,0,0,1666.766,346.5Z" transform="translate(-1613.608 -341.656)" fill="#222831"/>
      <path id="Path_216783" data-name="Path 216783" d="M1702.612,438.207a1,1,0,0,1-.943-.668,10.548,10.548,0,0,0-9.934-7.038h-1.614a1,1,0,0,1,0-2h1.614a12.55,12.55,0,0,1,11.821,8.374,1,1,0,0,1-.943,1.332Z" transform="translate(-1634.733 -402.595)" fill="#222831"/>
      <path id="Path_216784" data-name="Path 216784" d="M1526.766,361.875a6.773,6.773,0,0,1-6.766-6.766v-3.844a6.765,6.765,0,1,1,13.531,0v3.844A6.773,6.773,0,0,1,1526.766,361.875Zm0-15.375a4.771,4.771,0,0,0-4.766,4.765v3.844a4.765,4.765,0,1,0,9.531,0v-3.844A4.771,4.771,0,0,0,1526.766,346.5Z" transform="translate(-1512.044 -341.656)" fill="#222831"/>
      <path id="Path_216785" data-name="Path 216785" d="M1488.38,438.207a1,1,0,0,1-.943-1.332,12.55,12.55,0,0,1,11.821-8.374h1.614a1,1,0,0,1,0,2h-1.614a10.548,10.548,0,0,0-9.934,7.038A1,1,0,0,1,1488.38,438.207Z" transform="translate(-1488.38 -402.595)" fill="#222831"/>
    </g>
  </g>
</svg>
