<?xml version="1.0" encoding="UTF-8"?>
<!-- Generator: Adobe Illustrator 22.0.1, SVG Export Plug-In . SVG Version: 6.00 Build 0) -->
<svg xmlns="http://www.w3.org/2000/svg" xmlns:xlink="http://www.w3.org/1999/xlink" version="1.1" id="Layer_1" x="0px" y="0px" viewBox="0 0 587.6 96.3" style="enable-background:new 0 0 587.6 96.3;" xml:space="preserve"> <style type="text/css"> .st0{fill:#FFFFFF;stroke:#000000;stroke-miterlimit:10;} .st1{fill:#FF0000;} </style> <title>jcoflag</title> <rect x="1.5" y="1.5" class="st0" width="133.1" height="88.7"/> <circle class="st1" cx="68" cy="45.9" r="26.1"/> <path d="M184.1,81.8c0,2.6,0,4.7,0.1,5.9c0.1,0.8,0.2,1.4,1.1,1.5c0.4,0.1,0.8,0.1,1.3,0.1c0.2,0,0.2,0.1,0.2,0.2s-0.1,0.2-0.4,0.2 c-1.5,0-3.3-0.1-3.4-0.1s-1.9,0.1-2.7,0.1c-0.3,0-0.4-0.1-0.4-0.2s0.1-0.2,0.2-0.2c0.3,0,0.6,0,0.8-0.1c0.6-0.1,0.7-0.7,0.8-1.5 c0.1-1.1,0.1-3.3,0.1-5.9V70.4h-4.1c-1.7,0-2.4,0.2-2.8,0.9c-0.2,0.3-0.3,0.5-0.5,0.8c-0.1,0.2-0.2,0.3-0.3,0.3s-0.1-0.1-0.1-0.2 s0.6-2.6,0.6-2.8s0.2-0.5,0.3-0.5c0.4,0.2,0.8,0.3,1.2,0.3c0.8,0.1,1.9,0.1,2.2,0.1h10.4c0.7,0,1.3,0,2-0.1c0.4-0.1,0.7-0.1,0.8-0.1 s0.1,0.2,0.1,0.3c0,0.8-0.1,2.7-0.1,3s-0.1,0.3-0.2,0.3s-0.2-0.1-0.2-0.5v-0.3c-0.1-0.8-0.8-1.4-3.4-1.5h-3.5L184.1,81.8z"/> <path d="M211.2,83c0,2.2,0,4,0.1,5c0.1,0.7,0.1,1.1,0.9,1.2c0.4,0.1,0.7,0.1,1.1,0.1c0.1,0,0.2,0.1,0.2,0.2c0,0,0,0,0,0 c0,0.1-0.1,0.2-0.4,0.2c-1.3,0-2.9-0.1-3-0.1s-1.7,0.1-2.4,0.1c-0.3,0-0.4-0.1-0.4-0.2c0-0.1,0.1-0.2,0.2-0.2c0,0,0,0,0,0 c0.2,0,0.5,0,0.7-0.1c0.5-0.1,0.6-0.6,0.7-1.2c0.1-0.9,0.1-2.7,0.1-4.9v-2.4c0-0.1,0-0.1-0.1-0.1h-10.2c-0.1,0-0.1,0-0.1,0.1V83 c0,2.2,0,4,0.1,4.9c0.1,0.7,0.2,1.1,0.9,1.2c0.4,0.1,0.7,0.1,1.1,0.1c0.1,0,0.2,0.1,0.2,0.2c0,0,0,0,0,0c0,0.1-0.1,0.2-0.4,0.2 c-1.4,0-2.9-0.1-3-0.1s-1.7,0.1-2.4,0.1c-0.2,0-0.4-0.1-0.4-0.2c0-0.1,0.1-0.2,0.2-0.2l0,0c0.3,0,0.5,0,0.8-0.1 c0.5-0.1,0.5-0.5,0.6-1.2c0.1-1.7,0.2-3.3,0.1-5v-4c0-3.6,0-4.2-0.1-5s-0.2-1.2-1-1.3c-0.3,0-0.6-0.1-0.8-0.1 c-0.1,0-0.2-0.1-0.2-0.2c0-0.1,0.1-0.2,0.4-0.2c1.1,0,2.7,0.1,2.8,0.1s1.7-0.1,2.4-0.1c0.3,0,0.4,0.1,0.4,0.2c0,0.1-0.1,0.2-0.2,0.2 c-0.2,0-0.4,0-0.6,0.1c-0.7,0.1-0.8,0.4-0.9,1.3s0,1.4,0,5v0.5c0,0.1,0.1,0.1,0.1,0.1h10.2c0.1,0,0.1,0,0.1-0.1V79c0-3.6,0-4.3,0-5 s-0.2-1.2-1-1.3c-0.3,0-0.6-0.1-0.8-0.1c-0.1,0-0.2-0.1-0.2-0.2c0-0.1,0.1-0.2,0.4-0.2c1.1,0,2.7,0.1,2.8,0.1s1.7-0.1,2.4-0.1 c0.3,0,0.4,0.1,0.4,0.2c0,0.1-0.1,0.2-0.2,0.2c-0.2,0-0.4,0-0.6,0.1c-0.6,0.1-0.8,0.4-0.8,1.3s0,1.4,0,5L211.2,83z"/> <path d="M219.2,78.9c0-3.6,0-4.2-0.1-5s-0.2-1.2-1-1.3c-0.3,0-0.6-0.1-0.8-0.1c-0.1,0-0.2-0.1-0.2-0.2c0-0.1,0.1-0.2,0.4-0.2 c1.1,0,2.7,0.1,2.8,0.1s5.3,0,5.8,0s0.9-0.1,1.1-0.1c0.1-0.1,0.2-0.1,0.3-0.1c0.1,0,0.1,0.1,0.1,0.2c-0.1,0.4-0.1,0.7-0.2,1.1 c0,0.2-0.1,1.2-0.1,1.5c0,0.1-0.1,0.2-0.2,0.2S227,75,227,74.8c0-0.3,0-0.5-0.1-0.8c-0.2-0.4-0.4-0.5-1.8-0.7 c-0.4-0.1-3.3-0.1-3.5-0.1c-0.1,0-0.1,0.1-0.1,0.2v6.2c0,0.2,0,0.2,0.1,0.2c0.3,0,3.5,0,4.1,0s0.9-0.1,1.2-0.3s0.3-0.3,0.4-0.3 s0.1,0,0.1,0.2c-0.1,0.4-0.1,0.8-0.2,1.3c-0.1,0.5-0.1,1.3-0.1,1.5s-0.1,0.4-0.2,0.4s-0.2-0.1-0.2-0.2c0-0.3,0-0.5-0.1-0.8 c-0.1-0.3-0.3-0.6-1.3-0.7c-0.7-0.1-3.3-0.1-3.7-0.1c-0.1,0-0.2,0.1-0.2,0.2v2c0,0.8,0,3.5,0,3.9c0.1,1.5,0.5,1.8,2.9,1.8 c0.8,0,1.6,0,2.4-0.2c0.7-0.3,1.1-0.9,1.1-1.6c0-0.3,0.1-0.3,0.2-0.3s0.2,0.2,0.2,0.3c-0.1,0.7-0.2,1.5-0.3,2.2 c-0.2,0.6-0.4,0.6-1.4,0.6c-1.8,0-3.3-0.1-4.3-0.1s-1.7,0-2,0c-0.1,0-0.5,0-1.1,0s-1,0.1-1.4,0.1s-0.4-0.1-0.4-0.2 c0-0.1,0.1-0.2,0.2-0.2c0,0,0,0,0,0c0.3,0,0.5-0.1,0.8-0.1c0.5-0.1,0.5-0.5,0.6-1.2c0.1-1.7,0.2-3.3,0.1-5L219.2,78.9z"/> <path d="M258.6,82.7c0-2.2-0.1-2.5-1.2-2.8c-0.3-0.1-0.6-0.1-1-0.1c-0.1,0-0.2-0.1-0.2-0.2s0.1-0.2,0.5-0.2c1.2,0,3,0.1,3.1,0.1 s1.9-0.1,2.7-0.1c0.3,0,0.4,0.1,0.4,0.2s-0.1,0.2-0.2,0.2c-0.2,0-0.5,0-0.7,0.1c-0.8,0.1-1,0.6-1,1.5s-0.1,1.7-0.1,2.8v3 c0,1.2,0,1.3-0.4,1.5c-1.9,0.8-3.9,1.2-5.9,1.2c-2.1,0-6.1-0.3-9.2-2.9c-2.1-2-3.3-4.8-3.3-7.7c-0.1-3.6,1.6-7,4.6-8.9 c2.3-1.2,4.8-1.8,7.4-1.7c1.4,0,2.9,0.2,4.3,0.5c0.7,0.2,1.5,0.2,2.2,0.3c0.3,0,0.3,0.1,0.3,0.2c-0.1,1.3-0.2,2.6-0.2,3.8 c0,0.4-0.1,0.6-0.2,0.6s-0.2-0.2-0.2-0.4c-0.1-0.6-0.3-1.2-0.6-1.8c-0.7-1-3-2.2-6.5-2.2c-2.1-0.1-4.3,0.5-6,1.8 c-1.6,1.2-2.8,3.7-2.8,6.9c0,2.8,1.1,5.5,3,7.6c2,1.9,4.6,2.9,7.3,2.9c1.1,0,2.2-0.2,3.2-0.6c0.4-0.2,0.6-0.6,0.5-1V82.7z"/> <path d="M277.4,71.9c5.5,0,9.7,3.3,9.7,8.6c0,5.1-3.9,9.4-9.8,9.4c-6.7,0-9.6-4.9-9.6-9C267.6,77.2,270.6,71.9,277.4,71.9z M277.9,88.9c2.2,0,6.6-1.1,6.6-7.8c0-5.5-3.5-8.4-7.3-8.4c-4.1,0-7,2.5-7,7.5C270.2,85.6,273.5,89,277.9,88.9L277.9,88.9z"/> <path d="M297.7,86.6c1.4-3.1,4.6-10.9,5.1-12.6c0.1-0.3,0.2-0.6,0.2-0.9c0-0.2-0.1-0.4-0.3-0.5c-0.3-0.1-0.6-0.1-0.8-0.1 c-0.1,0-0.3-0.1-0.3-0.2s0.2-0.2,0.5-0.2c1,0,2.1,0.1,2.4,0.1c0.1,0,1.2-0.1,1.9-0.1c0.2,0,0.4,0.1,0.4,0.2s-0.1,0.2-0.3,0.2 c-0.4,0-0.8,0.1-1.2,0.3c-0.3,0.2-0.7,0.5-1.4,2.1c-0.3,0.7-1.5,3.4-2.7,6.2c-1.5,3.3-2.6,5.8-3.1,7c-0.7,1.4-0.8,1.7-1.1,1.7 s-0.5-0.3-0.9-1.4l-6-14.1c-0.6-1.3-0.9-1.5-1.7-1.7c-0.3-0.1-0.6-0.1-0.9-0.1c-0.1,0-0.2-0.1-0.2-0.2c0-0.1,0.2-0.2,0.6-0.2 c1.2,0,2.6,0.1,2.9,0.1s1.3-0.1,2.3-0.1c0.5,0,0.7,0.1,0.7,0.2c0,0.1-0.1,0.2-0.2,0.2c0,0,0,0,0,0c-0.3,0-0.6,0-0.9,0.1 c-0.2,0-0.3,0.2-0.3,0.4c0.2,0.7,0.4,1.3,0.7,1.9L297.7,86.6z"/> <path d="M311.1,78.9c0-3.6,0-4.2-0.1-5s-0.2-1.2-1-1.3c-0.3,0-0.6-0.1-0.8-0.1c-0.1,0-0.2-0.1-0.2-0.2c0-0.1,0.1-0.2,0.4-0.2 c1.1,0,2.7,0.1,2.8,0.1s5.3,0,5.8,0s0.9-0.1,1.1-0.1c0.1-0.1,0.2-0.1,0.3-0.1c0.1,0,0.1,0.1,0.1,0.2c-0.1,0.4-0.1,0.7-0.2,1.1 c0,0.2-0.1,1.2-0.1,1.5c0,0.1-0.1,0.2-0.2,0.2s-0.2-0.1-0.2-0.3c0-0.3,0-0.5-0.1-0.8c-0.2-0.4-0.4-0.5-1.8-0.7 c-0.4-0.1-3.3-0.1-3.5-0.1s-0.1,0.1-0.1,0.2v6.2c0,0.2,0,0.2,0.1,0.2c0.3,0,3.5,0,4.1,0s0.9-0.1,1.2-0.3s0.3-0.3,0.4-0.3 s0.1,0,0.1,0.2c-0.1,0.4-0.1,0.8-0.2,1.3c-0.1,0.5-0.1,1.3-0.1,1.5s-0.1,0.4-0.2,0.4s-0.2-0.1-0.2-0.2c0-0.3,0-0.5-0.1-0.8 c-0.1-0.3-0.3-0.6-1.3-0.7c-0.7-0.1-3.3-0.1-3.7-0.1c-0.1,0-0.2,0.1-0.2,0.2v2c0,0.8,0,3.5,0,3.9c0,1.5,0.5,1.8,2.9,1.8 c0.8,0,1.6,0,2.5-0.2c0.7-0.3,1.1-0.9,1.1-1.6c0-0.3,0.1-0.3,0.2-0.3s0.2,0.2,0.2,0.3c-0.1,0.7-0.2,1.5-0.3,2.2 c-0.2,0.6-0.4,0.6-1.4,0.6c-1.8,0-3.3-0.1-4.3-0.1s-1.7,0-2,0c0,0-0.5,0-1.1,0s-1,0.1-1.4,0.1s-0.4-0.1-0.4-0.2 c0-0.1,0.1-0.2,0.2-0.2c0,0,0,0,0,0c0.3,0,0.5-0.1,0.8-0.1c0.5-0.1,0.5-0.5,0.6-1.2c0.1-1.7,0.2-3.3,0.1-5L311.1,78.9z"/> <path d="M327.4,78.9c0-3.6,0-4.2-0.1-5s-0.2-1.2-1-1.3c-0.3,0-0.6-0.1-0.8-0.1c-0.1,0-0.2-0.1-0.2-0.2c0-0.1,0.1-0.2,0.4-0.2 c1.1,0,2.8,0.1,2.9,0.1s2.3-0.1,3.1-0.1c1.6-0.1,3.2,0.2,4.6,1c1,0.7,1.7,1.9,1.7,3.1c0,1.7-0.7,3.3-3,5.2c2,2.4,3.7,4.5,5.1,5.9 c0.7,0.8,1.7,1.4,2.7,1.6c0.3,0.1,0.6,0.1,0.9,0.1c0.1,0,0.2,0.1,0.2,0.2c0,0.1-0.1,0.2-0.6,0.2h-1.5c-0.9,0.1-1.8-0.1-2.6-0.5 c-1.1-0.5-2-1.7-3.3-3.4c-1-1.2-2.1-2.7-2.6-3.3c-0.1-0.1-0.2-0.2-0.3-0.1h-3.1c-0.1,0-0.2,0-0.2,0.2V83c0,2.2,0,4,0.1,4.9 c0.1,0.7,0.2,1.1,1,1.2c0.4,0.1,0.7,0.1,1.1,0.1c0.1,0,0.2,0,0.2,0.1c0,0,0,0,0,0.1c0,0.1-0.1,0.2-0.4,0.2c-1.3,0-2.9-0.1-3-0.1 s-1.7,0.1-2.4,0.1c-0.2,0-0.4-0.1-0.4-0.2c0-0.1,0.1-0.2,0.2-0.2c0,0,0,0,0,0c0.3,0,0.5,0,0.8-0.1c0.5-0.1,0.5-0.5,0.6-1.2 c0.1-1.7,0.2-3.3,0.1-5L327.4,78.9z M329.5,80.8c0,0.1,0.1,0.2,0.2,0.3c0.9,0.3,1.8,0.4,2.7,0.3c0.6,0,1.3-0.1,1.8-0.4 c1.1-0.8,1.6-2.2,1.5-3.5c0-2.9-1.6-4.5-4.2-4.5c-0.6,0-1.2,0-1.8,0.1c-0.1,0-0.2,0.1-0.2,0.3V80.8z"/> <path d="M348.8,86.5c0,1.9,0.3,2.5,1,2.6c0.4,0.1,0.8,0.1,1.2,0.1c0.1,0,0.2,0.1,0.2,0.2c0,0,0,0,0,0c0,0.1-0.2,0.2-0.4,0.2 c-1.4,0-2.4-0.1-2.6-0.1s-1.2,0.1-2.4,0.1c-0.2,0-0.4,0-0.4-0.2c0-0.1,0.1-0.2,0.2-0.2c0,0,0,0,0,0c0.3,0,0.7,0,1-0.1 c0.6-0.2,0.7-0.8,0.7-2.9V73.1c0-0.9,0.1-1.2,0.3-1.2s0.7,0.5,1,0.7s4,4.1,7.7,7.8c2.4,2.4,5,5.2,5.8,5.9l-0.2-11.5 c0-1.5-0.2-2-0.9-2.1c-0.4-0.1-0.8-0.1-1.2-0.1c-0.1,0-0.2-0.1-0.2-0.2c0,0,0,0,0,0c0-0.1,0.2-0.2,0.5-0.2c1.1,0,2.3,0.1,2.6,0.1 s1.1-0.1,2.1-0.1c0.2,0,0.5,0,0.5,0.2c0,0.1-0.2,0.2-0.3,0.2c-0.2,0-0.4,0-0.6,0.1c-0.8,0.2-0.9,0.6-0.9,2l0,13.5 c0,1.5,0,1.6-0.2,1.6s-0.5-0.2-1.9-1.4c-0.2-0.2-3.8-3.6-6.4-6.2c-2.8-2.9-5.6-5.7-6.3-6.5L348.8,86.5z"/> <path d="M388.5,86.7c0.1,0.8,0.2,2,1.3,2.4c0.5,0.2,1,0.2,1.6,0.2c0.1,0,0.2,0,0.2,0.2s-0.2,0.2-0.5,0.2c-0.6,0-3.3,0-4.2-0.1 c-0.6-0.1-0.7-0.1-0.7-0.2c0-0.1,0.1-0.2,0.2-0.2c0.1,0,0.2-0.4,0.1-0.8l-1.2-11.7h0l-5.9,11.7c-0.5,1-0.6,1.2-0.9,1.2 s-0.4-0.2-0.8-1.1c-0.6-1.1-2.2-4.1-2.9-5.3c-0.7-1.5-2.7-5.3-3.1-6.3h-0.1l-1,10.4c0,0.3,0,0.8,0,1.2c0,0.3,0.2,0.6,0.6,0.7 c0.3,0.1,0.6,0.1,0.9,0.1c0.1,0,0.2,0.1,0.2,0.2s-0.2,0.2-0.5,0.2c-0.9,0-2.1-0.1-2.3-0.1s-1.4,0.1-2.1,0.1c-0.2,0-0.4-0.1-0.4-0.2 s0.1-0.2,0.2-0.2c0.2,0,0.5,0,0.7-0.1c0.8-0.1,0.8-1,1-1.8l1.8-15c0-0.2,0.1-0.4,0.3-0.4c0.2,0,0.4,0.1,0.5,0.3l7.4,14.3l7.1-14.2 c0.1-0.2,0.2-0.4,0.4-0.4s0.3,0.2,0.4,0.6L388.5,86.7z"/> <path d="M395.3,78.9c0-3.6,0-4.2,0-5s-0.2-1.2-1-1.3c-0.3,0-0.6-0.1-0.8-0.1c-0.1,0-0.2-0.1-0.2-0.2c0-0.1,0.1-0.2,0.4-0.2 c1.1,0,2.7,0.1,2.8,0.1s5.3,0,5.9,0s0.9-0.1,1.1-0.1c0.1-0.1,0.2-0.1,0.3-0.1c0.1,0,0.1,0.1,0.1,0.2s-0.1,0.4-0.2,1.1 c0,0.2-0.1,1.2-0.1,1.5c0,0.1-0.1,0.2-0.2,0.2s-0.2-0.1-0.2-0.3c0-0.3,0-0.6-0.1-0.8c-0.2-0.4-0.4-0.5-1.8-0.7 c-0.4-0.1-3.2-0.1-3.5-0.1c-0.1,0-0.1,0.1-0.1,0.2v6.2c0,0.2,0,0.2,0.1,0.2c0.3,0,3.5,0,4.1,0s0.9-0.1,1.2-0.3s0.3-0.3,0.4-0.3 s0.1,0,0.1,0.2s-0.1,0.5-0.2,1.3c-0.1,0.5-0.1,1.3-0.1,1.5s-0.1,0.4-0.2,0.4s-0.2-0.1-0.2-0.2c0-0.3,0-0.5-0.1-0.8 c-0.1-0.3-0.3-0.6-1.2-0.7c-0.7-0.1-3.3-0.1-3.7-0.1c-0.1,0-0.2,0.1-0.2,0.2v2c0,0.8,0,3.5,0,3.9c0.1,1.5,0.5,1.8,2.9,1.8 c0.8,0,1.6,0,2.5-0.2c0.7-0.3,1.1-0.9,1.1-1.6c0.1-0.3,0.1-0.3,0.2-0.3s0.2,0.2,0.2,0.3c-0.1,0.7-0.2,1.5-0.3,2.2 c-0.2,0.6-0.4,0.6-1.4,0.6c-1.8,0-3.2-0.1-4.2-0.1s-1.7,0-2,0c0,0-0.5,0-1,0s-1,0.1-1.4,0.1s-0.4-0.1-0.4-0.2c0-0.1,0.1-0.2,0.2-0.2 c0,0,0,0,0,0c0.3,0,0.5-0.1,0.8-0.1c0.5-0.1,0.5-0.5,0.6-1.2c0.1-1.7,0.2-3.3,0.1-5L395.3,78.9z"/> <path d="M412.2,86.5c0.1,1.9,0.3,2.5,1,2.6c0.4,0.1,0.8,0.1,1.2,0.1c0.1,0,0.2,0.1,0.2,0.2c0,0,0,0,0,0c0,0.1-0.2,0.2-0.5,0.2 c-1.4,0-2.4-0.1-2.6-0.1s-1.2,0.1-2.4,0.1c-0.2,0-0.4,0-0.4-0.2c0-0.1,0.1-0.2,0.2-0.2c0,0,0,0,0,0c0.3,0,0.7,0,1-0.1 c0.6-0.2,0.7-0.8,0.7-2.9V73.1c0-0.9,0.1-1.2,0.3-1.2s0.7,0.5,1,0.7s4,4.1,7.7,7.8c2.4,2.4,5,5.2,5.8,5.9l-0.2-11.5 c0-1.5-0.2-2-0.9-2.1c-0.4-0.1-0.8-0.1-1.2-0.1c-0.1,0-0.2-0.1-0.2-0.2c0,0,0,0,0,0c0-0.1,0.2-0.2,0.5-0.2c1.1,0,2.3,0.1,2.6,0.1 s1.1-0.1,2.1-0.1c0.3,0,0.5,0,0.5,0.2c0,0.1-0.1,0.2-0.3,0.2c-0.2,0-0.4,0-0.6,0.1c-0.8,0.2-0.9,0.6-0.9,2l0,13.5 c0,1.5,0,1.6-0.2,1.6s-0.5-0.2-1.9-1.4c-0.2-0.2-3.8-3.6-6.4-6.2c-2.8-2.9-5.6-5.7-6.4-6.5L412.2,86.5z"/> <path d="M440.9,83c0,2.2,0,4,0.1,5c0.1,0.7,0.2,1.1,1,1.2c0.4,0.1,0.7,0.1,1.1,0.1c0.1,0,0.2,0,0.2,0.1c0,0,0,0,0,0.1 c0,0.1-0.1,0.2-0.4,0.2c-1.3,0-2.9-0.1-3-0.1s-1.8,0.1-2.5,0.1c-0.3,0-0.4-0.1-0.4-0.2s0.1-0.2,0.2-0.2c0.2,0,0.5,0,0.7-0.1 c0.5-0.1,0.6-0.6,0.7-1.2c0.1-1,0.1-2.8,0.1-5v-9.7h-3.5c-1.5,0-2.1,0.2-2.5,0.7c-0.1,0.2-0.3,0.5-0.4,0.7c0,0.2-0.1,0.2-0.2,0.2 c-0.1,0-0.2-0.1-0.2-0.2c0-0.2,0.5-2.3,0.5-2.5s0.2-0.4,0.2-0.4c0.4,0.1,0.7,0.2,1.1,0.3c0.7,0.1,1.6,0.1,1.9,0.1h9.2 c0.6,0,1.2,0,1.8-0.1c0.4-0.1,0.6-0.1,0.7-0.1s0.1,0.1,0.1,0.3c0,0.7-0.1,2.3-0.1,2.6s-0.1,0.3-0.2,0.3s-0.2-0.1-0.2-0.4v-0.2 c-0.1-0.7-0.6-1.2-3-1.3h-3.1L440.9,83z"/> <path d="M466.8,71.9c5.5,0,9.7,3.3,9.7,8.6c0,5.1-3.9,9.4-9.8,9.4c-6.7,0-9.6-4.9-9.6-9C457.1,77.2,460,71.9,466.8,71.9z M467.4,88.9c2.2,0,6.6-1.1,6.6-7.8c0-5.5-3.5-8.4-7.3-8.4c-4.1,0-7,2.5-7,7.5C459.6,85.6,462.9,89,467.4,88.9L467.4,88.9z"/> <path d="M480.7,78.9c0-3.6,0-4.2-0.1-5s-0.2-1.2-1-1.3c-0.3,0-0.6-0.1-0.8-0.1c-0.1,0-0.2-0.1-0.2-0.2c0-0.1,0.1-0.2,0.4-0.2 c1.1,0,2.6,0.1,2.8,0.1c0.5,0,5.8,0,6.3,0c0.4,0,0.8,0,1.1-0.1c0.1,0,0.2-0.1,0.3-0.1s0.2,0.1,0.2,0.2s-0.1,0.4-0.2,1.1 c0,0.2,0,1.2-0.1,1.5c0,0.1-0.1,0.2-0.2,0.2S489,75,489,74.8c0-0.3-0.1-0.6-0.2-0.9c-0.4-0.5-1-0.8-1.7-0.7l-4-0.1 c-0.1,0-0.2,0.1-0.2,0.2v6.3c0,0.1,0,0.2,0.2,0.2h3.3c0.4,0,0.8,0,1.1,0c0.6,0,0.9-0.1,1.1-0.4s0.2-0.2,0.3-0.2s0.1,0.1,0.1,0.2 c-0.1,0.4-0.2,0.8-0.2,1.3c0,0.5-0.1,1.4-0.1,1.5s-0.1,0.5-0.2,0.5s-0.2-0.1-0.2-0.2c0-0.3-0.1-0.6-0.2-0.8 c-0.1-0.3-0.5-0.6-1.2-0.7s-3.5,0-3.9,0c-0.1,0-0.2,0-0.2,0.2V83c0,2.3,0,4.1,0.1,5c0.1,0.7,0.2,1.1,0.9,1.2 c0.4,0.1,0.7,0.1,1.1,0.1c0.1,0,0.2,0.1,0.2,0.2c0,0,0,0,0,0c0,0.1-0.1,0.2-0.4,0.2c-1.4,0-3-0.1-3.1-0.1s-1.7,0.1-2.4,0.1 c-0.2,0-0.4-0.1-0.4-0.2c0-0.1,0.1-0.2,0.2-0.2l0,0c0.3,0,0.5-0.1,0.8-0.1c0.5-0.1,0.5-0.5,0.6-1.2c0.1-1.7,0.2-3.3,0.1-5 L480.7,78.9z"/> <path d="M507.6,83.5c0,4.4,0,6-0.8,8c-0.6,1.3-1.8,2.6-4.1,4.1c-0.3,0.2-0.7,0.5-1.1,0.7c-0.1,0-0.1,0.1-0.2,0.1 c-0.1,0-0.2-0.1-0.2-0.2s0.1-0.2,0.4-0.4c0.4-0.2,0.7-0.5,1-0.8c1.8-1.8,2.7-3.2,2.7-10.2V77c0-4.2,0-5-0.1-5.8s-0.3-1.3-1.2-1.5 c-0.3-0.1-0.6-0.1-1-0.1c-0.1,0-0.2-0.1-0.2-0.2s0.1-0.2,0.4-0.2c1.3,0,3,0.1,3.1,0.1s1.9-0.1,2.7-0.1c0.3,0,0.5,0,0.5,0.2 s-0.1,0.2-0.2,0.2c-0.2,0-0.5,0-0.7,0.1c-0.8,0.1-1,0.6-1,1.5s0,1.6,0,5.8L507.6,83.5z"/> <path d="M521.3,72.7c0.3-0.8,0.4-0.9,0.6-0.9s0.3,0.3,0.6,0.8c0.5,1,4.4,10.4,5.9,13.9c0.9,2.1,1.6,2.3,2.1,2.5 c0.3,0.1,0.7,0.1,1,0.1c0.1,0,0.3,0.1,0.3,0.2s-0.3,0.2-0.5,0.2s-2.2,0-3.9-0.1c-0.5,0-0.9,0-0.9-0.2s0.1-0.1,0.2-0.2 c0.2-0.1,0.3-0.3,0.3-0.5c0,0,0-0.1,0-0.1l-2.2-5.3c0-0.1-0.1-0.1-0.2-0.1h-5.7c-0.1,0-0.2,0.1-0.2,0.2l-1.4,3.7 c-0.2,0.5-0.3,1-0.4,1.5c0,0.5,0.4,0.6,0.8,0.6h0.2c0.2,0,0.2,0.1,0.2,0.2s-0.1,0.2-0.4,0.2c-0.6,0-1.9-0.1-2.2-0.1 s-1.5,0.1-2.5,0.1c-0.3,0-0.5-0.1-0.5-0.2c0-0.1,0.1-0.2,0.2-0.2c0.2,0,0.5,0,0.7,0c1.1-0.1,1.6-1,2.1-2.1L521.3,72.7z M524,82.3 c0.1,0,0.1,0,0.1-0.2l-2.4-6.3c-0.1-0.3-0.3-0.3-0.4,0l-2.3,6.3c0,0.1,0,0.2,0.1,0.2H524z"/> <path d="M535,78.9c0-3.6,0-4.2-0.1-5s-0.2-1.2-1-1.3c-0.3,0-0.6-0.1-0.8-0.1c-0.1,0-0.2-0.1-0.2-0.2c0-0.1,0.1-0.2,0.4-0.2 c1.1,0,2.7,0.1,2.8,0.1c0.5,0,2.4-0.1,3.5-0.1c3.1,0,4.3,1,4.7,1.3c0.8,0.7,1.2,1.7,1.2,2.8c0,3.3-2.6,5.5-6.3,5.5 c-0.2,0-0.5,0-0.7,0c-0.1,0-0.2-0.1-0.2-0.2c0-0.2,0.1-0.2,0.6-0.2c2.6,0,4.5-1.6,4.5-3.7c0.1-1.3-0.5-2.6-1.4-3.5 c-0.9-0.8-2.1-1.2-3.3-1.1c-0.5,0-0.9,0.1-1.4,0.2c-0.1,0-0.2,0.2-0.2,0.4V83c0,2.2,0,4,0.1,5c0.1,0.7,0.2,1.1,1,1.2 c0.4,0.1,0.7,0.1,1.1,0.1c0.1,0,0.2,0.1,0.2,0.2c0,0,0,0,0,0c0,0.1-0.1,0.2-0.4,0.2c-1.3,0-2.9-0.1-3-0.1s-1.7,0.1-2.4,0.1 c-0.2,0-0.4-0.1-0.4-0.2c0-0.1,0.1-0.2,0.2-0.2c0,0,0,0,0,0c0.3,0,0.5,0,0.8-0.1c0.5-0.1,0.5-0.5,0.6-1.2c0.1-1.7,0.2-3.3,0.1-5 L535,78.9z"/> <path d="M555.5,72.7c0.3-0.8,0.4-0.9,0.6-0.9s0.3,0.3,0.6,0.8c0.5,1,4.4,10.4,5.9,13.9c0.9,2.1,1.6,2.3,2.1,2.5 c0.3,0.1,0.7,0.1,1,0.1c0.1,0,0.3,0.1,0.3,0.2s-0.3,0.2-0.6,0.2s-2.2,0-3.9-0.1c-0.5,0-0.9,0-0.9-0.2s0.1-0.1,0.2-0.2 c0.2-0.1,0.3-0.3,0.3-0.5c0,0,0-0.1,0-0.1l-2.2-5.3c0-0.1-0.1-0.1-0.2-0.1H553c-0.1,0-0.2,0.1-0.2,0.2l-1.4,3.7 c-0.2,0.5-0.3,1-0.4,1.5c0,0.5,0.4,0.6,0.8,0.6h0.2c0.2,0,0.2,0.1,0.2,0.2s-0.1,0.2-0.4,0.2c-0.6,0-1.9-0.1-2.2-0.1 s-1.5,0.1-2.5,0.1c-0.3,0-0.5-0.1-0.5-0.2c0-0.1,0.1-0.2,0.2-0.2c0.2,0,0.5,0,0.7,0c1.1-0.1,1.6-1,2.1-2.1L555.5,72.7z M558.3,82.3 c0.1,0,0.1,0,0.1-0.2l-2.4-6.3c-0.1-0.3-0.3-0.3-0.4,0l-2.3,6.3c0,0.1,0,0.2,0.1,0.2H558.3z"/> <path d="M571.3,86.5c0.1,1.9,0.3,2.5,1,2.6c0.4,0.1,0.8,0.1,1.2,0.1c0.1,0,0.2,0.1,0.2,0.2c0,0,0,0,0,0c0,0.1-0.2,0.2-0.5,0.2 c-1.4,0-2.4-0.1-2.6-0.1s-1.2,0.1-2.4,0.1c-0.2,0-0.4,0-0.4-0.2c0-0.1,0.1-0.2,0.2-0.2c0,0,0,0,0,0c0.3,0,0.7,0,1-0.1 c0.6-0.2,0.7-0.8,0.7-2.9V73.1c0-0.9,0.1-1.2,0.3-1.2s0.7,0.5,1,0.7s4,4.1,7.7,7.8c2.4,2.4,5,5.2,5.8,5.9l-0.2-11.5 c0-1.5-0.2-2-0.9-2.1c-0.4-0.1-0.8-0.1-1.2-0.1c-0.1,0-0.2-0.1-0.2-0.2c0,0,0,0,0,0c0-0.1,0.2-0.2,0.5-0.2c1.1,0,2.3,0.1,2.6,0.1 s1.1-0.1,2.1-0.1c0.3,0,0.5,0,0.5,0.2c0,0.1-0.1,0.2-0.3,0.2c-0.2,0-0.4,0-0.6,0.1c-0.8,0.2-0.9,0.6-0.9,2v13.5c0,1.5,0,1.6-0.2,1.6 s-0.5-0.2-1.9-1.4c-0.2-0.2-3.8-3.6-6.4-6.2c-2.8-2.9-5.6-5.7-6.3-6.5L571.3,86.5z"/> <path d="M224.2,32.8c0,9.8,0,13.5-1.8,17.8c-1.3,3-3.9,5.8-8.8,9.2c-0.8,0.6-1.5,1.1-2.4,1.5c-0.1,0.1-0.3,0.1-0.4,0.1 c-0.2,0-0.4-0.1-0.4-0.4c0-0.4,0.3-0.5,0.8-0.9c0.8-0.5,1.5-1,2.1-1.7c3.9-4,5.8-7.2,5.8-22.8V18.3c0-9.4,0-11.1-0.1-13 s-0.6-3-2.6-3.4c-0.7-0.1-1.3-0.2-2-0.2c-0.2,0-0.5-0.1-0.5-0.4s0.3-0.5,1-0.5c2.7,0,6.5,0.2,6.8,0.2s4.1-0.2,5.9-0.2 c0.7,0,1,0.1,1,0.5s-0.2,0.4-0.5,0.4c-0.5,0-1,0.1-1.5,0.2c-1.6,0.3-2.1,1.3-2.2,3.4c-0.1,1.9-0.1,3.6-0.1,13L224.2,32.8z"/> <path d="M253.8,8.7c0.7-1.7,0.9-2,1.3-2c0.5,0,0.7,0.7,1.3,1.9c1,2.2,9.5,23.3,12.7,31.1c1.9,4.6,3.4,5.2,4.5,5.6 c0.7,0.2,1.4,0.3,2.1,0.3c0.3,0,0.7,0.1,0.7,0.4s-0.6,0.4-1.2,0.4c-0.8,0-4.7,0-8.4-0.1c-1-0.1-1.9-0.1-1.9-0.4s0.1-0.2,0.4-0.4 c0.5-0.2,0.7-0.8,0.5-1.3c0,0,0,0,0-0.1L261,32.4c-0.1-0.2-0.2-0.3-0.5-0.3h-12.2c-0.3,0-0.5,0.2-0.5,0.4l-3,8.2 c-0.4,1.1-0.7,2.3-0.8,3.4c0,1,0.9,1.4,1.8,1.4h0.5c0.4,0,0.5,0.2,0.5,0.4s-0.3,0.4-0.8,0.4c-1.3,0-4.2-0.2-4.8-0.2 s-3.2,0.2-5.4,0.2c-0.7,0-1-0.1-1-0.4c0-0.2,0.2-0.4,0.5-0.4c0.5,0,1-0.1,1.6-0.1c2.4-0.3,3.4-2.1,4.5-4.7L253.8,8.7z M259.7,30 c0.2,0,0.2-0.1,0.2-0.4l-5.2-14.1c-0.3-0.8-0.6-0.8-0.9,0l-4.9,14.1c-0.1,0.2,0,0.4,0.2,0.4H259.7z"/> <path d="M285.8,22.5c0-8,0-9.4-0.1-11s-0.4-2.6-2.2-2.8c-0.6-0.1-1.2-0.1-1.8-0.1c-0.2,0-0.4-0.2-0.4-0.4c0-0.3,0.2-0.4,0.8-0.4 c2.4,0,5.7,0.1,6.2,0.1c1.1,0,5.1-0.1,7.5-0.1c6.8,0,9.2,2.1,10.1,2.9c1.7,1.6,2.6,3.8,2.6,6.1c0,7.4-5.5,12.2-13.7,12.2 c-0.5,0-1,0-1.5-0.1c-0.3,0-0.5-0.2-0.5-0.5c0-0.4,0.3-0.5,1.4-0.5c5.7,0,9.8-3.6,9.8-8.3c0.1-2.9-1-5.7-3-7.8 c-1.9-1.8-4.5-2.7-7.2-2.5c-1,0-2,0.2-3,0.4c-0.3,0.1-0.4,0.4-0.4,1v20.8c0,5,0,9,0.2,11.1c0.2,1.5,0.5,2.5,2.1,2.7 c0.8,0.1,1.6,0.2,2.4,0.2c0.2,0,0.4,0.2,0.4,0.4c0,0,0,0,0,0c0,0.2-0.2,0.4-0.8,0.4c-2.9,0-6.4-0.2-6.6-0.2s-3.6,0.2-5.2,0.2 c-0.5,0-0.9-0.1-0.9-0.4c0-0.2,0.2-0.4,0.4-0.4c0,0,0,0,0,0c0.6,0,1.1-0.1,1.6-0.2c1-0.2,1.1-1.2,1.4-2.7c0.3-3.7,0.4-7.4,0.3-11.1 L285.8,22.5z"/> <path d="M329.2,8.7c0.7-1.7,0.9-2,1.3-2c0.5,0,0.7,0.7,1.3,1.9c1,2.2,9.5,23.3,12.7,31.1c1.9,4.6,3.4,5.2,4.5,5.6 c0.7,0.2,1.4,0.3,2.1,0.3c0.3,0,0.7,0.1,0.7,0.4s-0.6,0.4-1.2,0.4c-0.8,0-4.7,0-8.4-0.1c-1-0.1-1.9-0.1-1.9-0.4s0.1-0.2,0.4-0.4 c0.5-0.2,0.7-0.8,0.5-1.3c0,0,0,0,0-0.1l-4.8-11.8c-0.1-0.2-0.2-0.3-0.5-0.3h-12.2c-0.3,0-0.5,0.2-0.5,0.4l-3,8.2 c-0.5,1.1-0.7,2.3-0.8,3.4c0,1,0.9,1.4,1.8,1.4h0.5c0.4,0,0.5,0.2,0.5,0.4s-0.3,0.4-0.8,0.4c-1.3,0-4.2-0.2-4.8-0.2 s-3.2,0.2-5.4,0.2c-0.7,0-1-0.1-1-0.4c0-0.2,0.2-0.4,0.5-0.4c0.5,0,1-0.1,1.6-0.1c2.4-0.3,3.4-2.1,4.5-4.7L329.2,8.7z M335.1,30 c0.2,0,0.2-0.1,0.2-0.4L330,15.6c-0.3-0.8-0.6-0.8-0.9,0l-4.9,14.1c-0.1,0.2,0,0.4,0.2,0.4H335.1z"/> <path d="M364.6,39.5c0.1,4.2,0.6,5.5,2.1,5.9c0.9,0.2,1.8,0.3,2.6,0.3c0.2,0,0.4,0.2,0.4,0.4c0,0,0,0,0,0c0,0.3-0.4,0.4-1,0.4 c-3,0-5.1-0.2-5.6-0.2s-2.7,0.2-5.1,0.2c-0.5,0-0.9-0.1-0.9-0.4c0-0.2,0.2-0.4,0.4-0.4c0,0,0,0,0,0c0.7,0,1.5-0.1,2.2-0.3 c1.3-0.4,1.5-1.8,1.5-6.4V9.5c0-2,0.3-2.6,0.7-2.6c0.6,0,1.5,1,2,1.6c0.9,0.8,8.6,9,16.8,17.5c5.2,5.4,10.9,11.5,12.5,13.2 l-0.5-25.7c-0.1-3.3-0.4-4.5-2-4.8c-0.9-0.1-1.7-0.2-2.6-0.2c-0.4,0-0.4-0.3-0.4-0.5s0.4-0.4,1-0.4c2.4,0,4.9,0.1,5.5,0.1 s2.4-0.1,4.5-0.1c0.5,0,1,0.1,1,0.4c-0.1,0.3-0.3,0.5-0.6,0.5c-0.4,0-0.9,0-1.3,0.1c-1.7,0.4-1.9,1.4-1.9,4.5l-0.1,30 c0,3.4-0.1,3.7-0.4,3.7c-0.5,0-1.1-0.4-4-3.1c-0.5-0.5-8.2-8-13.8-13.9c-6.2-6.5-12.1-12.7-13.8-14.5L364.6,39.5z"/> <path d="M447.2,31.1c0-4.9-0.3-5.5-2.7-6.2c-0.7-0.1-1.4-0.2-2-0.2c-0.2,0-0.5-0.1-0.5-0.4s0.3-0.5,1-0.5c2.7,0,6.5,0.2,6.8,0.2 s4.1-0.2,5.9-0.2c0.7,0,1,0.1,1,0.5s-0.2,0.4-0.5,0.4c-0.5,0-1,0.1-1.5,0.2c-1.6,0.3-2.1,1.3-2.2,3.4c-0.1,1.9-0.1,3.7-0.1,6.3v6.8 c0,2.7-0.1,2.8-0.8,3.3c-3.9,2-9.3,2.7-12.8,2.7c-4.6,0-13.1-0.6-19.9-6.5c-3.7-3.2-7.2-9.6-7.2-17.2c0-9.6,4.7-16.5,10.1-19.9 s11.3-3.8,16-3.8c3.1,0.1,6.2,0.4,9.2,1c1.6,0.3,3.2,0.5,4.9,0.6c0.6,0.1,0.7,0.3,0.7,0.5c-0.3,2.8-0.4,5.7-0.4,8.6 c0,1-0.1,1.3-0.5,1.3s-0.4-0.4-0.4-0.9c-0.1-1.4-0.5-2.8-1.3-4c-1.5-2.3-6.4-4.9-14.2-4.9c-3.8,0-8.3,0.4-12.9,4 c-3.5,2.8-6,8.3-6,15.3c0,6.2,2.2,12.1,6.4,16.7c4.2,4.2,9.9,6.5,15.8,6.5c2.2,0,5.3-0.4,6.9-1.3c0.8-0.4,1.3-1.2,1.2-2.1V31.1z"/> <path d="M485.1,6.9c12,0,21,7.3,21,19.2c0,11.5-8.5,20.9-21.3,20.9c-14.5,0-20.8-10.9-20.8-20.1C464,18.7,470.4,6.9,485.1,6.9z M486.3,45c4.8,0,14.4-2.5,14.4-17.4c0-12.3-7.5-18.8-15.9-18.8c-8.9,0-15.3,5.6-15.3,16.7C469.5,37.5,476.7,45,486.3,45z"/> <path d="M531.4,39.8c3.1-6.9,10-24.4,11.2-28c0.2-0.6,0.4-1.3,0.5-1.9c0-0.5-0.3-0.9-0.7-1.1c-0.6-0.1-1.2-0.2-1.8-0.2 c-0.3,0-0.6-0.2-0.6-0.4s0.4-0.4,1.2-0.4c2.1,0,4.5,0.1,5.2,0.1c0.3,0,2.6-0.1,4.2-0.1c0.5,0,0.8,0.1,0.8,0.4s-0.2,0.5-0.6,0.5 c-0.9,0-1.8,0.2-2.5,0.6c-0.7,0.5-1.6,1.2-3,4.7c-0.6,1.4-3.2,7.6-5.9,13.9c-3.3,7.5-5.6,13-6.8,15.6c-1.4,3.1-1.7,3.9-2.3,3.9 s-1-0.7-2-3.1l-13-31.5c-1.2-2.9-1.9-3.4-3.7-3.9c-0.7-0.1-1.4-0.2-2-0.2c-0.3,0-0.4-0.3-0.4-0.5s0.5-0.4,1.4-0.4 c2.5,0,5.5,0.1,6.2,0.1s2.9-0.1,5-0.1c1,0,1.4,0.1,1.4,0.4c0,0.3-0.2,0.5-0.5,0.5c0,0,0,0-0.1,0c-0.7,0-1.3,0.1-1.9,0.2 c-0.4,0.1-0.6,0.5-0.6,0.9c0.3,1.5,0.8,2.9,1.4,4.3L531.4,39.8z"/> </svg>