<svg xmlns="http://www.w3.org/2000/svg" width="163" height="193" viewBox="0 0 163 193">
  <g id="Qii_1" data-name="Qii 1" transform="translate(23182 3123)">
    <g id="Group_2474" data-name="Group 2474" transform="translate(-246 -42)">
      <path id="Polygon_10" data-name="Polygon 10" d="M144.75,0,193,81.5,144.75,163H48.25L0,81.5,48.25,0Z" transform="translate(-22773 -3081) rotate(90)" fill="#003157"/>
      <path id="Path_5425" data-name="Path 5425" d="M24.785-3.066A23.2,23.2,0,0,0,29.648-.41L28.535,2.227a22.337,22.337,0,0,1-6.152-3.516A14.178,14.178,0,0,1,15.352.488,13.569,13.569,0,0,1,8.3-1.387,12.522,12.522,0,0,1,3.428-6.66a16.8,16.8,0,0,1-1.709-7.656,17.168,17.168,0,0,1,1.719-7.715A12.1,12.1,0,0,1,8.33-27.324a14.036,14.036,0,0,1,7.1-1.816,13.765,13.765,0,0,1,7.148,1.885,12.311,12.311,0,0,1,4.854,5.273,17.068,17.068,0,0,1,1.67,7.646,17.764,17.764,0,0,1-1.074,6.357A13.323,13.323,0,0,1,24.785-3.066ZM16.445-7.91a14.031,14.031,0,0,1,5.41,2.734q3.34-3.047,3.34-9.16a14.549,14.549,0,0,0-1.182-6.074,9.088,9.088,0,0,0-3.457-4.033,9.372,9.372,0,0,0-5.107-1.436,9.351,9.351,0,0,0-7.031,2.9q-2.793,2.9-2.793,8.662,0,5.586,2.764,8.574a9.191,9.191,0,0,0,7.061,2.988,9.706,9.706,0,0,0,3.828-.762,12.284,12.284,0,0,0-3.75-1.641ZM34.844,0V-28.633h3.789V0ZM45.957,0V-28.633h3.789V0ZM56.973,0V-4h4V0ZM79.355,0H75.84V-22.4a18.17,18.17,0,0,1-3.33,2.422,23.605,23.605,0,0,1-3.7,1.816v-3.4a21.231,21.231,0,0,0,5.156-3.359A13.214,13.214,0,0,0,77.09-28.75h2.266Z" transform="translate(-22898 -2992)" fill="#fff"/>
      <path id="Path_5426" data-name="Path 5426" d="M-63.907-4.37l1.7-.148a3.749,3.749,0,0,0,.561,1.675A3.064,3.064,0,0,0-60.28-1.786a5.182,5.182,0,0,0,2.087.4,5,5,0,0,0,1.818-.306,2.522,2.522,0,0,0,1.174-.84,1.947,1.947,0,0,0,.385-1.164,1.77,1.77,0,0,0-.371-1.118,2.749,2.749,0,0,0-1.225-.8,23.936,23.936,0,0,0-2.421-.663,12.372,12.372,0,0,1-2.625-.849A3.681,3.681,0,0,1-62.91-8.391a3.1,3.1,0,0,1-.478-1.693A3.457,3.457,0,0,1-62.8-12.01,3.619,3.619,0,0,1-61.1-13.369a6.476,6.476,0,0,1,2.5-.464,6.818,6.818,0,0,1,2.667.487,3.847,3.847,0,0,1,1.777,1.433,4.117,4.117,0,0,1,.668,2.143l-1.726.13a2.784,2.784,0,0,0-.942-1.948,3.665,3.665,0,0,0-2.37-.659,3.8,3.8,0,0,0-2.38.6,1.8,1.8,0,0,0-.747,1.443A1.547,1.547,0,0,0-61.124-9a7.166,7.166,0,0,0,2.714.969,17.949,17.949,0,0,1,3.01.867,4.123,4.123,0,0,1,1.753,1.387,3.379,3.379,0,0,1,.566,1.934A3.7,3.7,0,0,1-53.7-1.8,4.093,4.093,0,0,1-55.488-.3a6.222,6.222,0,0,1-2.621.533A7.826,7.826,0,0,1-61.2-.306,4.333,4.333,0,0,1-63.16-1.925,4.59,4.59,0,0,1-63.907-4.37ZM-41.7-13.6h1.8v7.858a9.3,9.3,0,0,1-.464,3.256A3.973,3.973,0,0,1-42.036-.524a5.93,5.93,0,0,1-3.177.756A6.53,6.53,0,0,1-48.34-.427a3.76,3.76,0,0,1-1.735-1.906,9.085,9.085,0,0,1-.52-3.409V-13.6h1.8v7.849a7.651,7.651,0,0,0,.329,2.612,2.5,2.5,0,0,0,1.132,1.294,3.926,3.926,0,0,0,1.962.455,3.75,3.75,0,0,0,2.83-.9q.844-.9.844-3.46Zm4.184,9.231,1.7-.148a3.749,3.749,0,0,0,.561,1.675,3.064,3.064,0,0,0,1.368,1.058,5.182,5.182,0,0,0,2.087.4,5,5,0,0,0,1.818-.306,2.522,2.522,0,0,0,1.174-.84,1.947,1.947,0,0,0,.385-1.164,1.77,1.77,0,0,0-.371-1.118,2.749,2.749,0,0,0-1.225-.8,23.935,23.935,0,0,0-2.421-.663,12.372,12.372,0,0,1-2.625-.849,3.681,3.681,0,0,1-1.452-1.266,3.1,3.1,0,0,1-.478-1.693,3.457,3.457,0,0,1,.584-1.925A3.619,3.619,0,0,1-34.7-13.369a6.476,6.476,0,0,1,2.5-.464,6.818,6.818,0,0,1,2.667.487,3.847,3.847,0,0,1,1.777,1.433,4.117,4.117,0,0,1,.668,2.143l-1.726.13a2.784,2.784,0,0,0-.942-1.948,3.665,3.665,0,0,0-2.37-.659,3.8,3.8,0,0,0-2.38.6,1.8,1.8,0,0,0-.747,1.443A1.547,1.547,0,0,0-34.73-9a7.166,7.166,0,0,0,2.714.969,17.949,17.949,0,0,1,3.01.867,4.123,4.123,0,0,1,1.753,1.387,3.379,3.379,0,0,1,.566,1.934A3.7,3.7,0,0,1-27.308-1.8,4.093,4.093,0,0,1-29.094-.3a6.222,6.222,0,0,1-2.621.533,7.826,7.826,0,0,1-3.094-.538,4.333,4.333,0,0,1-1.958-1.619A4.59,4.59,0,0,1-37.513-4.37ZM-20.767,0V-12h-4.481v-1.6h10.78V-12h-4.5V0Zm5.242,0L-10.3-13.6h1.939L-2.8,0h-2.05L-6.434-4.119h-5.687L-13.615,0ZM-11.6-5.585H-6.99L-8.41-9.352q-.649-1.716-.965-2.82a17.338,17.338,0,0,1-.733,2.6ZM-1.053,0V-13.6h1.8V0ZM3.9,0V-13.6H5.747L12.891-2.922V-13.6h1.726V0H12.77L5.627-10.687V0ZM16.147,0,21.37-13.6h1.939L28.876,0h-2.05L25.239-4.119H19.552L18.058,0Zm3.924-5.585h4.611L23.263-9.352q-.649-1.716-.965-2.82a17.338,17.338,0,0,1-.733,2.6ZM30.24,0V-13.6h5.1a6.315,6.315,0,0,1,2.5.413,3.215,3.215,0,0,1,1.475,1.271,3.35,3.35,0,0,1,.533,1.8,3.084,3.084,0,0,1-.473,1.642,3.378,3.378,0,0,1-1.429,1.243A3.552,3.552,0,0,1,39.846-6a3.3,3.3,0,0,1,.663,2.06,3.973,3.973,0,0,1-.4,1.777,3.44,3.44,0,0,1-1,1.266,4.162,4.162,0,0,1-1.489.673A9.056,9.056,0,0,1,35.426,0Zm1.8-7.886H34.98A6.562,6.562,0,0,0,36.7-8.043a1.908,1.908,0,0,0,1.034-.677,1.951,1.951,0,0,0,.348-1.187,2.187,2.187,0,0,0-.325-1.192,1.643,1.643,0,0,0-.928-.705A7.748,7.748,0,0,0,34.758-12H32.039Zm0,6.281h3.386A7.794,7.794,0,0,0,36.65-1.67a2.934,2.934,0,0,0,1.039-.371,1.97,1.97,0,0,0,.687-.756,2.367,2.367,0,0,0,.269-1.146,2.26,2.26,0,0,0-.39-1.322,2.055,2.055,0,0,0-1.081-.789,6.7,6.7,0,0,0-1.99-.227H32.039ZM42.912,0V-13.6h1.8v12h6.7V0ZM53.591,0V-13.6h9.834V-12H55.39V-7.83h7.524v1.6H55.39V-1.6h8.35V0Zm-89.03,14.666v-1.6l5.761-.009v5.047A10.173,10.173,0,0,1-32.415,19.7a8.117,8.117,0,0,1-2.895.533,7.724,7.724,0,0,1-3.641-.858,5.673,5.673,0,0,1-2.472-2.482,7.814,7.814,0,0,1-.835-3.627,8.417,8.417,0,0,1,.83-3.706A5.522,5.522,0,0,1-39.039,7a7.486,7.486,0,0,1,3.59-.835,7.114,7.114,0,0,1,2.667.478,4.422,4.422,0,0,1,1.869,1.331,5.905,5.905,0,0,1,1.03,2.227l-1.624.445a5.025,5.025,0,0,0-.761-1.633,3.121,3.121,0,0,0-1.3-.951,4.763,4.763,0,0,0-1.874-.357,5.518,5.518,0,0,0-2.134.376,3.982,3.982,0,0,0-1.452.988,4.712,4.712,0,0,0-.858,1.345,7.118,7.118,0,0,0-.52,2.737,6.641,6.641,0,0,0,.626,3.043,4.008,4.008,0,0,0,1.823,1.818,5.644,5.644,0,0,0,2.542.594,6.039,6.039,0,0,0,2.282-.45,5.89,5.89,0,0,0,1.688-.96V14.666ZM-27,20V6.4h6.03a8.026,8.026,0,0,1,2.765.366A3.023,3.023,0,0,1-16.69,8.06a3.861,3.861,0,0,1,.566,2.05,3.42,3.42,0,0,1-.937,2.44,4.742,4.742,0,0,1-2.895,1.262,4.667,4.667,0,0,1,1.085.677A9.352,9.352,0,0,1-17.376,16.3l2.366,3.7h-2.264l-1.8-2.83q-.789-1.225-1.3-1.874a4.084,4.084,0,0,0-.914-.909,2.7,2.7,0,0,0-.821-.362,5.407,5.407,0,0,0-1-.065H-25.2V20Zm1.8-7.6h3.869a5.8,5.8,0,0,0,1.93-.255,2.054,2.054,0,0,0,1.058-.816,2.208,2.208,0,0,0,.362-1.22,2.027,2.027,0,0,0-.7-1.586A3.277,3.277,0,0,0-20.893,7.9h-4.3Zm11.346.974a7.391,7.391,0,0,1,1.818-5.3A6.182,6.182,0,0,1-7.338,6.158a6.512,6.512,0,0,1,3.4.9,5.877,5.877,0,0,1,2.305,2.51,8.151,8.151,0,0,1,.793,3.651,8.014,8.014,0,0,1-.835,3.7,5.7,5.7,0,0,1-2.366,2.472,6.759,6.759,0,0,1-3.3.84A6.431,6.431,0,0,1-10.78,19.3a5.97,5.97,0,0,1-2.292-2.533A7.676,7.676,0,0,1-13.851,13.376ZM-12,13.4a5.449,5.449,0,0,0,1.322,3.873,4.349,4.349,0,0,0,3.317,1.415,4.342,4.342,0,0,0,3.344-1.429A5.777,5.777,0,0,0-2.7,13.209a6.967,6.967,0,0,0-.561-2.9A4.313,4.313,0,0,0-4.9,8.389a4.452,4.452,0,0,0-2.426-.682A4.6,4.6,0,0,0-10.618,9.02Q-12,10.333-12,13.4ZM3.85,20,.241,6.4H2.087l2.069,8.916q.334,1.4.575,2.783.52-2.18.612-2.514L7.932,6.4H10.1l1.948,6.884A36.474,36.474,0,0,1,13.109,18.1q.26-1.29.677-2.959L15.92,6.4h1.809L14,20H12.265L9.4,9.637q-.362-1.3-.427-1.6-.213.937-.4,1.6L5.687,20Zm19.019,0V8H18.388V6.4h10.78V8h-4.5V20Zm8.2,0V6.4h1.8v5.585h7.069V6.4h1.8V20h-1.8V13.589H32.87V20Z" transform="translate(-22854 -2959)" fill="#fff"/>
    </g>
  </g>
</svg>
