<svg xmlns="http://www.w3.org/2000/svg" width="163" height="193" viewBox="0 0 163 193">
  <g id="Qii_6" data-name="Qii 6" transform="translate(22670 2773)">
    <g id="Group_2479" data-name="Group 2479" transform="translate(50 -136)">
      <path id="Polygon_14" data-name="Polygon 14" d="M144.75,0,193,81.5,144.75,163H48.25L0,81.5,48.25,0Z" transform="translate(-22557 -2637) rotate(90)" fill="#32825b"/>
      <path id="Path_5436" data-name="Path 5436" d="M24.785-3.066A23.2,23.2,0,0,0,29.648-.41L28.535,2.227a22.337,22.337,0,0,1-6.152-3.516A14.178,14.178,0,0,1,15.352.488,13.569,13.569,0,0,1,8.3-1.387,12.522,12.522,0,0,1,3.428-6.66a16.8,16.8,0,0,1-1.709-7.656,17.168,17.168,0,0,1,1.719-7.715A12.1,12.1,0,0,1,8.33-27.324a14.036,14.036,0,0,1,7.1-1.816,13.765,13.765,0,0,1,7.148,1.885,12.311,12.311,0,0,1,4.854,5.273,17.068,17.068,0,0,1,1.67,7.646,17.764,17.764,0,0,1-1.074,6.357A13.323,13.323,0,0,1,24.785-3.066ZM16.445-7.91a14.031,14.031,0,0,1,5.41,2.734q3.34-3.047,3.34-9.16a14.549,14.549,0,0,0-1.182-6.074,9.088,9.088,0,0,0-3.457-4.033,9.372,9.372,0,0,0-5.107-1.436,9.351,9.351,0,0,0-7.031,2.9q-2.793,2.9-2.793,8.662,0,5.586,2.764,8.574a9.191,9.191,0,0,0,7.061,2.988,9.706,9.706,0,0,0,3.828-.762,12.284,12.284,0,0,0-3.75-1.641ZM34.844,0V-28.633h3.789V0ZM45.957,0V-28.633h3.789V0ZM56.973,0V-4h4V0ZM84.355-21.621l-3.5.273a6.62,6.62,0,0,0-1.328-3.008,4.653,4.653,0,0,0-3.516-1.5,4.831,4.831,0,0,0-2.949.938,8.012,8.012,0,0,0-2.617,3.535,18.474,18.474,0,0,0-1,6.621,8.147,8.147,0,0,1,3.105-2.871,8.352,8.352,0,0,1,3.848-.937,7.971,7.971,0,0,1,5.986,2.588A9.289,9.289,0,0,1,84.863-9.3,11.007,11.007,0,0,1,83.7-4.287,8.467,8.467,0,0,1,80.508-.742,8.719,8.719,0,0,1,75.9.488,9.007,9.007,0,0,1,68.73-2.744Q65.957-5.977,65.957-13.4q0-8.3,3.066-12.07A8.816,8.816,0,0,1,76.23-28.75a8.085,8.085,0,0,1,5.537,1.895A8.043,8.043,0,0,1,84.355-21.621ZM70-9.277A8.155,8.155,0,0,0,70.771-5.8,5.75,5.75,0,0,0,72.93-3.271a5.4,5.4,0,0,0,2.91.869,4.96,4.96,0,0,0,3.828-1.8,7.073,7.073,0,0,0,1.6-4.883,6.618,6.618,0,0,0-1.582-4.678A5.2,5.2,0,0,0,75.7-15.469,5.424,5.424,0,0,0,71.66-13.76,6.16,6.16,0,0,0,70-9.277Z" transform="translate(-22682 -2548)" fill="#fff"/>
      <path id="Path_5435" data-name="Path 5435" d="M-59.737-5.334v-1.6l5.761-.009v5.047A10.173,10.173,0,0,1-56.712-.3a8.117,8.117,0,0,1-2.895.533,7.724,7.724,0,0,1-3.641-.858,5.673,5.673,0,0,1-2.472-2.482,7.814,7.814,0,0,1-.835-3.627,8.417,8.417,0,0,1,.83-3.706A5.522,5.522,0,0,1-63.336-13a7.486,7.486,0,0,1,3.59-.835,7.114,7.114,0,0,1,2.667.478,4.422,4.422,0,0,1,1.869,1.331A5.905,5.905,0,0,1-54.18-9.8l-1.624.445a5.025,5.025,0,0,0-.761-1.633,3.121,3.121,0,0,0-1.3-.951,4.763,4.763,0,0,0-1.874-.357,5.518,5.518,0,0,0-2.134.376,3.982,3.982,0,0,0-1.452.988,4.712,4.712,0,0,0-.858,1.345,7.118,7.118,0,0,0-.52,2.737A6.641,6.641,0,0,0-64.074-3.8a4.008,4.008,0,0,0,1.823,1.818,5.644,5.644,0,0,0,2.542.594,6.039,6.039,0,0,0,2.282-.45,5.89,5.89,0,0,0,1.688-.96V-5.334Zm7.867-1.29a7.391,7.391,0,0,1,1.818-5.3,6.182,6.182,0,0,1,4.694-1.916,6.512,6.512,0,0,1,3.4.9,5.877,5.877,0,0,1,2.305,2.51,8.151,8.151,0,0,1,.793,3.651,8.014,8.014,0,0,1-.835,3.7A5.7,5.7,0,0,1-42.063-.608a6.759,6.759,0,0,1-3.3.84A6.431,6.431,0,0,1-48.8-.7,5.97,5.97,0,0,1-51.09-3.229,7.676,7.676,0,0,1-51.87-6.624Zm1.855.028a5.449,5.449,0,0,0,1.322,3.873,4.349,4.349,0,0,0,3.317,1.415,4.342,4.342,0,0,0,3.344-1.429,5.777,5.777,0,0,0,1.313-4.054,6.967,6.967,0,0,0-.561-2.9,4.313,4.313,0,0,0-1.642-1.92,4.452,4.452,0,0,0-2.426-.682,4.6,4.6,0,0,0-3.289,1.313Q-50.014-9.667-50.014-6.6ZM-32.656,0l-5.27-13.6h1.948l3.535,9.88q.427,1.188.714,2.227.315-1.113.733-2.227l3.674-9.88h1.837L-30.81,0Zm8.823,0V-13.6H-14V-12h-8.034V-7.83h7.524v1.6h-7.524V-1.6h8.35V0ZM-11.17,0V-13.6h6.03a8.026,8.026,0,0,1,2.765.366A3.023,3.023,0,0,1-.863-11.94,3.861,3.861,0,0,1-.3-9.89a3.42,3.42,0,0,1-.937,2.44A4.742,4.742,0,0,1-4.128-6.188a4.667,4.667,0,0,1,1.085.677A9.352,9.352,0,0,1-1.549-3.7L.816,0H-1.447l-1.8-2.83q-.789-1.225-1.3-1.874a4.084,4.084,0,0,0-.914-.909,2.7,2.7,0,0,0-.821-.362,5.407,5.407,0,0,0-1-.065H-9.37V0Zm1.8-7.6H-5.5a5.8,5.8,0,0,0,1.93-.255A2.054,2.054,0,0,0-2.514-8.67a2.208,2.208,0,0,0,.362-1.22,2.027,2.027,0,0,0-.7-1.586A3.277,3.277,0,0,0-5.065-12.1h-4.3ZM2.5,0V-13.6H4.351L11.495-2.922V-13.6H13.22V0H11.374L4.23-10.687V0ZM14.751,0l5.223-13.6h1.939L27.479,0h-2.05L23.843-4.119H18.156L16.662,0Zm3.924-5.585h4.611L21.867-9.352q-.649-1.716-.965-2.82a17.338,17.338,0,0,1-.733,2.6ZM28.9,0V-13.6h1.846L37.889-2.922V-13.6h1.726V0H37.768L30.625-10.687V0ZM52.343-4.769l1.8.455A6.059,6.059,0,0,1,52.106-.932,5.611,5.611,0,0,1,48.511.232a6.46,6.46,0,0,1-3.576-.9,5.59,5.59,0,0,1-2.1-2.593A9.252,9.252,0,0,1,42.119-6.9a8.014,8.014,0,0,1,.812-3.706,5.562,5.562,0,0,1,2.31-2.4,6.75,6.75,0,0,1,3.3-.821,5.576,5.576,0,0,1,3.433,1.039,5.4,5.4,0,0,1,1.939,2.922l-1.772.417a4.2,4.2,0,0,0-1.373-2.162,3.659,3.659,0,0,0-2.264-.677,4.4,4.4,0,0,0-2.621.751A3.968,3.968,0,0,0,44.4-9.523a8.124,8.124,0,0,0-.427,2.612,8.3,8.3,0,0,0,.506,3.029,3.766,3.766,0,0,0,1.573,1.934,4.41,4.41,0,0,0,2.31.64,3.871,3.871,0,0,0,2.561-.872A4.463,4.463,0,0,0,52.343-4.769ZM56.4,0V-13.6h9.834V-12H58.2V-7.83h7.524v1.6H58.2V-1.6h8.35V0Z" transform="translate(-22638 -2515)" fill="#fff"/>
    </g>
  </g>
</svg>
