<svg xmlns="http://www.w3.org/2000/svg" width="163" height="193" viewBox="0 0 163 193">
  <g id="Qii_5" data-name="Qii 5" transform="translate(22927 2773)">
    <g id="Group_2478" data-name="Group 2478" transform="translate(9 -135)">
      <path id="Polygon_15" data-name="Polygon 15" d="M144.75,0,193,81.5,144.75,163H48.25L0,81.5,48.25,0Z" transform="translate(-22773 -2638) rotate(90)" fill="#f8c416"/>
      <path id="Path_5433" data-name="Path 5433" d="M24.785-3.066A23.2,23.2,0,0,0,29.648-.41L28.535,2.227a22.337,22.337,0,0,1-6.152-3.516A14.178,14.178,0,0,1,15.352.488,13.569,13.569,0,0,1,8.3-1.387,12.522,12.522,0,0,1,3.428-6.66a16.8,16.8,0,0,1-1.709-7.656,17.168,17.168,0,0,1,1.719-7.715A12.1,12.1,0,0,1,8.33-27.324a14.036,14.036,0,0,1,7.1-1.816,13.765,13.765,0,0,1,7.148,1.885,12.311,12.311,0,0,1,4.854,5.273,17.068,17.068,0,0,1,1.67,7.646,17.764,17.764,0,0,1-1.074,6.357A13.323,13.323,0,0,1,24.785-3.066ZM16.445-7.91a14.031,14.031,0,0,1,5.41,2.734q3.34-3.047,3.34-9.16a14.549,14.549,0,0,0-1.182-6.074,9.088,9.088,0,0,0-3.457-4.033,9.372,9.372,0,0,0-5.107-1.436,9.351,9.351,0,0,0-7.031,2.9q-2.793,2.9-2.793,8.662,0,5.586,2.764,8.574a9.191,9.191,0,0,0,7.061,2.988,9.706,9.706,0,0,0,3.828-.762,12.284,12.284,0,0,0-3.75-1.641ZM34.844,0V-28.633h3.789V0ZM45.957,0V-28.633h3.789V0ZM56.973,0V-4h4V0Zm9.141-7.5L69.8-7.812a6.619,6.619,0,0,0,1.9,4.053,5.17,5.17,0,0,0,3.6,1.357,5.612,5.612,0,0,0,4.3-1.914,7.213,7.213,0,0,0,1.758-5.078,6.52,6.52,0,0,0-1.689-4.746,5.891,5.891,0,0,0-4.424-1.738,6.13,6.13,0,0,0-3.066.771,5.954,5.954,0,0,0-2.148,2l-3.3-.43,2.773-14.707H83.75v3.359H72.324l-1.543,7.7a9.318,9.318,0,0,1,5.41-1.8,8.57,8.57,0,0,1,6.328,2.6A9.079,9.079,0,0,1,85.1-9.707a10.427,10.427,0,0,1-2.266,6.719A9.075,9.075,0,0,1,75.313.488,9.262,9.262,0,0,1,68.936-1.7,8.537,8.537,0,0,1,66.113-7.5Z" transform="translate(-22898 -2549)" fill="#fff"/>
      <path id="Path_5434" data-name="Path 5434" d="M-33.992-4.37l1.7-.148a3.749,3.749,0,0,0,.561,1.675,3.064,3.064,0,0,0,1.368,1.058,5.182,5.182,0,0,0,2.087.4,5,5,0,0,0,1.818-.306,2.522,2.522,0,0,0,1.174-.84A1.947,1.947,0,0,0-24.9-3.692a1.77,1.77,0,0,0-.371-1.118,2.749,2.749,0,0,0-1.225-.8,23.935,23.935,0,0,0-2.421-.663,12.372,12.372,0,0,1-2.625-.849,3.681,3.681,0,0,1-1.452-1.266,3.1,3.1,0,0,1-.478-1.693,3.457,3.457,0,0,1,.584-1.925,3.619,3.619,0,0,1,1.707-1.359,6.476,6.476,0,0,1,2.5-.464,6.818,6.818,0,0,1,2.667.487,3.847,3.847,0,0,1,1.777,1.433,4.117,4.117,0,0,1,.668,2.143l-1.726.13a2.784,2.784,0,0,0-.942-1.948,3.665,3.665,0,0,0-2.37-.659,3.8,3.8,0,0,0-2.38.6,1.8,1.8,0,0,0-.747,1.443A1.547,1.547,0,0,0-31.209-9,7.166,7.166,0,0,0-28.5-8.03a17.949,17.949,0,0,1,3.01.867,4.123,4.123,0,0,1,1.753,1.387,3.379,3.379,0,0,1,.566,1.934A3.7,3.7,0,0,1-23.787-1.8,4.093,4.093,0,0,1-25.573-.3a6.222,6.222,0,0,1-2.621.533,7.826,7.826,0,0,1-3.094-.538,4.333,4.333,0,0,1-1.958-1.619A4.59,4.59,0,0,1-33.992-4.37Zm12.738-2.254a7.391,7.391,0,0,1,1.818-5.3,6.182,6.182,0,0,1,4.694-1.916,6.512,6.512,0,0,1,3.4.9,5.877,5.877,0,0,1,2.305,2.51,8.151,8.151,0,0,1,.793,3.651,8.014,8.014,0,0,1-.835,3.7A5.7,5.7,0,0,1-11.448-.608a6.759,6.759,0,0,1-3.3.84A6.431,6.431,0,0,1-18.184-.7a5.97,5.97,0,0,1-2.292-2.533A7.676,7.676,0,0,1-21.254-6.624ZM-19.4-6.6a5.449,5.449,0,0,0,1.322,3.873A4.349,4.349,0,0,0-14.76-1.308a4.342,4.342,0,0,0,3.344-1.429A5.777,5.777,0,0,0-10.1-6.791a6.967,6.967,0,0,0-.561-2.9,4.313,4.313,0,0,0-1.642-1.92,4.452,4.452,0,0,0-2.426-.682,4.6,4.6,0,0,0-3.289,1.313Q-19.4-9.667-19.4-6.6ZM3.776-4.769l1.8.455A6.059,6.059,0,0,1,3.539-.932,5.611,5.611,0,0,1-.056.232a6.46,6.46,0,0,1-3.576-.9,5.59,5.59,0,0,1-2.1-2.593A9.252,9.252,0,0,1-6.448-6.9a8.014,8.014,0,0,1,.812-3.706,5.562,5.562,0,0,1,2.31-2.4,6.75,6.75,0,0,1,3.3-.821A5.576,5.576,0,0,1,3.4-12.793,5.4,5.4,0,0,1,5.344-9.871l-1.772.417A4.2,4.2,0,0,0,2.2-11.615a3.659,3.659,0,0,0-2.264-.677,4.4,4.4,0,0,0-2.621.751,3.968,3.968,0,0,0-1.48,2.018,8.124,8.124,0,0,0-.427,2.612,8.3,8.3,0,0,0,.506,3.029A3.766,3.766,0,0,0-2.514-1.948a4.41,4.41,0,0,0,2.31.64A3.871,3.871,0,0,0,2.356-2.18,4.463,4.463,0,0,0,3.776-4.769ZM8.1,0V-13.6H9.9V0Zm3.479,0L16.8-13.6H18.74L24.307,0h-2.05L20.67-4.119H14.983L13.489,0ZM15.5-5.585h4.611L18.694-9.352q-.649-1.716-.965-2.82A17.338,17.338,0,0,1,17-9.574ZM25.67,0V-13.6h1.8v12h6.7V0Z" transform="translate(-22854 -2516)" fill="#fff"/>
    </g>
  </g>
</svg>
