<svg xmlns="http://www.w3.org/2000/svg" width="163" height="193" viewBox="0 0 163 193">
  <g id="Qii_3" data-name="Qii 3" transform="translate(22673 3123)">
    <g id="Group_2476" data-name="Group 2476" transform="translate(263 -248)">
      <path id="Polygon_13" data-name="Polygon 13" d="M144.75,0,193,81.5,144.75,163H48.25L0,81.5,48.25,0Z" transform="translate(-22773 -2875) rotate(90)" fill="#a2cd4a"/>
      <path id="Path_5429" data-name="Path 5429" d="M24.785-3.066A23.2,23.2,0,0,0,29.648-.41L28.535,2.227a22.337,22.337,0,0,1-6.152-3.516A14.178,14.178,0,0,1,15.352.488,13.569,13.569,0,0,1,8.3-1.387,12.522,12.522,0,0,1,3.428-6.66a16.8,16.8,0,0,1-1.709-7.656,17.168,17.168,0,0,1,1.719-7.715A12.1,12.1,0,0,1,8.33-27.324a14.036,14.036,0,0,1,7.1-1.816,13.765,13.765,0,0,1,7.148,1.885,12.311,12.311,0,0,1,4.854,5.273,17.068,17.068,0,0,1,1.67,7.646,17.764,17.764,0,0,1-1.074,6.357A13.323,13.323,0,0,1,24.785-3.066ZM16.445-7.91a14.031,14.031,0,0,1,5.41,2.734q3.34-3.047,3.34-9.16a14.549,14.549,0,0,0-1.182-6.074,9.088,9.088,0,0,0-3.457-4.033,9.372,9.372,0,0,0-5.107-1.436,9.351,9.351,0,0,0-7.031,2.9q-2.793,2.9-2.793,8.662,0,5.586,2.764,8.574a9.191,9.191,0,0,0,7.061,2.988,9.706,9.706,0,0,0,3.828-.762,12.284,12.284,0,0,0-3.75-1.641ZM34.844,0V-28.633h3.789V0ZM45.957,0V-28.633h3.789V0ZM56.973,0V-4h4V0Zm9.16-7.559,3.516-.469a7.745,7.745,0,0,0,2.061,4.307A5.09,5.09,0,0,0,75.254-2.4a5.68,5.68,0,0,0,4.189-1.719,5.8,5.8,0,0,0,1.709-4.258,5.394,5.394,0,0,0-1.582-3.994,5.469,5.469,0,0,0-4.023-1.572,10.093,10.093,0,0,0-2.48.391l.391-3.086a5.373,5.373,0,0,0,.566.039,7.239,7.239,0,0,0,4.043-1.172,4.011,4.011,0,0,0,1.8-3.613,4.275,4.275,0,0,0-1.309-3.2,4.65,4.65,0,0,0-3.379-1.27,4.788,4.788,0,0,0-3.418,1.289A6.472,6.472,0,0,0,70-20.7l-3.516-.625a9.036,9.036,0,0,1,2.93-5.479A8.469,8.469,0,0,1,75.1-28.75a9.363,9.363,0,0,1,4.316,1.006A7.276,7.276,0,0,1,82.432-25a7.049,7.049,0,0,1,1.045,3.691,6.044,6.044,0,0,1-1,3.379,6.8,6.8,0,0,1-2.949,2.422,6.645,6.645,0,0,1,3.945,2.432,7.4,7.4,0,0,1,1.406,4.619A8.451,8.451,0,0,1,82.148-2.1,9.617,9.617,0,0,1,75.234.508a8.995,8.995,0,0,1-6.26-2.246A8.685,8.685,0,0,1,66.133-7.559Z" transform="translate(-22898 -2786)" fill="#fff"/>
      <path id="Path_5430" data-name="Path 5430" d="M-68.694,0V-13.6h9.834V-12h-8.034V-7.83h7.524v1.6h-7.524V-1.6h8.35V0Zm12.617,0V-13.6h1.846l7.144,10.678V-13.6h1.726V0h-1.846l-7.144-10.687V0ZM-38.45,0l-5.27-13.6h1.948l3.535,9.88q.427,1.188.714,2.227.315-1.113.733-2.227l3.674-9.88h1.837L-36.6,0Zm9.092,0V-13.6h1.8V0Zm5,0V-13.6h6.03a8.026,8.026,0,0,1,2.765.366,3.023,3.023,0,0,1,1.512,1.294,3.861,3.861,0,0,1,.566,2.05,3.42,3.42,0,0,1-.937,2.44,4.742,4.742,0,0,1-2.895,1.262,4.667,4.667,0,0,1,1.085.677A9.352,9.352,0,0,1-14.737-3.7L-12.371,0h-2.264l-1.8-2.83q-.789-1.225-1.3-1.874a4.084,4.084,0,0,0-.914-.909,2.7,2.7,0,0,0-.821-.362,5.407,5.407,0,0,0-1-.065h-2.087V0Zm1.8-7.6h3.869a5.8,5.8,0,0,0,1.93-.255A2.054,2.054,0,0,0-15.7-8.67a2.208,2.208,0,0,0,.362-1.22,2.027,2.027,0,0,0-.7-1.586,3.277,3.277,0,0,0-2.213-.622h-4.3Zm11.346.974a7.391,7.391,0,0,1,1.818-5.3A6.182,6.182,0,0,1-4.7-13.842a6.512,6.512,0,0,1,3.4.9A5.877,5.877,0,0,1,1-10.432,8.151,8.151,0,0,1,1.8-6.782,8.014,8.014,0,0,1,.96-3.08,5.7,5.7,0,0,1-1.406-.608a6.759,6.759,0,0,1-3.3.84A6.431,6.431,0,0,1-8.141-.7a5.97,5.97,0,0,1-2.292-2.533A7.676,7.676,0,0,1-11.212-6.624Zm1.855.028A5.449,5.449,0,0,0-8.034-2.723,4.349,4.349,0,0,0-4.718-1.308,4.342,4.342,0,0,0-1.373-2.737,5.777,5.777,0,0,0-.06-6.791a6.967,6.967,0,0,0-.561-2.9,4.313,4.313,0,0,0-1.642-1.92,4.452,4.452,0,0,0-2.426-.682A4.6,4.6,0,0,0-7.979-10.98Q-9.356-9.667-9.356-6.6ZM4.1,0V-13.6H5.942L13.086-2.922V-13.6h1.726V0H12.965L5.822-10.687V0ZM17.78,0V-13.6h2.709l3.219,9.63q.445,1.345.649,2.013.232-.742.724-2.18L28.338-13.6h2.421V0H29.024V-11.383L25.072,0H23.448L19.515-11.578V0ZM33.7,0V-13.6h9.834V-12H35.5V-7.83h7.524v1.6H35.5V-1.6h8.35V0ZM46.317,0V-13.6h1.846L55.307-2.922V-13.6h1.726V0H55.186L48.043-10.687V0Zm17.2,0V-12H59.036v-1.6h10.78V-12h-4.5V0Z" transform="translate(-22854 -2753)" fill="#fff"/>
    </g>
  </g>
</svg>
