<svg xmlns="http://www.w3.org/2000/svg" width="163" height="193" viewBox="0 0 163 193">
  <g id="Qii_2" data-name="Qii 2" transform="translate(22928 3123)">
    <g id="Group_2475" data-name="Group 2475" transform="translate(-208 -43)">
      <path id="Polygon_11" data-name="Polygon 11" d="M144.75,0,193,81.5,144.75,163H48.25L0,81.5,48.25,0Z" transform="translate(-22557 -3080) rotate(90)" fill="#23c0e9"/>
      <path id="Path_5427" data-name="Path 5427" d="M24.785-3.066A23.2,23.2,0,0,0,29.648-.41L28.535,2.227a22.337,22.337,0,0,1-6.152-3.516A14.178,14.178,0,0,1,15.352.488,13.569,13.569,0,0,1,8.3-1.387,12.522,12.522,0,0,1,3.428-6.66a16.8,16.8,0,0,1-1.709-7.656,17.168,17.168,0,0,1,1.719-7.715A12.1,12.1,0,0,1,8.33-27.324a14.036,14.036,0,0,1,7.1-1.816,13.765,13.765,0,0,1,7.148,1.885,12.311,12.311,0,0,1,4.854,5.273,17.068,17.068,0,0,1,1.67,7.646,17.764,17.764,0,0,1-1.074,6.357A13.323,13.323,0,0,1,24.785-3.066ZM16.445-7.91a14.031,14.031,0,0,1,5.41,2.734q3.34-3.047,3.34-9.16a14.549,14.549,0,0,0-1.182-6.074,9.088,9.088,0,0,0-3.457-4.033,9.372,9.372,0,0,0-5.107-1.436,9.351,9.351,0,0,0-7.031,2.9q-2.793,2.9-2.793,8.662,0,5.586,2.764,8.574a9.191,9.191,0,0,0,7.061,2.988,9.706,9.706,0,0,0,3.828-.762,12.284,12.284,0,0,0-3.75-1.641ZM34.844,0V-28.633h3.789V0ZM45.957,0V-28.633h3.789V0ZM56.973,0V-4h4V0ZM84.59-3.379V0H65.664a6.219,6.219,0,0,1,.41-2.441A12.916,12.916,0,0,1,68.389-6.25a36.26,36.26,0,0,1,4.6-4.336A38.992,38.992,0,0,0,79.3-16.65a7.262,7.262,0,0,0,1.641-4.229A4.7,4.7,0,0,0,79.443-24.4a5.389,5.389,0,0,0-3.9-1.436,5.491,5.491,0,0,0-4.062,1.523A5.764,5.764,0,0,0,69.941-20.1l-3.613-.371a8.894,8.894,0,0,1,2.793-6.162,9.527,9.527,0,0,1,6.5-2.119,9.076,9.076,0,0,1,6.523,2.285,7.5,7.5,0,0,1,2.4,5.664,8.591,8.591,0,0,1-.7,3.379,13.113,13.113,0,0,1-2.334,3.5,56.86,56.86,0,0,1-5.42,5.039q-3.164,2.656-4.062,3.6a11.56,11.56,0,0,0-1.484,1.9Z" transform="translate(-22682 -2991)" fill="#fff"/>
      <path id="Path_5428" data-name="Path 5428" d="M-50.747,0V-13.6h9.834V-12h-8.034V-7.83h7.524v1.6h-7.524V-1.6h8.35V0Zm22.34-4.769,1.8.455A6.059,6.059,0,0,1-28.644-.932,5.611,5.611,0,0,1-32.239.232a6.46,6.46,0,0,1-3.576-.9,5.59,5.59,0,0,1-2.1-2.593A9.252,9.252,0,0,1-38.631-6.9a8.014,8.014,0,0,1,.812-3.706,5.562,5.562,0,0,1,2.31-2.4,6.75,6.75,0,0,1,3.3-.821,5.576,5.576,0,0,1,3.433,1.039,5.4,5.4,0,0,1,1.939,2.922l-1.772.417a4.2,4.2,0,0,0-1.373-2.162,3.659,3.659,0,0,0-2.264-.677,4.4,4.4,0,0,0-2.621.751,3.968,3.968,0,0,0-1.48,2.018,8.124,8.124,0,0,0-.427,2.612,8.3,8.3,0,0,0,.506,3.029A3.766,3.766,0,0,0-34.7-1.948a4.41,4.41,0,0,0,2.31.64,3.871,3.871,0,0,0,2.561-.872A4.463,4.463,0,0,0-28.407-4.769Zm3.47-1.855a7.391,7.391,0,0,1,1.818-5.3,6.182,6.182,0,0,1,4.694-1.916,6.512,6.512,0,0,1,3.4.9,5.877,5.877,0,0,1,2.305,2.51,8.151,8.151,0,0,1,.793,3.651,8.014,8.014,0,0,1-.835,3.7A5.7,5.7,0,0,1-15.131-.608a6.759,6.759,0,0,1-3.3.84A6.431,6.431,0,0,1-21.867-.7a5.97,5.97,0,0,1-2.292-2.533A7.676,7.676,0,0,1-24.937-6.624Zm1.855.028A5.449,5.449,0,0,0-21.76-2.723a4.349,4.349,0,0,0,3.317,1.415A4.342,4.342,0,0,0-15.1-2.737a5.777,5.777,0,0,0,1.313-4.054,6.967,6.967,0,0,0-.561-2.9,4.313,4.313,0,0,0-1.642-1.92,4.452,4.452,0,0,0-2.426-.682A4.6,4.6,0,0,0-21.7-10.98Q-23.082-9.667-23.082-6.6ZM-9.63,0V-13.6h1.846L-.64-2.922V-13.6H1.085V0H-.761L-7.9-10.687V0ZM3.563-6.624a7.391,7.391,0,0,1,1.818-5.3,6.182,6.182,0,0,1,4.694-1.916,6.512,6.512,0,0,1,3.4.9,5.877,5.877,0,0,1,2.305,2.51,8.151,8.151,0,0,1,.793,3.651,8.014,8.014,0,0,1-.835,3.7A5.7,5.7,0,0,1,13.369-.608a6.759,6.759,0,0,1-3.3.84A6.431,6.431,0,0,1,6.633-.7,5.97,5.97,0,0,1,4.342-3.229,7.676,7.676,0,0,1,3.563-6.624ZM5.418-6.6A5.449,5.449,0,0,0,6.74-2.723a4.349,4.349,0,0,0,3.317,1.415A4.342,4.342,0,0,0,13.4-2.737a5.777,5.777,0,0,0,1.313-4.054,6.967,6.967,0,0,0-.561-2.9,4.313,4.313,0,0,0-1.642-1.92,4.452,4.452,0,0,0-2.426-.682A4.6,4.6,0,0,0,6.8-10.98Q5.418-9.667,5.418-6.6ZM18.833,0V-13.6h2.709l3.219,9.63q.445,1.345.649,2.013.232-.742.724-2.18L29.391-13.6h2.421V0H30.077V-11.383L26.125,0H24.5L20.568-11.578V0ZM35.022,0V-13.6h1.8V0ZM49.7-4.769l1.8.455A6.059,6.059,0,0,1,49.462-.932,5.611,5.611,0,0,1,45.867.232a6.46,6.46,0,0,1-3.576-.9,5.59,5.59,0,0,1-2.1-2.593A9.252,9.252,0,0,1,39.475-6.9a8.014,8.014,0,0,1,.812-3.706,5.562,5.562,0,0,1,2.31-2.4,6.75,6.75,0,0,1,3.3-.821,5.576,5.576,0,0,1,3.433,1.039,5.4,5.4,0,0,1,1.939,2.922l-1.772.417a4.2,4.2,0,0,0-1.373-2.162,3.659,3.659,0,0,0-2.264-.677,4.4,4.4,0,0,0-2.621.751,3.968,3.968,0,0,0-1.48,2.018,8.124,8.124,0,0,0-.427,2.612,8.3,8.3,0,0,0,.506,3.029,3.766,3.766,0,0,0,1.573,1.934,4.41,4.41,0,0,0,2.31.64,3.871,3.871,0,0,0,2.561-.872A4.463,4.463,0,0,0,49.7-4.769ZM-54.973,20V6.4h9.834V8h-8.034V12.17h7.524v1.6h-7.524V18.4h8.35V20Zm12.729,0V6.4h9.175V8h-7.375v4.212h6.383v1.6h-6.383V20Zm11.606,0V6.4h9.175V8h-7.375v4.212h6.383v1.6h-6.383V20Zm11.819,0V6.4h1.8V20Zm14.677-4.769,1.8.455a6.059,6.059,0,0,1-2.036,3.382,5.611,5.611,0,0,1-3.595,1.164,6.46,6.46,0,0,1-3.576-.9,5.59,5.59,0,0,1-2.1-2.593,9.252,9.252,0,0,1-.719-3.646,8.014,8.014,0,0,1,.812-3.706,5.562,5.562,0,0,1,2.31-2.4,6.75,6.75,0,0,1,3.3-.821A5.576,5.576,0,0,1-4.513,7.207a5.4,5.4,0,0,1,1.939,2.922l-1.772.417A4.2,4.2,0,0,0-5.719,8.385a3.659,3.659,0,0,0-2.264-.677,4.4,4.4,0,0,0-2.621.751,3.968,3.968,0,0,0-1.48,2.018,8.124,8.124,0,0,0-.427,2.612A8.3,8.3,0,0,0-12,16.117a3.766,3.766,0,0,0,1.573,1.934,4.41,4.41,0,0,0,2.31.64,3.871,3.871,0,0,0,2.561-.872A4.463,4.463,0,0,0-4.142,15.231ZM.181,20V6.4h1.8V20Zm5.01,0V6.4h9.834V8H6.99V12.17h7.524v1.6H6.99V18.4h8.35V20Zm12.617,0V6.4h1.846L26.8,17.078V6.4h1.726V20H26.677L19.533,9.313V20Zm23.444-4.769,1.8.455a6.059,6.059,0,0,1-2.036,3.382,5.611,5.611,0,0,1-3.595,1.164,6.46,6.46,0,0,1-3.576-.9,5.59,5.59,0,0,1-2.1-2.593,9.252,9.252,0,0,1-.719-3.646,8.014,8.014,0,0,1,.812-3.706,5.562,5.562,0,0,1,2.31-2.4,6.75,6.75,0,0,1,3.3-.821,5.576,5.576,0,0,1,3.433,1.039,5.4,5.4,0,0,1,1.939,2.922l-1.772.417a4.2,4.2,0,0,0-1.373-2.162,3.659,3.659,0,0,0-2.264-.677,4.4,4.4,0,0,0-2.621.751,3.968,3.968,0,0,0-1.48,2.018,8.124,8.124,0,0,0-.427,2.612,8.3,8.3,0,0,0,.506,3.029,3.766,3.766,0,0,0,1.573,1.934,4.41,4.41,0,0,0,2.31.64,3.871,3.871,0,0,0,2.561-.872A4.463,4.463,0,0,0,41.252,15.231ZM49.1,20V14.239L43.859,6.4h2.189l2.681,4.1q.742,1.15,1.382,2.3.612-1.067,1.484-2.4l2.635-4h2.1L50.9,14.239V20Z" transform="translate(-22638 -2958)" fill="#fff"/>
    </g>
  </g>
</svg>
