<svg xmlns="http://www.w3.org/2000/svg" width="163" height="193" viewBox="0 0 163 193">
  <g id="Qii_4" data-name="Qii 4" transform="translate(23187 2773)">
    <g id="Group_2477" data-name="Group 2477" transform="translate(-467 101)">
      <path id="Polygon_12" data-name="Polygon 12" d="M144.75,0,193,81.5,144.75,163H48.25L0,81.5,48.25,0Z" transform="translate(-22557 -2874) rotate(90)" fill="#dd7a27"/>
      <path id="Path_5431" data-name="Path 5431" d="M24.785-3.066A23.2,23.2,0,0,0,29.648-.41L28.535,2.227a22.337,22.337,0,0,1-6.152-3.516A14.178,14.178,0,0,1,15.352.488,13.569,13.569,0,0,1,8.3-1.387,12.522,12.522,0,0,1,3.428-6.66a16.8,16.8,0,0,1-1.709-7.656,17.168,17.168,0,0,1,1.719-7.715A12.1,12.1,0,0,1,8.33-27.324a14.036,14.036,0,0,1,7.1-1.816,13.765,13.765,0,0,1,7.148,1.885,12.311,12.311,0,0,1,4.854,5.273,17.068,17.068,0,0,1,1.67,7.646,17.764,17.764,0,0,1-1.074,6.357A13.323,13.323,0,0,1,24.785-3.066ZM16.445-7.91a14.031,14.031,0,0,1,5.41,2.734q3.34-3.047,3.34-9.16a14.549,14.549,0,0,0-1.182-6.074,9.088,9.088,0,0,0-3.457-4.033,9.372,9.372,0,0,0-5.107-1.436,9.351,9.351,0,0,0-7.031,2.9q-2.793,2.9-2.793,8.662,0,5.586,2.764,8.574a9.191,9.191,0,0,0,7.061,2.988,9.706,9.706,0,0,0,3.828-.762,12.284,12.284,0,0,0-3.75-1.641ZM34.844,0V-28.633h3.789V0ZM45.957,0V-28.633h3.789V0ZM56.973,0V-4h4V0Zm20.41,0V-6.855H64.961v-3.223L78.027-28.633H80.9v18.555h3.867v3.223H80.9V0Zm0-10.078v-12.91l-8.965,12.91Z" transform="translate(-22682 -2785)" fill="#fff"/>
      <path id="Path_5432" data-name="Path 5432" d="M-55,0V-13.6h6.03a8.026,8.026,0,0,1,2.765.366,3.023,3.023,0,0,1,1.512,1.294,3.861,3.861,0,0,1,.566,2.05,3.42,3.42,0,0,1-.937,2.44,4.742,4.742,0,0,1-2.895,1.262,4.667,4.667,0,0,1,1.085.677A9.352,9.352,0,0,1-45.375-3.7L-43.01,0h-2.264l-1.8-2.83q-.789-1.225-1.3-1.874a4.084,4.084,0,0,0-.914-.909,2.7,2.7,0,0,0-.821-.362,5.407,5.407,0,0,0-1-.065H-53.2V0Zm1.8-7.6h3.869a5.8,5.8,0,0,0,1.93-.255A2.054,2.054,0,0,0-46.34-8.67a2.208,2.208,0,0,0,.362-1.22,2.027,2.027,0,0,0-.7-1.586,3.277,3.277,0,0,0-2.213-.622h-4.3ZM-41.266,0V-13.6h9.834V-12h-8.034V-7.83h7.524v1.6h-7.524V-1.6h8.35V0Zm12.023-4.37,1.7-.148a3.749,3.749,0,0,0,.561,1.675,3.064,3.064,0,0,0,1.368,1.058,5.182,5.182,0,0,0,2.087.4,5,5,0,0,0,1.818-.306,2.522,2.522,0,0,0,1.174-.84,1.947,1.947,0,0,0,.385-1.164,1.77,1.77,0,0,0-.371-1.118,2.749,2.749,0,0,0-1.225-.8,23.935,23.935,0,0,0-2.421-.663,12.372,12.372,0,0,1-2.625-.849,3.681,3.681,0,0,1-1.452-1.266,3.1,3.1,0,0,1-.478-1.693,3.457,3.457,0,0,1,.584-1.925,3.619,3.619,0,0,1,1.707-1.359,6.476,6.476,0,0,1,2.5-.464,6.818,6.818,0,0,1,2.667.487,3.847,3.847,0,0,1,1.777,1.433,4.117,4.117,0,0,1,.668,2.143l-1.726.13a2.784,2.784,0,0,0-.942-1.948,3.665,3.665,0,0,0-2.37-.659,3.8,3.8,0,0,0-2.38.6,1.8,1.8,0,0,0-.747,1.443A1.547,1.547,0,0,0-26.459-9a7.166,7.166,0,0,0,2.714.969,17.949,17.949,0,0,1,3.01.867,4.123,4.123,0,0,1,1.753,1.387,3.379,3.379,0,0,1,.566,1.934A3.7,3.7,0,0,1-19.037-1.8,4.093,4.093,0,0,1-20.823-.3a6.222,6.222,0,0,1-2.621.533,7.826,7.826,0,0,1-3.094-.538A4.333,4.333,0,0,1-28.5-1.925,4.59,4.59,0,0,1-29.242-4.37ZM-15.651,0V-13.6h1.8V0Zm4.9,0V-13.6h1.8v12h6.7V0ZM.195,0V-13.6h1.8V0ZM5.2,0V-13.6h9.834V-12H7V-7.83h7.524v1.6H7V-1.6h8.35V0ZM17.822,0V-13.6h1.846L26.812-2.922V-13.6h1.726V0H26.691L19.547-10.687V0ZM41.266-4.769l1.8.455A6.059,6.059,0,0,1,41.029-.932,5.611,5.611,0,0,1,37.434.232a6.46,6.46,0,0,1-3.576-.9,5.59,5.59,0,0,1-2.1-2.593A9.252,9.252,0,0,1,31.042-6.9a8.014,8.014,0,0,1,.812-3.706,5.562,5.562,0,0,1,2.31-2.4,6.75,6.75,0,0,1,3.3-.821,5.576,5.576,0,0,1,3.433,1.039,5.4,5.4,0,0,1,1.939,2.922l-1.772.417a4.2,4.2,0,0,0-1.373-2.162,3.659,3.659,0,0,0-2.264-.677,4.4,4.4,0,0,0-2.621.751,3.968,3.968,0,0,0-1.48,2.018A8.124,8.124,0,0,0,32.9-6.912,8.3,8.3,0,0,0,33.4-3.883a3.766,3.766,0,0,0,1.573,1.934,4.41,4.41,0,0,0,2.31.64,3.871,3.871,0,0,0,2.561-.872A4.463,4.463,0,0,0,41.266-4.769ZM45.32,0V-13.6h9.834V-12H47.12V-7.83h7.524v1.6H47.12V-1.6h8.35V0Z" transform="translate(-22638 -2752)" fill="#fff"/>
    </g>
  </g>
</svg>
