<svg xmlns="http://www.w3.org/2000/svg" width="85.556" height="102.129" viewBox="0 0 85.556 102.129">
  <g id="Diagnosing_vulnerabilities_" data-name="Diagnosing vulnerabilities " transform="translate(-2104.636 -507.009)">
    <g id="Group_2384" data-name="Group 2384" transform="translate(2105.154 508.009)">
      <path id="Path_5409" data-name="Path 5409" d="M2147.334,507.009h0a1,1,0,0,1,.8.4,38.507,38.507,0,0,0,7.969,7.287,39.4,39.4,0,0,0,22.548,7.238,42.6,42.6,0,0,0,9.67-1.147,1,1,0,0,1,1.223.878c.431,4.484.65,9.082.65,13.668,0,12.979-.152,21.9-.927,29.116-.847,7.88-2.436,13.489-5.151,18.187s-6.663,8.673-12.813,12.916c-6.075,4.191-14.237,8.581-23.5,13.473a1,1,0,0,1-.934,0c-9.466-5-15.972-8.556-21.214-11.948-5.881-3.8-9.806-7.174-12.728-10.926a33.931,33.931,0,0,1-6.283-13.925c-1.139-5.068-1.758-11.415-2.006-20.583,0-.01,0-.02,0-.03,0-1.041.067-25.545.49-29.948a1,1,0,0,1,1.223-.878,42.6,42.6,0,0,0,9.67,1.147,39.4,39.4,0,0,0,22.606-7.28,38.247,38.247,0,0,0,7.91-7.244A1,1,0,0,1,2147.334,507.009Zm31.315,16.922a40.234,40.234,0,0,1-13.7-2.391,43.924,43.924,0,0,1-17.618-11.962,43.933,43.933,0,0,1-17.619,11.962,40.226,40.226,0,0,1-13.7,2.391,44.2,44.2,0,0,1-8.98-.947c-.341,6.37-.4,27.939-.4,28.616.424,15.6,1.8,25.531,7.867,33.318,5.614,7.211,14.775,12.545,32.831,22.088,18.747-9.9,29.644-16.026,35.049-25.375,5.236-9.057,5.809-21.658,5.809-46.3,0-4.139-.181-8.288-.537-12.351A44.209,44.209,0,0,1,2178.649,523.931Z" transform="translate(-2105.154 -508.009)"/>
    </g>
    <g id="Group_2385" data-name="Group 2385" transform="translate(2139.996 528.852)">
      <path id="Path_5410" data-name="Path 5410" d="M2185.4,550.719a8.176,8.176,0,0,1,8.162,8.674l-1.964,32.19a6.209,6.209,0,0,1-12.4,0l-1.964-32.19a8.177,8.177,0,0,1,8.161-8.674Zm0,44.7a4.216,4.216,0,0,0,4.2-3.953l1.964-32.19a6.177,6.177,0,1,0-12.331,0l1.964,32.19A4.215,4.215,0,0,0,2185.4,595.415Z" transform="translate(-2178.221 -551.719)"/>
      <path id="Ellipse_316" data-name="Ellipse 316" d="M5.371-1A6.371,6.371,0,1,1-1,5.371,6.378,6.378,0,0,1,5.371-1Zm0,10.742A4.371,4.371,0,1,0,1,5.371,4.376,4.376,0,0,0,5.371,9.742Z" transform="translate(1.806 52.972)"/>
    </g>
  </g>
</svg>
