<svg xmlns="http://www.w3.org/2000/svg" width="81.252" height="85.182" viewBox="0 0 81.252 85.182">
  <g id="Financing_resilience" data-name="Financing resilience" transform="translate(1 1)">
    <g id="Group_3090" data-name="Group 3090" transform="translate(5.28 1.32)">
      <g id="Group_3089" data-name="Group 3089">
        <path id="Line_669" data-name="Line 669" d="M0,27.27a1,1,0,0,1-1-1V0A1,1,0,0,1,0-1,1,1,0,0,1,1,0V26.27A1,1,0,0,1,0,27.27Z" transform="translate(6.641 23.846)"/>
        <path id="Line_670" data-name="Line 670" d="M0,25.946a1,1,0,0,1-1-1V0A1,1,0,0,1,0-1,1,1,0,0,1,1,0V24.946A1,1,0,0,1,0,25.946Z" transform="translate(62.051 23.846)"/>
        <path id="Rectangle_1840" data-name="Rectangle 1840" d="M0-1H15.674a1,1,0,0,1,1,1V15.674a1,1,0,0,1-1,1H0a1,1,0,0,1-1-1V0A1,1,0,0,1,0-1ZM14.674,1H1V14.674H14.674Z" transform="translate(14.588 27.82)"/>
        <path id="Rectangle_1841" data-name="Rectangle 1841" d="M0-1H15.895a1,1,0,0,1,1,1V20.972a1,1,0,0,1-1,1H0a1,1,0,0,1-1-1V0A1,1,0,0,1,0-1ZM14.895,1H1V19.972H14.895Z" transform="translate(38.209 27.82)"/>
        <path id="Path_6315" data-name="Path 6315" d="M318.637,226.039a1,1,0,0,1-.645-.237L284.319,197.31,250.646,225.8a1,1,0,0,1-1.292-1.527l34.319-29.039a1,1,0,0,1,1.292,0l34.319,29.039a1,1,0,0,1-.646,1.763Z" transform="translate(-250 -196)"/>
        <g id="Group_3088" data-name="Group 3088" transform="translate(27.74 9.281)">
          <path id="Path_6316" data-name="Path 6316" d="M277.595,217.19a7.579,7.579,0,1,1,7.579-7.579A7.587,7.587,0,0,1,277.595,217.19Zm0-13.159a5.579,5.579,0,1,0,5.579,5.58A5.586,5.586,0,0,0,277.595,204.031Z" transform="translate(-271.015 -203.031)"/>
          <path id="Line_671" data-name="Line 671" d="M0,14.158a1,1,0,0,1-1-1V0A1,1,0,0,1,0-1,1,1,0,0,1,1,0V13.158A1,1,0,0,1,0,14.158Z" transform="translate(6.579 0)"/>
          <path id="Line_672" data-name="Line 672" d="M13.158,1H0A1,1,0,0,1-1,0,1,1,0,0,1,0-1H13.158a1,1,0,0,1,1,1A1,1,0,0,1,13.158,1Z" transform="translate(0 6.579)"/>
        </g>
        <path id="Line_673" data-name="Line 673" d="M0,16.674a1,1,0,0,1-1-1V0A1,1,0,0,1,0-1,1,1,0,0,1,1,0V15.674A1,1,0,0,1,0,16.674Z" transform="translate(22.536 29.145)"/>
        <path id="Line_674" data-name="Line 674" d="M15.674,1H0A1,1,0,0,1-1,0,1,1,0,0,1,0-1H15.674a1,1,0,0,1,1,1A1,1,0,0,1,15.674,1Z" transform="translate(14.588 35.546)"/>
        <path id="Line_675" data-name="Line 675" d="M2.649,1H0A1,1,0,0,1-1,0,1,1,0,0,1,0-1H2.649a1,1,0,0,1,1,1A1,1,0,0,1,2.649,1Z" transform="translate(47.481 39.52)"/>
        <path id="Line_676" data-name="Line 676" d="M0,19.892a1,1,0,0,1-1-1V0A1,1,0,0,1,0-1,1,1,0,0,1,1,0V18.892A1,1,0,0,1,0,19.892Z" transform="translate(59.398 2.64)"/>
        <path id="Path_6317" data-name="Path 6317" d="M287,208.58a1,1,0,0,1-1-1V199a1,1,0,0,1,1-1h6.6a1,1,0,0,1,0,2H288v7.58A1,1,0,0,1,287,208.58Z" transform="translate(-238.162 -195.04)"/>
      </g>
    </g>
    <g id="Group_3091" data-name="Group 3091" transform="translate(0 19.868)">
      <path id="Line_677" data-name="Line 677" d="M5.3,1H0A1,1,0,0,1-1,0,1,1,0,0,1,0-1H5.3a1,1,0,0,1,1,1A1,1,0,0,1,5.3,1Z"/>
      <path id="Line_678" data-name="Line 678" d="M2.649,1H0A1,1,0,0,1-1,0,1,1,0,0,1,0-1H2.649a1,1,0,0,1,1,1A1,1,0,0,1,2.649,1Z" transform="translate(7.947)"/>
    </g>
    <g id="Group_3092" data-name="Group 3092" transform="translate(68.656 11.921)">
      <path id="Line_679" data-name="Line 679" d="M5.3,1H0A1,1,0,0,1-1,0,1,1,0,0,1,0-1H5.3a1,1,0,0,1,1,1A1,1,0,0,1,5.3,1Z" transform="translate(0)"/>
      <path id="Line_680" data-name="Line 680" d="M2.649,1H0A1,1,0,0,1-1,0,1,1,0,0,1,0-1H2.649a1,1,0,0,1,1,1A1,1,0,0,1,2.649,1Z" transform="translate(7.947)"/>
    </g>
    <g id="Group_3095" data-name="Group 3095" transform="translate(0 0)">
      <g id="Group_3093" data-name="Group 3093">
        <path id="Path_6318" data-name="Path 6318" d="M251.28,206.56H246a1,1,0,1,1,0-2h4.359a6.3,6.3,0,0,1,5.269-5.211,6.28,6.28,0,0,1,12.491.931,1,1,0,0,1-2,0,4.28,4.28,0,0,0-8.56,0,1,1,0,0,1-1,1,4.285,4.285,0,0,0-4.28,4.28A1,1,0,0,1,251.28,206.56Z" transform="translate(-246 -195)"/>
      </g>
      <g id="Group_3094" data-name="Group 3094" transform="translate(18.479 5.28)">
        <path id="Path_6319" data-name="Path 6319" d="M270.56,205.28a1,1,0,0,1-1-1,4.28,4.28,0,0,0-8.56,0,1,1,0,0,1-2,0,6.28,6.28,0,0,1,12.56,0A1,1,0,0,1,270.56,205.28Z" transform="translate(-260 -199)"/>
      </g>
      <path id="Line_681" data-name="Line 681" d="M5.3,1H0A1,1,0,0,1-1,0,1,1,0,0,1,0-1H5.3a1,1,0,0,1,1,1A1,1,0,0,1,5.3,1Z" transform="translate(14.57 11.921)"/>
      <path id="Line_682" data-name="Line 682" d="M2.649,1H0A1,1,0,0,1-1,0,1,1,0,0,1,0-1H2.649a1,1,0,0,1,1,1A1,1,0,0,1,2.649,1Z" transform="translate(9.272 11.921)"/>
    </g>
    <g id="Group_3104" data-name="Group 3104" transform="translate(10.537 54.118)">
      <g id="Group_3099" data-name="Group 3099" transform="translate(31.679)">
        <g id="Group_3098" data-name="Group 3098">
          <g id="Group_3097" data-name="Group 3097">
            <g id="Group_3096" data-name="Group 3096">
              <path id="Path_6320" data-name="Path 6320" d="M292.888,265.737a1,1,0,0,1-1-1v-2.225a3.51,3.51,0,0,1,.882-2.2l3.726-4.866a10.934,10.934,0,0,0,2.243-6.615V238.018h-.361a2.963,2.963,0,0,0-2.96,2.96v7.833a1,1,0,1,1-2,0v-7.833a4.966,4.966,0,0,1,4.96-4.96h1.361a1,1,0,0,1,1,1v11.814a12.944,12.944,0,0,1-2.655,7.831l-3.76,4.911a1,1,0,0,1-.088.1,1.56,1.56,0,0,0-.347.837v2.225A1,1,0,0,1,292.888,265.737Z" transform="translate(-273.214 -235.674)"/>
              <path id="Line_683" data-name="Line 683" d="M0,7.672a1,1,0,0,1-1-1V0A1,1,0,0,1,0-1,1,1,0,0,1,1,0V6.672A1,1,0,0,1,0,7.672Z" transform="translate(15.856)"/>
              <path id="Path_6321" data-name="Path 6321" d="M286.92,242.671h-2V236h2Z" transform="translate(-275.443 -236)"/>
              <path id="Path_6322" data-name="Path 6322" d="M281.961,243.671a1,1,0,0,1-1-.993l-.043-6.671a1,1,0,0,1,.993-1.007h.007a1,1,0,0,1,1,.993l.024,3.706a1,1,0,0,1,.019.2v2.775a1,1,0,0,1-1,1Z" transform="translate(-276.724 -236)"/>
              <path id="Path_6323" data-name="Path 6323" d="M280.726,266.064a1,1,0,0,1-1-1v-2.542a40.282,40.282,0,0,1-2.743-14.558V236a1,1,0,1,1,2,0v11.964a38.289,38.289,0,0,0,2.614,13.851,1.567,1.567,0,0,1,.129.585v2.665A1,1,0,0,1,280.726,266.064Z" transform="translate(-277.983 -236)"/>
            </g>
          </g>
        </g>
        <path id="Path_6324" data-name="Path 6324" d="M285.983,251.3a1,1,0,0,1-1-1,6.287,6.287,0,0,1,6.28-6.28h6.6a1,1,0,0,1,0,2h-6.6a4.285,4.285,0,0,0-4.28,4.28A1,1,0,0,1,285.983,251.3Z" transform="translate(-275.423 -233.115)"/>
      </g>
      <g id="Group_3103" data-name="Group 3103">
        <g id="Group_3102" data-name="Group 3102">
          <g id="Group_3101" data-name="Group 3101">
            <g id="Group_3100" data-name="Group 3100">
              <path id="Path_6325" data-name="Path 6325" d="M260.832,265.737a1,1,0,0,1-1-1v-2.225a1.559,1.559,0,0,0-.346-.837,1,1,0,0,1-.088-.1l-3.761-4.912a12.944,12.944,0,0,1-2.655-7.831V237.018a1,1,0,0,1,1-1h1.361a4.966,4.966,0,0,1,4.96,4.96v7.833a1,1,0,1,1-2,0v-7.833a2.963,2.963,0,0,0-2.96-2.96h-.361v10.814a10.934,10.934,0,0,0,2.242,6.615l3.726,4.866a3.51,3.51,0,0,1,.881,2.2v2.225A1,1,0,0,1,260.832,265.737Z" transform="translate(-253.983 -235.674)"/>
              <path id="Line_684" data-name="Line 684" d="M0,7.672a1,1,0,0,1-1-1V0A1,1,0,0,1,0-1,1,1,0,0,1,1,0V6.672A1,1,0,0,1,0,7.672Z" transform="translate(10.669)"/>
              <path id="Path_6326" data-name="Path 6326" d="M267.141,242.671h-2V236h2Z" transform="translate(-250.093 -236)"/>
              <path id="Path_6327" data-name="Path 6327" d="M270.111,243.671h0a1,1,0,0,1-1-1V239.9a1.006,1.006,0,0,1,.019-.2l.024-3.706a1,1,0,0,1,1-.993h.007a1,1,0,0,1,.993,1.007l-.043,6.671A1,1,0,0,1,270.111,243.671Z" transform="translate(-248.823 -236)"/>
              <path id="Path_6328" data-name="Path 6328" d="M272,266.064a1,1,0,0,1-1-1V262.4a1.565,1.565,0,0,1,.129-.585,38.32,38.32,0,0,0,2.613-13.85V236a1,1,0,1,1,2,0v11.964A40.307,40.307,0,0,1,273,262.522v2.542A1,1,0,0,1,272,266.064Z" transform="translate(-248.218 -236)"/>
            </g>
          </g>
        </g>
        <path id="Path_6329" data-name="Path 6329" d="M268.958,251.3a1,1,0,0,1-1-1,4.285,4.285,0,0,0-4.28-4.28h-6.6a1,1,0,0,1,0-2h6.6a6.287,6.287,0,0,1,6.28,6.28A1,1,0,0,1,268.958,251.3Z" transform="translate(-252.993 -233.115)"/>
      </g>
    </g>
    <path id="Line_685" data-name="Line 685" d="M36.867,1H0A1,1,0,0,1-1,0,1,1,0,0,1,0-1H36.867a1,1,0,0,1,1,1A1,1,0,0,1,36.867,1Z" transform="translate(2.649 50.112)"/>
    <path id="Line_686" data-name="Line 686" d="M13.245,1H0A1,1,0,0,1-1,0,1,1,0,0,1,0-1H13.245a1,1,0,0,1,1,1A1,1,0,0,1,13.245,1Z" transform="translate(63.357 50.112)"/>
  </g>
</svg>
