<svg xmlns="http://www.w3.org/2000/svg" width="101.521" height="102.129" viewBox="0 0 101.521 102.129">
  <g id="Financing_resilience_" data-name="Financing resilience " transform="translate(-15.582 -15.5)">
    <path id="Line_262" data-name="Line 262" d="M0,4.708a1,1,0,0,1-1-1V0A1,1,0,0,1,0-1,1,1,0,0,1,1,0V3.708A1,1,0,0,1,0,4.708Z" transform="translate(66.342 64.71)"/>
    <path id="Line_263" data-name="Line 263" d="M0,4.708a1,1,0,0,1-1-1V0A1,1,0,0,1,0-1,1,1,0,0,1,1,0V3.708A1,1,0,0,1,0,4.708Z" transform="translate(66.342 83.253)"/>
    <path id="Path_5613" data-name="Path 5613" d="M32.708,46.334A4.714,4.714,0,0,1,28,41.625a1,1,0,0,1,2,0,2.708,2.708,0,1,0,2.708-2.708,4.708,4.708,0,1,1,4.708-4.708,1,1,0,0,1-2,0,2.708,2.708,0,1,0-2.708,2.708,4.708,4.708,0,0,1,0,9.417Z" transform="translate(33.634 37.919)"/>
    <path id="Rectangle_1677" data-name="Rectangle 1677" d="M1.061-1H32.316a2.063,2.063,0,0,1,2.061,2.061v9a2.063,2.063,0,0,1-2.061,2.061H1.061A2.063,2.063,0,0,1-1,10.065v-9A2.063,2.063,0,0,1,1.061-1ZM32.316,10.125a.061.061,0,0,0,.061-.061v-9A.061.061,0,0,0,32.316,1H1.061A.061.061,0,0,0,1,1.061v9a.061.061,0,0,0,.061.061Z" transform="translate(49.654 105.503)"/>
    <path id="Rectangle_1678" data-name="Rectangle 1678" d="M1.061-1H32.316a2.063,2.063,0,0,1,2.061,2.061v9a2.063,2.063,0,0,1-2.061,2.061H1.061A2.063,2.063,0,0,1-1,10.065v-9A2.063,2.063,0,0,1,1.061-1ZM32.316,10.125a.061.061,0,0,0,.061-.061v-9A.061.061,0,0,0,32.316,1H1.061A.061.061,0,0,0,1,1.061v9a.061.061,0,0,0,.061.061Z" transform="translate(49.654 94.378)"/>
    <path id="Path_5614" data-name="Path 5614" d="M16.583,62l-.056,0a1,1,0,0,1-.945-1,8.9,8.9,0,0,1,.286-2.233,51.075,51.075,0,0,1,100.949,0A8.889,8.889,0,0,1,117.1,61a1,1,0,0,1-1.994.11c-.071-.644-.156-1.295-.253-1.934-1.32-4.811-7.674-8.3-15.137-8.3a20.455,20.455,0,0,0-11.245,3.09c-2.865,1.91-4.443,4.408-4.443,7.035a1,1,0,1,1-2,0c0-2.627-1.578-5.125-4.443-7.035a20.455,20.455,0,0,0-11.245-3.09A20.455,20.455,0,0,0,55.1,53.967c-2.865,1.91-4.443,4.408-4.443,7.035a1,1,0,1,1-2,0c0-2.627-1.578-5.125-4.443-7.035a20.455,20.455,0,0,0-11.245-3.09c-7.464,0-13.818,3.488-15.137,8.3-.1.64-.182,1.29-.253,1.934A1,1,0,0,1,16.583,62Zm49.76-13.125A22.465,22.465,0,0,1,78.7,52.3a13.11,13.11,0,0,1,3.866,3.833q.256.4.467.815.211-.412.467-.815A13.111,13.111,0,0,1,87.364,52.3a22.465,22.465,0,0,1,12.355-3.426,24.749,24.749,0,0,1,6.017.723,20,20,0,0,1,5.088,2.015,15.212,15.212,0,0,1,2.886,2.124,49.077,49.077,0,0,0-94.736,0,15.206,15.206,0,0,1,2.886-2.124A19.991,19.991,0,0,1,26.949,49.6a24.746,24.746,0,0,1,6.017-.723A22.465,22.465,0,0,1,45.321,52.3a13.11,13.11,0,0,1,3.866,3.833q.256.4.467.815.211-.412.467-.815A13.11,13.11,0,0,1,53.988,52.3,22.465,22.465,0,0,1,66.342,48.876Z"/>
    <path id="Path_5615" data-name="Path 5615" d="M58.876,62a1,1,0,0,1-1-.964c-.438-12.005-2.37-23.13-5.441-31.323a30.926,30.926,0,0,0-4.949-9.132c-1.745-2.045-3.528-3.082-5.3-3.082s-3.553,1.037-5.3,3.082a30.926,30.926,0,0,0-4.949,9.132c-3.071,8.194-5,19.318-5.441,31.323a1,1,0,0,1-2-.073c.445-12.215,2.422-23.562,5.567-31.953a32.853,32.853,0,0,1,5.3-9.729c2.142-2.511,4.437-3.784,6.82-3.784s4.677,1.273,6.82,3.784a32.852,32.852,0,0,1,5.3,9.729c3.145,8.39,5.122,19.738,5.567,31.953A1,1,0,0,1,58.913,62Z" transform="translate(24.154)"/>
  </g>
</svg>
