<svg xmlns="http://www.w3.org/2000/svg" width="87" height="84" viewBox="0 0 87 84">
  <g id="Managing_cybersecurity_risks_" data-name="Managing cybersecurity risks " transform="translate(-614 -475)">
    <path id="Rectangle_1852" data-name="Rectangle 1852" d="M2,2V16H85V2H2M0,0H87V18H0Z" transform="translate(614 475)"/>
    <path id="Rectangle_1853" data-name="Rectangle 1853" d="M2,2V16H85V2H2M0,0H87V18H0Z" transform="translate(614 500)"/>
    <path id="Rectangle_1854" data-name="Rectangle 1854" d="M2,2V16H85V2H2M0,0H87V18H0Z" transform="translate(614 526)"/>
    <g id="Group_3237" data-name="Group 3237" transform="translate(624.765 483.808)">
      <path id="Path_6860" data-name="Path 6860" d="M-19755.99,6302h-30.414a1,1,0,0,1-1-1,1,1,0,0,1,1-1h30.414a1,1,0,0,1,1,1A1,1,0,0,1-19755.99,6302Z" transform="translate(19786.404 -6301)"/>
      <path id="Path_6861" data-name="Path 6861" d="M-19755.99,6302h-30.414a1,1,0,0,1-1-1,1,1,0,0,1,1-1h30.414a1,1,0,0,1,1,1A1,1,0,0,1-19755.99,6302Z" transform="translate(19820.656 -6301)"/>
    </g>
    <g id="Group_3236" data-name="Group 3236" transform="translate(625.742 509.252)">
      <path id="Path_6862" data-name="Path 6862" d="M-19781.74,6328h-4.664a1,1,0,0,1-1-1,1,1,0,0,1,1-1h4.664a1,1,0,0,1,1,1A1,1,0,0,1-19781.74,6328Z" transform="translate(19786.404 -6327)"/>
      <path id="Path_6863" data-name="Path 6863" d="M-19781.74,6328h-4.664a1,1,0,0,1-1-1,1,1,0,0,1,1-1h4.664a1,1,0,0,1,1,1A1,1,0,0,1-19781.74,6328Z" transform="translate(19796.191 -6327)"/>
      <path id="Path_6864" data-name="Path 6864" d="M-19781.74,6328h-4.664a1,1,0,0,1-1-1,1,1,0,0,1,1-1h4.664a1,1,0,0,1,1,1A1,1,0,0,1-19781.74,6328Z" transform="translate(19835.336 -6327)"/>
      <path id="Path_6865" data-name="Path 6865" d="M-19781.74,6328h-4.664a1,1,0,0,1-1-1,1,1,0,0,1,1-1h4.664a1,1,0,0,1,1,1A1,1,0,0,1-19781.74,6328Z" transform="translate(19845.121 -6327)"/>
    </g>
    <g id="Group_3238" data-name="Group 3238" transform="translate(625.745 534.696)">
      <path id="Path_6866" data-name="Path 6866" d="M-19774.434,6354H-19786a1,1,0,0,1-1-1,1,1,0,0,1,1-1h11.57a1,1,0,0,1,1,1A1,1,0,0,1-19774.434,6354Z" transform="translate(19786.004 -6353)"/>
      <path id="Path_6867" data-name="Path 6867" d="M-19774.434,6354H-19786a1,1,0,0,1-1-1,1,1,0,0,1,1-1h11.57a1,1,0,0,1,1,1A1,1,0,0,1-19774.434,6354Z" transform="translate(19837.871 -6353)"/>
    </g>
    <g id="lock" transform="translate(638.465 508.273)">
      <rect id="Rectangle_1690" data-name="Rectangle 1690" width="40" height="29" rx="6" transform="translate(-0.465 20.727)" fill="#fff"/>
      <path id="Rectangle_1690_-_Outline" data-name="Rectangle 1690 - Outline" d="M6-1H34a7.008,7.008,0,0,1,7,7V23a7.008,7.008,0,0,1-7,7H6a7.008,7.008,0,0,1-7-7V6A7.008,7.008,0,0,1,6-1ZM34,28a5.006,5.006,0,0,0,5-5V6a5.006,5.006,0,0,0-5-5H6A5.006,5.006,0,0,0,1,6V23a5.006,5.006,0,0,0,5,5Z" transform="translate(-0.465 20.727)"/>
      <path id="Path_5717" data-name="Path 5717" d="M2172.241,750.017v-8.9a11.121,11.121,0,1,0-22.241,0v8.9Z" transform="translate(-2141.549 -730)" fill="#fff"/>
      <path id="Path_5717_-_Outline" data-name="Path 5717 - Outline" d="M2172.241,751.017H2150a1,1,0,0,1-1-1v-8.9a12.121,12.121,0,0,1,24.241,0v8.9A1,1,0,0,1,2172.241,751.017Zm-21.241-2h20.241v-7.9a10.121,10.121,0,1,0-20.241,0Z" transform="translate(-2141.549 -730)"/>
      <path id="Ellipse_384" data-name="Ellipse 384" d="M5-1A6.659,6.659,0,0,1,9.16.391,4.6,4.6,0,0,1,11,4,4.6,4.6,0,0,1,9.16,7.609,6.659,6.659,0,0,1,5,9,6.659,6.659,0,0,1,.84,7.609,4.6,4.6,0,0,1-1,4,4.6,4.6,0,0,1,.84.391,6.659,6.659,0,0,1,5-1ZM5,7a4.656,4.656,0,0,0,2.911-.952A2.644,2.644,0,0,0,9,4,2.644,2.644,0,0,0,7.911,1.952,4.656,4.656,0,0,0,5,1a4.656,4.656,0,0,0-2.911.952A2.644,2.644,0,0,0,1,4,2.644,2.644,0,0,0,2.089,6.048,4.656,4.656,0,0,0,5,7Z" transform="translate(14.535 30.727)"/>
      <path id="Line_292" data-name="Line 292" d="M0,3A1,1,0,0,1-1,2V0A1,1,0,0,1,0-1,1,1,0,0,1,1,0V2A1,1,0,0,1,0,3Z" transform="translate(19.535 38.727)"/>
    </g>
  </g>
</svg>
