<svg xmlns="http://www.w3.org/2000/svg" width="102.351" height="102.129" viewBox="0 0 102.351 102.129">
  <g id="Managing_cybersecurity_risks" data-name="Managing cybersecurity risks" transform="translate(-1129.272 -729.5)">
    <path id="Ellipse_382" data-name="Ellipse 382" d="M36.493-1A37.5,37.5,0,0,1,51.088,71.04,37.5,37.5,0,0,1,21.9,1.947,37.26,37.26,0,0,1,36.493-1Zm0,72.987A35.493,35.493,0,1,0,1,36.493,35.534,35.534,0,0,0,36.493,71.987Z" transform="translate(1130.272 730.5)"/>
    <path id="Line_291" data-name="Line 291" d="M12.776,13.753a1,1,0,0,1-.706-.292L-.706.708a1,1,0,0,1,0-1.414,1,1,0,0,1,1.414,0L13.483,12.045a1,1,0,0,1-.706,1.708Z" transform="translate(1192.566 792.594)"/>
    <path id="Path_5714" data-name="Path 5714" d="M1302.253,912.932a10.6,10.6,0,0,1-7.545-3.125l-15.414-15.414a1,1,0,0,1,0-1.414l13.685-13.685a1,1,0,0,1,1.414,0l15.414,15.414a10.683,10.683,0,0,1,0,15.091l-.009.009A10.6,10.6,0,0,1,1302.253,912.932Zm-20.838-19.247,14.707,14.707a8.671,8.671,0,0,0,12.262,0l.009-.009a8.68,8.68,0,0,0,0-12.262l-14.707-14.707Z" transform="translate(-81.303 -81.303)"/>
    <g id="lock" transform="translate(1148.975 745.325)">
      <path id="Rectangle_1690" data-name="Rectangle 1690" d="M0-1H35.581a1,1,0,0,1,1,1V15.545a11,11,0,0,1-11,11H10a11,11,0,0,1-11-11V0A1,1,0,0,1,0-1ZM34.581,1H1V15.545a9.01,9.01,0,0,0,9,9H25.581a9.01,9.01,0,0,0,9-9Z" transform="translate(0 17.791)"/>
      <path id="Path_5717" data-name="Path 5717" d="M2169.646,748.681a1,1,0,0,1-1-1v-7.858a8.823,8.823,0,0,0-17.646,0v7.858a1,1,0,0,1-2,0v-7.858a10.823,10.823,0,1,1,21.646,0v7.858A1,1,0,0,1,2169.646,748.681Z" transform="translate(-2142.142 -730)"/>
      <path id="Ellipse_384" data-name="Ellipse 384" d="M3.877-1A4.877,4.877,0,1,1-1,3.877,4.883,4.883,0,0,1,3.877-1Zm0,7.755A2.877,2.877,0,1,0,1,3.877,2.881,2.881,0,0,0,3.877,6.755Z" transform="translate(13.685 25.545)"/>
      <path id="Line_292" data-name="Line 292" d="M0,3.281a1,1,0,0,1-1-1V0A1,1,0,0,1,0-1,1,1,0,0,1,1,0V2.281A1,1,0,0,1,0,3.281Z" transform="translate(17.791 33.3)"/>
    </g>
  </g>
</svg>
