<svg xmlns="http://www.w3.org/2000/svg" width="99.164" height="85.183" viewBox="0 0 99.164 85.183">
  <g id="Resilient_design_and_operation_" data-name="Resilient design and operation " transform="translate(-345 -486.893)">
    <g id="Group_3233" data-name="Group 3233" transform="translate(347.901 491.77)">
      <path id="Path_6854" data-name="Path 6854" d="M16.583,42.7l-.056,0a1,1,0,0,1-.945-1,5.471,5.471,0,0,1,.17-1.352,29.359,29.359,0,0,1,58.021,0,5.468,5.468,0,0,1,.17,1.352,1,1,0,0,1-1.994.11c-.039-.35-.085-.7-.137-1.053C71.1,38.231,67.687,36.4,63.665,36.4a11.149,11.149,0,0,0-6.128,1.677A4.515,4.515,0,0,0,55.214,41.7a1,1,0,0,1-2,0,4.515,4.515,0,0,0-2.323-3.623A11.149,11.149,0,0,0,44.763,36.4a11.149,11.149,0,0,0-6.128,1.677A4.515,4.515,0,0,0,36.312,41.7a1,1,0,0,1-2,0,4.515,4.515,0,0,0-2.323-3.623A11.149,11.149,0,0,0,25.861,36.4c-4.023,0-7.437,1.83-8.148,4.358-.052.348-.1.7-.137,1.052A1,1,0,0,1,16.583,42.7Zm28.18-8.3A13.159,13.159,0,0,1,52,36.415a8,8,0,0,1,2.214,2.136,8,8,0,0,1,2.214-2.136,13.988,13.988,0,0,1,13.742-.4q.315.18.606.378a27.358,27.358,0,0,0-52.027,0q.292-.2.606-.378A13.077,13.077,0,0,1,25.861,34.4,13.159,13.159,0,0,1,33.1,36.415a8,8,0,0,1,2.214,2.136,8,8,0,0,1,2.214-2.136A13.159,13.159,0,0,1,44.763,34.4Z" transform="translate(-16.582 -16.5)"/>
      <path id="Path_6855" data-name="Path 6855" d="M44.4,42.7a1,1,0,0,1-1-.964,58.315,58.315,0,0,0-3.054-17.6,17.1,17.1,0,0,0-2.727-5.043A3.721,3.721,0,0,0,34.951,17.5a3.721,3.721,0,0,0-2.671,1.593,17.1,17.1,0,0,0-2.727,5.043,58.315,58.315,0,0,0-3.054,17.6,1,1,0,0,1-2-.073,60.326,60.326,0,0,1,3.18-18.232A19.024,19.024,0,0,1,30.759,17.8a5.576,5.576,0,0,1,4.192-2.3,5.576,5.576,0,0,1,4.192,2.3,19.024,19.024,0,0,1,3.078,5.639A60.326,60.326,0,0,1,45.4,41.666a1,1,0,0,1-.963,1.036Z" transform="translate(-6.77 -16.5)"/>
    </g>
    <g id="Group_3234" data-name="Group 3234" transform="translate(346 530.642)">
      <path id="Ellipse_355" data-name="Ellipse 355" d="M7.017-1A8.017,8.017,0,1,1-1,7.017,8.026,8.026,0,0,1,7.017-1Zm0,14.034A6.017,6.017,0,1,0,1,7.017,6.024,6.024,0,0,0,7.017,13.034Z" transform="translate(12.556 13.295)"/>
      <path id="Path_5609" data-name="Path 5609" d="M2123.452,807h7.008a2.684,2.684,0,0,1,2.675,2.462l.3,3.577a.721.721,0,0,0,.436.579,16.185,16.185,0,0,1,2.272,1.313.8.8,0,0,0,.45.148.63.63,0,0,0,.271-.06l3.247-1.53a2.662,2.662,0,0,1,1.143-.256h0a2.694,2.694,0,0,1,2.326,1.342l3.5,6.069a2.684,2.684,0,0,1-.794,3.548l-2.949,2.046a.715.715,0,0,0-.283.668c.042.461.063.889.063,1.311s-.021.853-.063,1.312a.715.715,0,0,0,.284.668l2.949,2.047a2.684,2.684,0,0,1,.794,3.548l-3.5,6.069a2.694,2.694,0,0,1-2.326,1.343,2.662,2.662,0,0,1-1.144-.257l-3.247-1.53a.631.631,0,0,0-.271-.06.8.8,0,0,0-.45.148,16.192,16.192,0,0,1-2.271,1.312.721.721,0,0,0-.436.579l-.3,3.577a2.684,2.684,0,0,1-2.675,2.462h-7.008a2.684,2.684,0,0,1-2.676-2.462l-.3-3.577a.72.72,0,0,0-.436-.579,16.187,16.187,0,0,1-2.272-1.312.8.8,0,0,0-.449-.148.63.63,0,0,0-.271.06l-3.247,1.53a2.663,2.663,0,0,1-1.144.256,2.693,2.693,0,0,1-2.326-1.343l-3.5-6.069a2.685,2.685,0,0,1,.793-3.548l2.949-2.047a.715.715,0,0,0,.283-.668c-.042-.461-.063-.889-.063-1.311s.021-.85.063-1.31a.716.716,0,0,0-.284-.669l-2.948-2.046a2.685,2.685,0,0,1-.794-3.548l3.5-6.069a2.693,2.693,0,0,1,2.326-1.343,2.664,2.664,0,0,1,1.144.256l3.247,1.531a.631.631,0,0,0,.271.06.805.805,0,0,0,.45-.148,16.159,16.159,0,0,1,2.271-1.312.72.72,0,0,0,.436-.579l.3-3.577a2.684,2.684,0,0,1,2.676-2.462Zm13.139,10.078a2.783,2.783,0,0,1-1.587-.5,14.189,14.189,0,0,0-1.991-1.15,2.7,2.7,0,0,1-1.573-2.22l-.3-3.577a.688.688,0,0,0-.682-.628h-7.008a.68.68,0,0,0-.682.628l-.3,3.577a2.7,2.7,0,0,1-1.573,2.22,14.158,14.158,0,0,0-1.99,1.149,2.784,2.784,0,0,1-1.588.5,2.615,2.615,0,0,1-1.123-.251l-3.247-1.531a.678.678,0,0,0-.291-.066.688.688,0,0,0-.594.342l-3.5,6.069a.689.689,0,0,0,.2.9l2.949,2.046a2.727,2.727,0,0,1,1.135,2.5c-.037.4-.054.767-.054,1.127s.018.729.054,1.128a2.725,2.725,0,0,1-1.135,2.495l-2.949,2.047a.689.689,0,0,0-.2.9l3.5,6.07a.688.688,0,0,0,.594.343.679.679,0,0,0,.291-.066l3.247-1.53a2.614,2.614,0,0,1,1.123-.251,2.783,2.783,0,0,1,1.587.5,14.169,14.169,0,0,0,1.99,1.149,2.7,2.7,0,0,1,1.573,2.22l.3,3.577a.68.68,0,0,0,.682.628h7.008a.688.688,0,0,0,.682-.627l.3-3.578a2.7,2.7,0,0,1,1.573-2.22,14.2,14.2,0,0,0,1.99-1.149,2.783,2.783,0,0,1,1.587-.5,2.614,2.614,0,0,1,1.124.251l3.247,1.53a.678.678,0,0,0,.291.066.688.688,0,0,0,.594-.343l3.5-6.069a.688.688,0,0,0-.2-.9l-2.949-2.047a2.725,2.725,0,0,1-1.135-2.5c.037-.4.055-.765.055-1.127s-.018-.729-.054-1.127a2.726,2.726,0,0,1,1.135-2.495l2.949-2.047a.688.688,0,0,0,.2-.9l-3.5-6.07a.688.688,0,0,0-.594-.343.676.676,0,0,0-.291.066l-3.247,1.53A2.614,2.614,0,0,1,2136.591,817.078Z" transform="translate(-2107.47 -808)"/>
    </g>
    <path id="Rectangle_1849" data-name="Rectangle 1849" d="M2,2V20.239H12.152V2H2M0,0H14.152V22.239H0Z" transform="translate(388.456 548.652)"/>
    <path id="Rectangle_1850" data-name="Rectangle 1850" d="M2,2V33.38H12.152V2H2M0,0H14.152V35.38H0Z" transform="translate(408.672 535.511)"/>
    <path id="Rectangle_1851" data-name="Rectangle 1851" d="M2,2V45.51H12.152V2H2M0,0H14.152V47.51H0Z" transform="translate(428.889 523.381)"/>
    <path id="Path_6856" data-name="Path 6856" d="M-20009,6342.974a1,1,0,0,1-.861-.493,1,1,0,0,1,.354-1.369l54.586-32.125a1,1,0,0,1,1.369.354,1,1,0,0,1-.354,1.369l-54.586,32.125A1,1,0,0,1-20009,6342.974Z" transform="translate(20397.457 -5804.817)"/>
    <path id="Path_6857" data-name="Path 6857" d="M-19960.457,6321.193a1,1,0,0,1-.484-.125,1,1,0,0,1-.391-1.359l4.9-8.861h-11.375a1,1,0,0,1-1-1,1,1,0,0,1,1-1h13.07a1,1,0,0,1,.861.492,1,1,0,0,1,.014.992l-5.717,10.345A1,1,0,0,1-19960.457,6321.193Z" transform="translate(20397.904 -5804.817)"/>
    <path id="Path_6858" data-name="Path 6858" d="M-20021.24,6297.77a1,1,0,0,1-1-1v-3.876a1,1,0,0,1,1-1,1,1,0,0,1,1,1v3.876A1,1,0,0,1-20021.24,6297.77Z" transform="translate(20397.322 -5805.001)"/>
    <path id="Path_6859" data-name="Path 6859" d="M-20021.24,6336.583a1,1,0,0,1-1-1v-20.619a1,1,0,0,1,1-1,1,1,0,0,1,1,1v20.619A1,1,0,0,1-20021.24,6336.583Z" transform="translate(20397.322 -5804.07)"/>
  </g>
</svg>
