<svg xmlns="http://www.w3.org/2000/svg" width="85.556" height="102.129" viewBox="0 0 85.556 102.129">
  <g id="Resilient_design_and_operation_" data-name="Resilient design and operation " transform="translate(-315.999 -98)">
    <g id="Group_2454" data-name="Group 2454" transform="translate(-1788.637 -409.009)">
      <g id="Group_2384" data-name="Group 2384" transform="translate(2105.154 508.009)">
        <path id="Path_5409" data-name="Path 5409" d="M2147.334,507.009h0a1,1,0,0,1,.8.4,38.507,38.507,0,0,0,7.969,7.287,39.4,39.4,0,0,0,22.548,7.238,42.6,42.6,0,0,0,9.67-1.147,1,1,0,0,1,1.223.878c.431,4.484.65,9.082.65,13.668,0,12.979-.152,21.9-.927,29.116-.847,7.88-2.436,13.489-5.151,18.187s-6.663,8.673-12.813,12.916c-6.075,4.191-14.237,8.581-23.5,13.473a1,1,0,0,1-.934,0c-9.466-5-15.972-8.556-21.214-11.948-5.881-3.8-9.806-7.174-12.728-10.926a33.931,33.931,0,0,1-6.283-13.925c-1.139-5.068-1.758-11.415-2.006-20.583,0-.01,0-.02,0-.03,0-1.041.067-25.545.49-29.948a1,1,0,0,1,1.223-.878,42.6,42.6,0,0,0,9.67,1.147,39.4,39.4,0,0,0,22.606-7.28,38.247,38.247,0,0,0,7.91-7.244A1,1,0,0,1,2147.334,507.009Zm31.315,16.922a40.234,40.234,0,0,1-13.7-2.391,43.924,43.924,0,0,1-17.618-11.962,43.933,43.933,0,0,1-17.619,11.962,40.226,40.226,0,0,1-13.7,2.391,44.2,44.2,0,0,1-8.98-.947c-.341,6.37-.4,27.939-.4,28.616.424,15.6,1.8,25.531,7.867,33.318,5.614,7.211,14.775,12.545,32.831,22.088,18.747-9.9,29.644-16.026,35.049-25.375,5.236-9.057,5.809-21.658,5.809-46.3,0-4.139-.181-8.288-.537-12.351A44.209,44.209,0,0,1,2178.649,523.931Z" transform="translate(-2105.154 -508.009)"/>
      </g>
    </g>
    <g id="Group_2478" data-name="Group 2478" transform="translate(-1774.203 -685.893)">
      <path id="Ellipse_355" data-name="Ellipse 355" d="M9.5-1A10.5,10.5,0,1,1-1,9.5,10.512,10.512,0,0,1,9.5-1Zm0,19A8.5,8.5,0,1,0,1,9.5,8.51,8.51,0,0,0,9.5,18Z" transform="translate(2124.203 825.893)"/>
      <path id="Path_5609" data-name="Path 5609" d="M2138.594,863.741h-9.487a3.281,3.281,0,0,1-3.27-3.009l-.4-4.843a1.325,1.325,0,0,0-.791-1.074,21.556,21.556,0,0,1-3.027-1.748,1.425,1.425,0,0,0-.81-.263,1.2,1.2,0,0,0-.517.115l-4.4,2.072a3.252,3.252,0,0,1-1.4.314,3.292,3.292,0,0,1-2.843-1.641l-4.744-8.217a3.281,3.281,0,0,1,.97-4.335l3.993-2.771a1.317,1.317,0,0,0,.535-1.228c-.056-.611-.084-1.181-.084-1.742s.027-1.132.084-1.742a1.317,1.317,0,0,0-.535-1.228l-3.992-2.771a3.281,3.281,0,0,1-.97-4.336l4.744-8.217a3.292,3.292,0,0,1,2.843-1.641,3.253,3.253,0,0,1,1.4.313l4.4,2.072a1.2,1.2,0,0,0,.517.115,1.425,1.425,0,0,0,.81-.264,21.55,21.55,0,0,1,3.026-1.747,1.325,1.325,0,0,0,.791-1.074l.4-4.843a3.281,3.281,0,0,1,3.27-3.008h9.487a3.281,3.281,0,0,1,3.27,3.009l.4,4.843a1.325,1.325,0,0,0,.791,1.074,21.566,21.566,0,0,1,3.027,1.748,1.425,1.425,0,0,0,.81.263,1.2,1.2,0,0,0,.517-.115l4.4-2.072a3.253,3.253,0,0,1,1.4-.313,3.292,3.292,0,0,1,2.843,1.641l4.744,8.217a3.28,3.28,0,0,1-.971,4.336l-3.992,2.771a1.317,1.317,0,0,0-.535,1.228c.056.609.084,1.179.084,1.742s-.028,1.135-.084,1.743a1.317,1.317,0,0,0,.536,1.227l3.992,2.771a3.28,3.28,0,0,1,.97,4.336l-4.744,8.217a3.292,3.292,0,0,1-2.843,1.641h0a3.254,3.254,0,0,1-1.4-.314l-4.4-2.072a1.2,1.2,0,0,0-.517-.115,1.425,1.425,0,0,0-.81.263,21.559,21.559,0,0,1-3.026,1.747,1.325,1.325,0,0,0-.792,1.074l-.4,4.843a3.281,3.281,0,0,1-3.27,3.008ZM2120.806,850.8a3.415,3.415,0,0,1,1.948.619,19.541,19.541,0,0,0,2.745,1.585,3.3,3.3,0,0,1,1.928,2.715l.4,4.843a1.288,1.288,0,0,0,1.277,1.175h9.487a1.288,1.288,0,0,0,1.276-1.174l.4-4.844a3.3,3.3,0,0,1,1.929-2.715,19.571,19.571,0,0,0,2.744-1.585,3.415,3.415,0,0,1,1.948-.619,3.188,3.188,0,0,1,1.37.306l4.4,2.072a1.271,1.271,0,0,0,.545.123h0a1.286,1.286,0,0,0,1.111-.641l4.744-8.217a1.288,1.288,0,0,0-.379-1.692l-3.992-2.771a3.336,3.336,0,0,1-1.386-3.055c.051-.547.076-1.056.076-1.558s-.025-1.01-.075-1.558a3.337,3.337,0,0,1,1.386-3.055l3.992-2.771a1.288,1.288,0,0,0,.379-1.693l-4.744-8.217a1.286,1.286,0,0,0-1.111-.641,1.269,1.269,0,0,0-.545.123l-4.4,2.072a3.187,3.187,0,0,1-1.37.306,3.416,3.416,0,0,1-1.948-.619,19.535,19.535,0,0,0-2.745-1.585,3.3,3.3,0,0,1-1.928-2.715l-.4-4.843a1.288,1.288,0,0,0-1.276-1.175h-9.487a1.288,1.288,0,0,0-1.277,1.174l-.4,4.843a3.3,3.3,0,0,1-1.928,2.715,19.538,19.538,0,0,0-2.744,1.585,3.417,3.417,0,0,1-1.948.619,3.188,3.188,0,0,1-1.37-.306l-4.4-2.072a1.269,1.269,0,0,0-.545-.123,1.286,1.286,0,0,0-1.111.641l-4.744,8.217a1.289,1.289,0,0,0,.379,1.693l3.992,2.771a3.336,3.336,0,0,1,1.386,3.055c-.051.548-.075,1.058-.075,1.559s.025,1.008.076,1.558a3.336,3.336,0,0,1-1.386,3.055l-3.993,2.771a1.289,1.289,0,0,0-.378,1.693l4.744,8.217a1.286,1.286,0,0,0,1.111.641,1.269,1.269,0,0,0,.545-.123l4.4-2.072A3.187,3.187,0,0,1,2120.806,850.8Z" transform="translate(-0.266 -0.107)"/>
    </g>
  </g>
</svg>
