<svg xmlns="http://www.w3.org/2000/svg" width="84.678" height="86.683" viewBox="0 0 84.678 86.683">
  <g id="search_magnifying_glass" data-name="search magnifying glass" transform="translate(-1130 -728)">
    <path id="Ellipse_382" data-name="Ellipse 382" d="M30.317-1a31.325,31.325,0,0,1,12.19,60.173A31.325,31.325,0,0,1,18.127,1.461,31.122,31.122,0,0,1,30.317-1Zm0,60.634A29.317,29.317,0,1,0,1,30.317,29.35,29.35,0,0,0,30.317,59.634Z" transform="translate(1131 729)"/>
    <path id="Line_291" data-name="Line 291" d="M10.614,11.594a1,1,0,0,1-.706-.292L-.706.708a1,1,0,0,1,0-1.414,1,1,0,0,1,1.414,0L11.32,9.887a1,1,0,0,1-.706,1.708Z" transform="translate(1182.062 782.085)"/>
    <path id="Path_5714" data-name="Path 5714" d="M1298.486,907.528a8.975,8.975,0,0,1-6.388-2.646l-12.805-12.806a1,1,0,0,1,0-1.414l11.369-11.369a1,1,0,0,1,1.414,0l12.806,12.806a9.044,9.044,0,0,1,0,12.776l-.006.006-.005.005A8.974,8.974,0,0,1,1298.486,907.528Zm-17.072-16.159,12.1,12.1a7.034,7.034,0,0,0,9.948,0l.006-.006,0,0a7.042,7.042,0,0,0,0-9.945l-12.1-12.1Z" transform="translate(-92.845 -92.845)"/>
    <g id="Group_3261" data-name="Group 3261" transform="translate(1034.501 268.5)">
      <g id="Group_3261-2" data-name="Group 3261" transform="translate(111.999 472)">
        <g id="Group_2384" data-name="Group 2384" transform="translate(0 0)">
          <path id="Path_5409" data-name="Path 5409" d="M2120.628,507.009h0a1,1,0,0,1,.8.4,13.936,13.936,0,0,0,10.462,4.969,14.676,14.676,0,0,0,3.331-.4,1,1,0,0,1,1.223.878c.157,1.632.237,3.306.237,4.976a104.356,104.356,0,0,1-.337,10.537,16.676,16.676,0,0,1-1.934,6.791c-2.146,3.712-6.248,6-13.312,9.734a1,1,0,0,1-.934,0c-6.183-3.265-10.09-5.417-12.41-8.4a12.814,12.814,0,0,1-2.378-5.26,39.733,39.733,0,0,1-.737-7.523c0-.01,0-.02,0-.029,0-.376.024-9.215.179-10.828a1,1,0,0,1,1.223-.878,14.676,14.676,0,0,0,3.331.4,13.96,13.96,0,0,0,10.461-4.967A1,1,0,0,1,2120.628,507.009Zm11.259,7.365a15.471,15.471,0,0,1-8.909-2.864,16.57,16.57,0,0,1-2.35-1.995,16.575,16.575,0,0,1-2.351,1.995,15.472,15.472,0,0,1-8.909,2.864,16.284,16.284,0,0,1-2.62-.217c-.075,2.272-.107,6.935-.113,9.517.172,6.3.852,9.229,2.694,11.594,1.912,2.456,5.088,4.322,11.3,7.611,7.014-3.714,10.309-5.712,12.047-8.719,1.805-3.122,2-7.583,2-16.327,0-1.232-.045-2.465-.134-3.681A16.3,16.3,0,0,1,2131.887,514.374Z" transform="translate(-2105.636 -508.009)"/>
        </g>
      </g>
      <g id="Group_3262" data-name="Group 3262" transform="translate(121.847 477.312)">
        <path id="Path_6899" data-name="Path 6899" d="M-20260.492,6346.072a1,1,0,0,1-.934-.644l-2.918-7.653a1,1,0,0,1,.227-1.063l1.09-1.09-2.889-2.222a1,1,0,0,1-.389-.729,1.007,1.007,0,0,1,.293-.773l9.3-9.228-.262-3.845a1,1,0,0,1,.611-.99l10.426-4.374a1,1,0,0,1,1.309.536,1,1,0,0,1-.535,1.309l-9.766,4.1.244,3.588a1,1,0,0,1-.293.778l-8.814,8.744,2.885,2.219a1,1,0,0,1,.389.728,1.006,1.006,0,0,1-.291.772l-1.436,1.437,2.686,7.048a1,1,0,0,1-.578,1.291A1,1,0,0,1-20260.492,6346.072Z" transform="translate(20265.307 -6314.383)"/>
        <path id="Path_6900" data-name="Path 6900" d="M-20255.535,6333.71a1,1,0,0,1-.707-.293l-9.771-9.769a1,1,0,0,1,0-1.414,1,1,0,0,1,1.414,0l9.771,9.769a1,1,0,0,1,0,1.414A1,1,0,0,1-20255.535,6333.71Z" transform="translate(20265.307 -6314.339)"/>
      </g>
    </g>
  </g>
</svg>
