<svg xmlns="http://www.w3.org/2000/svg" width="148.806" height="131.249" viewBox="0 0 148.806 131.249">
  <g id="Tab01" transform="translate(1 1)">
    <g id="Group_2606" data-name="Group 2606" transform="translate(0 85.993)">
      <path id="Path_5864" data-name="Path 5864" d="M609.54,257.544H579.513a1,1,0,0,1,0-2H609.54a2.905,2.905,0,0,0,2.9-2.9A11.456,11.456,0,0,0,601,241.2H573.974a14.444,14.444,0,0,1-5.92-1.261l-5.443-2.428a21.183,21.183,0,0,0-15.6-.68l-12.5,4.315a1,1,0,0,1-.653-1.891l12.5-4.315a23.254,23.254,0,0,1,17.063.745l5.442,2.428a12.457,12.457,0,0,0,5.106,1.088H601a13.443,13.443,0,0,1,13.443,13.443A4.908,4.908,0,0,1,609.54,257.544Z" transform="translate(-506.133 -234.665)"/>
      <path id="Path_5865" data-name="Path 5865" d="M580.887,282.049a10.341,10.341,0,0,1-2.343-.263,14.544,14.544,0,0,1-1.644-.487l-26.135-9.354-.038-.014a6.949,6.949,0,0,0-6.007.374l-10.039,5.576a1,1,0,0,1-.971-1.748l10.039-5.576a8.94,8.94,0,0,1,7.709-.488l26.117,9.348a12.576,12.576,0,0,0,1.422.422,9.287,9.287,0,0,0,4.646-.189c6.685-1.915,26.369-8.751,27.879-9.594l.021-.011,39.881-21.052a.962.962,0,0,0,.506-.716.941.941,0,0,0-.268-.815,15.068,15.068,0,0,0-17.224-2.837l-13.281,6.511a1,1,0,0,1-.88-1.8l13.282-6.512a17.07,17.07,0,0,1,19.513,3.214,2.964,2.964,0,0,1-.714,4.719l-39.872,21.048c-1.331.731-10.534,3.922-12.371,4.556-6.71,2.316-12.959,4.36-15.92,5.208A11.989,11.989,0,0,1,580.887,282.049Z" transform="translate(-506.135 -237.793)"/>
      <path id="Path_5866" data-name="Path 5866" d="M504.285,278.816H485.714a1,1,0,0,1,0-2h18.571a2.455,2.455,0,0,0,2.453-2.453V242.8a2.455,2.455,0,0,0-2.453-2.452H485.714a1,1,0,0,1,0-2h18.571a4.457,4.457,0,0,1,4.453,4.452v31.565A4.458,4.458,0,0,1,504.285,278.816Z" transform="translate(-485.714 -236.637)"/>
    </g>
    <g id="Group_2607" data-name="Group 2607" transform="translate(58.343 30.2)">
      <g id="Group_2753" data-name="Group 2753" transform="translate(22.09 12.837)">
        <path id="Path_5867" data-name="Path 5867" d="M631.027,193.742a8.943,8.943,0,0,1-7.137-3.287,1,1,0,0,1,1.589-1.215,6.939,6.939,0,0,0,5.548,2.5c3.586,0,6.5-2.343,6.5-5.222,0-2.63-2.559-4.867-5.952-5.2h0a8.393,8.393,0,0,1-4.979-2.052,5.979,5.979,0,0,1,.223-9.336,8.535,8.535,0,0,1,5.456-1.885,8.248,8.248,0,0,1,6.494,2.945,1,1,0,0,1-1.571,1.238,6.24,6.24,0,0,0-4.923-2.183c-3.206,0-5.813,2.086-5.813,4.65,0,2.383,2.324,4.417,5.29,4.63l.062.006a9.623,9.623,0,0,1,5.389,2.264,6.567,6.567,0,0,1,2.326,4.925,6.684,6.684,0,0,1-2.56,5.169A9.3,9.3,0,0,1,631.027,193.742Z" transform="translate(-624.685 -164.069)"/>
        <path id="Line_429" data-name="Line 429" d="M0,5.4a1,1,0,0,1-1-1V0A1,1,0,0,1,0-1,1,1,0,0,1,1,0V4.4A1,1,0,0,1,0,5.4Z" transform="translate(6.924 28.937)"/>
        <path id="Line_430" data-name="Line 430" d="M0,5.589a1,1,0,0,1-1-1V0A1,1,0,0,1,0-1,1,1,0,0,1,1,0V4.589A1,1,0,0,1,0,5.589Z" transform="translate(6.924)"/>
      </g>
      <path id="Ellipse_418" data-name="Ellipse 418" d="M22.559-1a23.564,23.564,0,0,1,9.17,45.265A23.564,23.564,0,0,1,13.388.852,23.412,23.412,0,0,1,22.559-1Zm0,45.117A21.558,21.558,0,1,0,1,22.558,21.583,21.583,0,0,0,22.559,44.117Z" transform="matrix(0.935, -0.354, 0.354, 0.935, 0, 15.992)"/>
    </g>
    <g id="Group_2608" data-name="Group 2608" transform="translate(69.532 0)">
      <path id="Line_431" data-name="Line 431" d="M0,18.428a1,1,0,0,1-1-1V0A1,1,0,0,1,0-1,1,1,0,0,1,1,0V17.428A1,1,0,0,1,0,18.428Z" transform="translate(0 12.955)"/>
      <path id="Line_432" data-name="Line 432" d="M0,18.428a1,1,0,0,1-1-1V0A1,1,0,0,1,0-1,1,1,0,0,1,1,0V17.428A1,1,0,0,1,0,18.428Z" transform="translate(35.8 12.955)"/>
      <path id="Line_433" data-name="Line 433" d="M0,18.428a1,1,0,0,1-1-1V0A1,1,0,0,1,0-1,1,1,0,0,1,1,0V17.428A1,1,0,0,1,0,18.428Z" transform="translate(17.9)"/>
    </g>
  </g>
</svg>
