<svg xmlns="http://www.w3.org/2000/svg" width="117.181" height="131.251" viewBox="0 0 117.181 131.251">
  <g id="Tab03" transform="translate(1 1)">
    <path id="Path_5557" data-name="Path 5557" d="M1099.564,303.1h0a1,1,0,0,1-.771-.363l-11.884-14.4a1,1,0,0,1,1.542-1.273l11.113,13.464,23.868-28.893v-3.876h-12.089a1,1,0,0,1-1-1V236a1,1,0,0,1,2,0v29.758h12.089a1,1,0,0,1,1,1v5.235a1,1,0,0,1-.229.637l-24.869,30.1A1,1,0,0,1,1099.564,303.1Z" transform="translate(-1014.488 -172.847)"/>
    <path id="Path_5558" data-name="Path 5558" d="M904.869,303.1a1,1,0,0,1-.771-.363l-24.868-30.1a1,1,0,0,1-.229-.637v-5.235a1,1,0,0,1,1-1h12.089V236a1,1,0,0,1,2,0v30.758a1,1,0,0,1-1,1H881v3.876l23.868,28.893,11.114-13.464a1,1,0,1,1,1.542,1.273l-11.885,14.4A1,1,0,0,1,904.869,303.1Z" transform="translate(-874.764 -172.847)"/>
    <path id="Path_5559" data-name="Path 5559" d="M988.868,307.7a1,1,0,0,1-.771-.363l-24.868-30.1A1,1,0,0,1,963,276.6v-5.236a1,1,0,0,1,1-1h12.089V260a1,1,0,1,1,2,0v11.361a1,1,0,0,1-1,1H965v3.876l23.868,28.893,23.869-28.893v-3.876h-12.089a1,1,0,0,1-1-1V260a1,1,0,1,1,2,0v10.361h12.089a1,1,0,0,1,1,1V276.6a1,1,0,0,1-.229.637l-24.869,30.1A1,1,0,0,1,988.868,307.7Z" transform="translate(-931.278 -185.303)"/>
    <g id="Group_2752" data-name="Group 2752" transform="translate(0 0)">
      <path id="Path_6098" data-name="Path 6098" d="M2715.181,485.208a1,1,0,0,1-1-1V473.972a1.5,1.5,0,0,0-1.439-1.5l-9.613-.418a3.507,3.507,0,0,1-3.2-2.569,43.742,43.742,0,0,0-3.842-9.262,3.509,3.509,0,0,1,.451-4.084l6.5-7.1a1.5,1.5,0,0,0-.045-2.08l-10.774-10.774a1.5,1.5,0,0,0-2.079-.046l-7.1,6.5a3.507,3.507,0,0,1-4.083.451,43.8,43.8,0,0,0-9.262-3.841,3.507,3.507,0,0,1-2.569-3.2l-.418-9.613a1.5,1.5,0,0,0-1.5-1.439h-15.237a1.5,1.5,0,0,0-1.5,1.439l-.417,9.613a3.507,3.507,0,0,1-2.569,3.2,43.784,43.784,0,0,0-9.262,3.841,3.505,3.505,0,0,1-4.083-.451l-7.1-6.5a1.5,1.5,0,0,0-2.079.045l-10.774,10.774a1.5,1.5,0,0,0-.045,2.079l6.5,7.1a3.508,3.508,0,0,1,.451,4.083,43.739,43.739,0,0,0-3.842,9.263,3.509,3.509,0,0,1-3.205,2.569l-9.613.418a1.5,1.5,0,0,0-1.439,1.5v10.236a1,1,0,0,1-2,0V473.972a3.5,3.5,0,0,1,3.352-3.5l9.614-.418a1.512,1.512,0,0,0,1.369-1.12,45.744,45.744,0,0,1,4.017-9.685,1.492,1.492,0,0,0-.178-1.759l-6.5-7.1a3.5,3.5,0,0,1,.1-4.845l10.774-10.774a3.5,3.5,0,0,1,4.845-.105l7.1,6.5a1.509,1.509,0,0,0,1.759.177,45.789,45.789,0,0,1,9.686-4.017,1.51,1.51,0,0,0,1.12-1.368l.417-9.613a3.5,3.5,0,0,1,3.5-3.352h15.237a3.5,3.5,0,0,1,3.5,3.352l.418,9.613a1.51,1.51,0,0,0,1.12,1.368,45.808,45.808,0,0,1,9.685,4.017,1.511,1.511,0,0,0,1.76-.177l7.1-6.5a3.5,3.5,0,0,1,4.845.105l10.774,10.774a3.5,3.5,0,0,1,.1,4.845l-6.5,7.1a1.511,1.511,0,0,0-.177,1.76,45.74,45.74,0,0,1,4.017,9.685,1.511,1.511,0,0,0,1.368,1.12l9.613.418a3.5,3.5,0,0,1,3.352,3.5v10.236A1,1,0,0,1,2715.181,485.208Z" transform="translate(-2600 -424)"/>
      <path id="Path_6099" data-name="Path 6099" d="M2704.1,556.156a1,1,0,0,1-.995-.91c-.067-.743-.1-1.493-.1-2.232a24.56,24.56,0,0,1,49.12,0c0,.743-.034,1.494-.1,2.232a1,1,0,1,1-1.992-.181c.061-.678.093-1.368.093-2.051a22.56,22.56,0,0,0-45.12,0c0,.679.031,1.369.093,2.052a1,1,0,0,1-.906,1.086Q2704.14,556.156,2704.1,556.156Z" transform="translate(-2669.755 -494.948)"/>
      <g id="Group_2754" data-name="Group 2754" transform="translate(52.402 41.633)">
        <path id="Path_5867" data-name="Path 5867" d="M629.783,189.092a7.385,7.385,0,0,1-5.892-2.719,1,1,0,1,1,1.589-1.215,5.381,5.381,0,0,0,4.3,1.934c2.774,0,5.032-1.795,5.032-4,0-2.013-1.981-3.727-4.607-3.987h0a6.943,6.943,0,0,1-4.115-1.7,5,5,0,0,1,.185-7.8,7.056,7.056,0,0,1,4.511-1.56,6.827,6.827,0,0,1,5.373,2.442,1,1,0,1,1-1.571,1.238,4.819,4.819,0,0,0-3.8-1.68c-2.468,0-4.477,1.588-4.477,3.541,0,1.813,1.788,3.362,4.07,3.526l.059.006a7.931,7.931,0,0,1,4.438,1.868,5.472,5.472,0,0,1,1.936,4.106,5.565,5.565,0,0,1-2.128,4.306A7.67,7.67,0,0,1,629.783,189.092Z" transform="translate(-624.685 -165.045)"/>
        <path id="Line_429" data-name="Line 429" d="M0,4.538a1,1,0,0,1-1-1V0A1,1,0,0,1,0-1,1,1,0,0,1,1,0V3.538A1,1,0,0,1,0,4.538Z" transform="translate(5.565 23.259)"/>
        <path id="Line_430" data-name="Line 430" d="M0,4.689a1,1,0,0,1-1-1V0A1,1,0,0,1,0-1,1,1,0,0,1,1,0V3.689A1,1,0,0,1,0,4.689Z" transform="translate(5.565 0)"/>
      </g>
    </g>
  </g>
</svg>
