<svg id="mouse_icon" data-name="mouse icon" xmlns="http://www.w3.org/2000/svg" width="31" height="48" viewBox="0 0 31 48">
  <path id="Mouse_icon-2" data-name="Mouse icon" d="M15.5,0A15.5,15.5,0,0,1,31,15.5v17a15.5,15.5,0,0,1-31,0v-17A15.5,15.5,0,0,1,15.5,0Z" fill="#fff"/>
  <path id="Mouse_icon_-_Outline" data-name="Mouse icon - Outline" d="M15.5,2A13.5,13.5,0,0,0,2,15.5v17a13.5,13.5,0,0,0,23.046,9.546A13.412,13.412,0,0,0,29,32.5v-17A13.5,13.5,0,0,0,15.5,2m0-2A15.5,15.5,0,0,1,31,15.5v17a15.5,15.5,0,0,1-31,0v-17A15.5,15.5,0,0,1,15.5,0Z"/>
  <rect id="Rectangle_1657" data-name="Rectangle 1657" width="6" height="13" rx="3" transform="translate(13 7)"/>
</svg>
