<svg xmlns="http://www.w3.org/2000/svg" width="63.274" height="59.233" viewBox="0 0 63.274 59.233">
  <g id="Cost_icon" data-name="Cost icon" transform="translate(-2033.55 -952.8)">
    <path id="Path_5342" data-name="Path 5342" d="M2064.653,958.283l4.689-4.483,13.241,12.9m-10.827,11.931a2.709,2.709,0,0,1-2.655,2.655,2.589,2.589,0,0,1-1.9-.793,2.533,2.533,0,0,1-.759-1.862,2.592,2.592,0,0,1,2.655-2.655,2.532,2.532,0,0,1,1.862.759A2.589,2.589,0,0,1,2071.756,978.627Zm-12.827-4.793a4.4,4.4,0,0,1-3.414,2.138v4.621a4.419,4.419,0,0,1,3.276,3.207h20.551a6.078,6.078,0,0,1,2.966-3.276v-4.172a4.923,4.923,0,0,1-2.966-2.759Zm-5.413-7.241,4.31-8.172,18.9,9.069M2034.55,993.7h9.586v1.448l3.759-2a10.106,10.106,0,0,1,9.9.759,7.513,7.513,0,0,0,5,1.034h8.9q5.641-.241,6.414,4.379l8.483-4.241q6.965-2.372,9.241,1.655l-13.413,7.793-14.551,5.793a9.868,9.868,0,0,1-8.138-.345l-7.069-2.9q-2.917-1.214-6.483.965l-2.034,1.31v.931h-9.586m43.55-10.965q.642,2.455-2.172,2.379h-12.207m-19.586-6.552v14.206m5.793-39.9h37.964v18h-37.964Z" fill="none" stroke="#000" stroke-linecap="round" stroke-linejoin="round" stroke-width="2"/>
  </g>
</svg>
