<svg xmlns="http://www.w3.org/2000/svg" width="67.501" height="46.941" viewBox="0 0 67.501 46.941">
  <g id="Result_icon" data-name="Result icon" transform="translate(465.71 -863.516)">
    <path id="Path_5343" data-name="Path 5343" d="M-425.91,865.25a4.208,4.208,0,0,0-5.244.448,2.711,2.711,0,0,1-3.714-.9v6.569a3.35,3.35,0,0,0,4.479,0,5.593,5.593,0,0,1,4.479-1.008Zm-22.041,36.711,4.61-5.58m-20.959,12.3,20.959-24.43,4.918,5.963,3.247-3.826,9.266-10.909v-5.114m-9.266,16.022a4.3,4.3,0,0,1,3.07,1.129,2.668,2.668,0,0,0,3.527,0,3.354,3.354,0,0,1,4.572,0,2.924,2.924,0,0,0,3.359-.075,8.4,8.4,0,0,1,3.126-1.26l-8.389-10.7M-440.784,893l2.361-2.79m20.9-4.031,17.907,22.872m-18.682-15.416,8.958,11.217" transform="translate(0 0)" fill="none" stroke="#000" stroke-linecap="round" stroke-linejoin="round" stroke-width="2"/>
  </g>
</svg>
