<svg xmlns="http://www.w3.org/2000/svg" width="35.498" height="58.247" viewBox="0 0 35.498 58.247">
  <g id="Timeline" transform="translate(-1426.371 -769.1)">
    <path id="Path_5344" data-name="Path 5344" d="M1428.517,772.427V770.1h31.067v2.108m-1.949,1.969q5.808,7.4-.1,15.554a28.011,28.011,0,0,1-5.649,5.629,2.946,2.946,0,0,0-1.353,2.745q-.04,1.949,2.347,3.759,7.717,4.952,7.976,13.047a9.45,9.45,0,0,1-2.964,7.618m-13.764-14.2v1.77m.06-7.5v1.512m-2.665-5.092a8.436,8.436,0,0,0,5.092,0M1431.122,817.6q4.543.416,10.8-2.745,6.977-3.227,14.818.815m-24.941-31.9q4.551,1.834,11.993-.815a20.892,20.892,0,0,1,13.028-1.333m-28.3,42.4v2.327h31.067v-2.108M1430.6,774.177q-5.808,7.4.1,15.554a28.083,28.083,0,0,0,5.649,5.629,2.95,2.95,0,0,1,1.352,2.745q.044,1.949-2.347,3.759-7.713,4.949-7.976,13.047a9.475,9.475,0,0,0,2.964,7.618" transform="translate(0)" fill="none" stroke="#000" stroke-linecap="round" stroke-linejoin="round" stroke-width="2"/>
  </g>
</svg>
