<svg xmlns="http://www.w3.org/2000/svg" width="104.132" height="126.752" viewBox="0 0 104.132 126.752">
  <g id="Icon_2" data-name="Icon 2" transform="translate(-315.998 -95.762)">
    <path id="Subtraction_1" data-name="Subtraction 1" d="M51.969,124.3a1.241,1.241,0,0,1-.568-.138c-11.515-6.08-19.43-10.409-25.821-14.544-7.15-4.625-11.929-8.726-15.49-13.3a41.334,41.334,0,0,1-7.65-16.95C1.054,73.181.3,65.453,0,54.319v-.035c0-.3.074-31.02.6-36.452a1.219,1.219,0,0,1,1.207-1.1,1.229,1.229,0,0,1,.281.033,52.032,52.032,0,0,0,11.768,1.4A47.915,47.915,0,0,0,41.369,9.3,46.981,46.981,0,0,0,51,.483a1.222,1.222,0,0,1,1.947,0l0,.008a46.585,46.585,0,0,0,9.072,8.415l-2.726,1.01a50.88,50.88,0,0,1-7.321-6.795,51.968,51.968,0,0,1-9.2,8.172,52.388,52.388,0,0,1-12.239,6.389,48.983,48.983,0,0,1-16.675,2.909,54.114,54.114,0,0,1-10.93-1.148c-.418,7.826-.486,34.572-.486,34.829.515,18.984,2.193,31.069,9.576,40.555C18.89,103.657,30,110.1,51.971,121.71,74.776,109.659,88,102.283,94.628,90.822,101,79.805,101.7,64.466,101.7,34.465c0-5.009-.219-10.065-.651-15.028a53.9,53.9,0,0,1-10.959,1.154,48.931,48.931,0,0,1-16.675-2.909,51.241,51.241,0,0,1-6.342-2.793l3.136-1.175a46.743,46.743,0,0,0,19.881,4.447,52.06,52.06,0,0,0,11.768-1.4,1.218,1.218,0,0,1,1.488,1.068c.523,5.458.79,11.054.79,16.633,0,15.8-.184,26.659-1.124,35.442-1.034,9.6-2.968,16.422-6.273,22.133s-8.113,10.56-15.594,15.721c-7.406,5.11-17.334,10.451-28.6,16.4A1.235,1.235,0,0,1,51.969,124.3Z" transform="translate(315.998 98.213)"/>
    <path id="Path_7293" data-name="Path 7293" d="M0,53.168a1,1,0,0,1-.711-.3A1,1,0,0,1-.76,51.518l15.82-18.48-2.722-6.8a1,1,0,0,1,.322-1.167l20.885-16.8L28.911,3.155a1,1,0,0,1,.158-1.484L32.533-.813a1,1,0,0,1,1.4.23,1,1,0,0,1-.23,1.4L31.146,2.643,35.73,7.7a1,1,0,0,1-.1,1.441c-14,11.606-14.01,11.615-21.149,17.053l2.664,6.658a1,1,0,0,1-.169,1.022l-8.42,9.836L21.527,32.869l-1.494-5.644A1,1,0,0,1,20.4,26.17L44.167,8.254,39.854,3.747a1,1,0,0,1,.2-1.546L42.1.959a1,1,0,1,1,1.04,1.709l-.978.6L46.39,7.684a1,1,0,0,1-.121,1.49L22.138,27.363l1.485,5.609a1,1,0,0,1-.325,1.023L.641,52.935A1,1,0,0,1,0,53.168Z" transform="translate(345.622 97.034) rotate(19)"/>
    <g id="Group_3445" data-name="Group 3445" transform="translate(340.968 139.472)">
      <path id="Path_7286" data-name="Path 7286" d="M-17188.412,6903.168a1.05,1.05,0,0,1-.176-.015,1.114,1.114,0,0,1-.928-1.272,56.666,56.666,0,0,1,2.449-9.141,54.276,54.276,0,0,1,3.711-8.314,37.065,37.065,0,0,1,6.008-8.137,39.365,39.365,0,0,1,8.234-6.176,61.761,61.761,0,0,1,8.582-4.047,67.136,67.136,0,0,1,9.547-2.929,1.1,1.1,0,0,1,.227-.023,1.115,1.115,0,0,1,1.09.889,1.114,1.114,0,0,1-.867,1.316,66.3,66.3,0,0,0-9.23,2.842c-4.7,1.811-11.285,4.964-16,9.7s-7.6,11.108-9.2,15.619a55.205,55.205,0,0,0-2.346,8.745A1.116,1.116,0,0,1-17188.412,6903.168Z" transform="translate(17189.529 -6851.981)"/>
      <path id="Path_7287" data-name="Path 7287" d="M-17165.814,6897.413c-7.852,0-14.383-3.757-16.83-5.372a9.082,9.082,0,0,1-3.152-3.8,1.156,1.156,0,0,1-.051-.157,26.509,26.509,0,0,1-.486-6.647,28.44,28.44,0,0,1,1.037-6.578,25.606,25.606,0,0,1,3.357-7.317,27.725,27.725,0,0,1,9.188-8.479,47.337,47.337,0,0,1,16.5-5.507.194.194,0,0,1,.037-.005,56.71,56.71,0,0,1,6.955-.427,60.7,60.7,0,0,1,18.1,2.823,44.684,44.684,0,0,1,7.121,2.852,1.115,1.115,0,0,1,.572,1.168,1.1,1.1,0,0,1-.912.91,14.838,14.838,0,0,0-5.2,2.675c-2.9,2.112-7.324,6.31-11.92,14.317-.309.543-.873,1.6-1.533,2.822a78.034,78.034,0,0,1-3.879,6.838,26.174,26.174,0,0,1-9.227,7.716A22.112,22.112,0,0,1-17165.814,6897.413Zm-17.885-9.937a6.869,6.869,0,0,0,2.281,2.7c2.279,1.5,8.357,5,15.6,5,6.719,0,12.488-3.037,17.143-9.025.582-.747,2.443-4.223,3.676-6.522.664-1.239,1.234-2.308,1.564-2.88,6.371-11.106,12.545-15.439,15.957-17.094-1.125-.471-2.619-1.044-4.422-1.614a58.5,58.5,0,0,0-17.363-2.7,54.554,54.554,0,0,0-6.658.407c-11.5,1.841-19.629,6.222-24.172,13.022a24.921,24.921,0,0,0-4.02,12.752A24.958,24.958,0,0,0-17183.7,6887.477Z" transform="translate(17189.891 -6853.122)"/>
      <path id="Path_7288" data-name="Path 7288" d="M-17172.791,6873.663a1.092,1.092,0,0,1-.164-.013,1.115,1.115,0,0,1-.939-1.268l1.369-9.05a1.112,1.112,0,0,1,1.1-.948,1.032,1.032,0,0,1,.164.013,1.117,1.117,0,0,1,.939,1.268l-1.369,9.05A1.112,1.112,0,0,1-17172.791,6873.663Z" transform="translate(17191.313 -6852.065)"/>
      <path id="Path_7289" data-name="Path 7289" d="M-17157.158,6873.53a1.107,1.107,0,0,1-.457-.1l-8.965-4.013a1.113,1.113,0,0,1-.561-1.473,1.112,1.112,0,0,1,1.471-.56l8.965,4.013a1.112,1.112,0,0,1,.563,1.472A1.117,1.117,0,0,1-17157.158,6873.53Z" transform="translate(17192.072 -6851.506)"/>
      <path id="Path_7290" data-name="Path 7290" d="M-17167.559,6882.49a1.1,1.1,0,0,1-.447-.095l-10.674-4.7a1.114,1.114,0,0,1-.572-1.469,1.114,1.114,0,0,1,1.467-.571l10.674,4.7a1.112,1.112,0,0,1,.572,1.469A1.114,1.114,0,0,1-17167.559,6882.49Z" transform="translate(17190.689 -6850.562)"/>
    </g>
  </g>
</svg>
