<svg xmlns="http://www.w3.org/2000/svg" xmlns:xlink="http://www.w3.org/1999/xlink" width="215.706" height="167.965" viewBox="0 0 215.706 167.965">
  <defs>
    <linearGradient id="linear-gradient" x1="0.153" y1="0.023" x2="0.807" y2="0.828" gradientUnits="objectBoundingBox">
      <stop offset="0" stop-color="#fff"/>
      <stop offset="0.997" stop-color="#d7d6d6"/>
    </linearGradient>
    <filter id="Path_7387" x="17.35" y="0" width="167.964" height="167.965" filterUnits="userSpaceOnUse">
      <feOffset dy="3" input="SourceAlpha"/>
      <feGaussianBlur stdDeviation="12.5" result="blur"/>
      <feFlood flood-opacity="0.251"/>
      <feComposite operator="in" in2="blur"/>
      <feComposite in="SourceGraphic"/>
    </filter>
  </defs>
  <g id="Group_2830" data-name="Group 2830" transform="translate(0 18.061)">
    <path id="Path_7108" data-name="Path 7108" d="M2114.812,702.1H2075.5c.025-.73.056-1.459.056-2.2a62.073,62.073,0,0,0-124.146,0c0,.737.031,1.466.056,2.2h-39.315l13.041,29.939-13.041,29.938h202.664l13.041-29.938Z" transform="translate(-1912.148 -636.979)" fill="#614776"/>
    <g id="Group_2825" data-name="Group 2825" transform="translate(38.41 0)">
      <g transform="matrix(1, 0, 0, 1, -38.41, -18.06)" filter="url(#Path_7387)">
        <path id="Path_7387-2" data-name="Path 7387" d="M2111.271,715.256a46.482,46.482,0,1,1-45.706-47.246A46.482,46.482,0,0,1,2111.271,715.256Z" transform="translate(-1963.46 -633.5)" fill="url(#linear-gradient)"/>
      </g>
      <circle id="Ellipse_800" data-name="Ellipse 800" cx="44.492" cy="44.492" r="44.492" transform="translate(0 62.922) rotate(-45)" fill="#f2f2f2"/>
    </g>
  </g>
</svg>
